<svg width="1920" height="278" viewBox="0 0 1920 278" fill="none" xmlns="http://www.w3.org/2000/svg">
<rect width="1920" height="278" fill="#005CAF"/>
<g style="mix-blend-mode:hard-light" opacity="0.4">
<mask id="mask0_1054_1864" style="mask-type:alpha" maskUnits="userSpaceOnUse" x="940" y="0" width="980" height="274">
<rect width="980" height="274" transform="matrix(-1 0 0 1 1920 0)" fill="url(#paint0_linear_1054_1864)"/>
</mask>
<g mask="url(#mask0_1054_1864)">
<path d="M1106.97 -25.7939L1031.56 17.1328V-68.7588L1106.97 -25.7939Z" fill="#C2C2C2"/>
<path d="M1031.55 -68.7588V17.1328L956.095 -25.7939L1031.55 -68.7588Z" fill="#BABABA"/>
<path d="M956.1 -25.7939L880.683 17.1328V-68.7588L956.1 -25.7939Z" fill="#C1C1C1"/>
<path d="M1182.43 -68.7588V17.1328L1106.98 -25.7939L1182.43 -68.7588Z" fill="#DBDBDB"/>
<path d="M1182.43 17.1327L1106.98 60.0977V-25.794L1182.43 17.1327Z" fill="#C9C9C9"/>
<path d="M1106.97 -25.794V60.0977L1031.56 17.1327L1106.97 -25.794Z" fill="#BEBEBE"/>
<path d="M1031.55 17.1327L956.095 60.0977V-25.794L1031.55 17.1327Z" fill="#BEBEBE"/>
<path d="M956.1 -25.794V60.0977L880.683 17.1327L956.1 -25.794Z" fill="#C1C1C1"/>
<path d="M1257.88 -25.7939L1182.43 17.1328V-68.7588L1257.88 -25.7939Z" fill="#D1D1D1"/>
<path d="M1182.43 17.1337V103.025L1106.98 60.0986L1182.43 17.1337Z" fill="#BEBEBE"/>
<path d="M1106.97 60.0986L1031.56 103.025V17.1337L1106.97 60.0986Z" fill="#BDBDBD"/>
<path d="M1031.55 17.1337V103.025L956.095 60.0986L1031.55 17.1337Z" fill="#BABABA"/>
<path d="M956.1 60.0986L880.683 103.025V17.1337L956.1 60.0986Z" fill="#C7C7C7"/>
<path d="M1257.88 -25.794V60.0977L1182.43 17.1327L1257.88 -25.794Z" fill="#D3D3D3"/>
<path d="M1257.88 60.0986L1182.43 103.025V17.1337L1257.88 60.0986Z" fill="#D6D6D6"/>
<path d="M1182.43 103.025L1106.98 145.99V60.0985L1182.43 103.025Z" fill="#C2C2C2"/>
<path d="M1106.97 60.0985V145.99L1031.56 103.025L1106.97 60.0985Z" fill="#C1C1C1"/>
<path d="M1031.55 103.025L956.095 145.99V60.0985L1031.55 103.025Z" fill="#C1C1C1"/>
<path d="M956.1 60.0985V145.99L880.683 103.025L956.1 60.0985Z" fill="#C9C9C9"/>
<path d="M1333.3 -68.7588V17.1328L1257.88 -25.7939L1333.3 -68.7588Z" fill="#C3C3C3"/>
<path d="M1333.3 17.1327L1257.88 60.0977V-25.794L1333.3 17.1327Z" fill="#CDCDCD"/>
<path d="M1257.88 60.0985V145.99L1182.43 103.025L1257.88 60.0985Z" fill="#C6C6C6"/>
<path d="M1257.88 145.989L1182.43 188.916V103.024L1257.88 145.989Z" fill="#D1D1D1"/>
<path d="M1182.43 103.024V188.916L1106.98 145.989L1182.43 103.024Z" fill="#C6C6C6"/>
<path d="M1106.97 145.989L1031.56 188.916V103.024L1106.97 145.989Z" fill="#B9B9B9"/>
<path d="M1031.55 103.024V188.916L956.095 145.989L1031.55 103.024Z" fill="#BABABA"/>
<path d="M956.1 145.989L880.683 188.916V103.024L956.1 145.989Z" fill="#CDCDCD"/>
<path d="M1408.76 -25.7939L1333.3 17.1328V-68.7588L1408.76 -25.7939Z" fill="#BABABA"/>
<path d="M1333.3 17.1337V103.025L1257.88 60.0986L1333.3 17.1337Z" fill="#D1D1D1"/>
<path d="M1333.3 103.025L1257.88 145.99V60.0985L1333.3 103.025Z" fill="#C7C7C7"/>
<path d="M1257.88 145.989V231.843L1182.43 188.916L1257.88 145.989Z" fill="#D6D6D6"/>
<path d="M1182.43 188.916L1106.98 231.843V145.989L1182.43 188.916Z" fill="#C2C2C2"/>
<path d="M1106.97 145.989V231.843L1031.56 188.916L1106.97 145.989Z" fill="#BABABA"/>
<path d="M1031.55 188.916L956.095 231.843V145.989L1031.55 188.916Z" fill="#BABABA"/>
<path d="M956.1 145.989V231.843L880.683 188.916L956.1 145.989Z" fill="#C3C3C3"/>
<path d="M1408.76 -25.794V60.0977L1333.3 17.1327L1408.76 -25.794Z" fill="#BABABA"/>
<path d="M1408.76 60.0986L1333.3 103.025V17.1337L1408.76 60.0986Z" fill="#C3C3C3"/>
<path d="M1333.3 103.024V188.916L1257.88 145.989L1333.3 103.024Z" fill="#B6B6B6"/>
<path d="M1333.3 188.916L1257.88 231.843V145.989L1333.3 188.916Z" fill="#D1D1D1"/>
<path d="M1257.88 231.844L1182.43 274.809V188.917L1257.88 231.844Z" fill="#CACACA"/>
<path d="M1182.43 188.917V274.809L1106.98 231.844L1182.43 188.917Z" fill="#C7C7C7"/>
<path d="M1106.97 231.844L1031.56 274.809V188.917L1106.97 231.844Z" fill="#BABABA"/>
<path d="M1031.55 188.917V274.809L956.095 231.844L1031.55 188.917Z" fill="#C9C9C9"/>
<path d="M956.1 231.844L880.683 274.809V188.917L956.1 231.844Z" fill="#BABABA"/>
<path d="M1484.18 -68.7588V17.1328L1408.76 -25.7939L1484.18 -68.7588Z" fill="#BDBDBD"/>
<path d="M1484.18 17.1327L1408.76 60.0977V-25.794L1484.18 17.1327Z" fill="#BDBDBD"/>
<path d="M1408.76 60.0985V145.99L1333.3 103.025L1408.76 60.0985Z" fill="#BDBDBD"/>
<path d="M1408.76 145.989L1333.3 188.916V103.024L1408.76 145.989Z" fill="#B9B9B9"/>
<path d="M1333.3 188.917V274.809L1257.88 231.844L1333.3 188.917Z" fill="#CECECE"/>
<path d="M1333.3 274.808L1257.88 317.734V231.843L1333.3 274.808Z" fill="#CACACA"/>
<path d="M1257.88 231.843V317.734L1182.43 274.808L1257.88 231.843Z" fill="#CDCDCD"/>
<path d="M1182.43 274.808L1106.98 317.734V231.843L1182.43 274.808Z" fill="#C7C7C7"/>
<path d="M1106.97 231.843V317.734L1031.56 274.808L1106.97 231.843Z" fill="#C7C7C7"/>
<path d="M1031.55 274.808L956.095 317.734V231.843L1031.55 274.808Z" fill="#DFDFDF"/>
<path d="M956.1 231.843V317.734L880.683 274.808L956.1 231.843Z" fill="#CDCDCD"/>
<path d="M1559.62 -25.7939L1484.17 17.1328V-68.7588L1559.62 -25.7939Z" fill="#B6B6B6"/>
<path d="M1484.18 17.1337V103.025L1408.76 60.0986L1484.18 17.1337Z" fill="#BDBDBD"/>
<path d="M1484.18 103.025L1408.76 145.99V60.0985L1484.18 103.025Z" fill="#BEBEBE"/>
<path d="M1408.76 145.989V231.843L1333.3 188.916L1408.76 145.989Z" fill="#B6B6B6"/>
<path d="M1408.76 231.844L1333.3 274.809V188.917L1408.76 231.844Z" fill="#C7C7C7"/>
<path d="M1559.62 -25.794V60.0977L1484.17 17.1327L1559.62 -25.794Z" fill="#BEBEBE"/>
<path d="M1559.62 60.0986L1484.17 103.025V17.1337L1559.62 60.0986Z" fill="#C2C2C2"/>
<path d="M1484.18 103.024V188.916L1408.76 145.989L1484.18 103.024Z" fill="#C1C1C1"/>
<path d="M1484.18 188.916L1408.76 231.843V145.989L1484.18 188.916Z" fill="#BEBEBE"/>
<path d="M1408.76 231.843V317.734L1333.3 274.808L1408.76 231.843Z" fill="#C9C9C9"/>
<path d="M1635.04 -68.7588V17.1328L1559.63 -25.7939L1635.04 -68.7588Z" fill="#B6B6B6"/>
<path d="M1635.04 17.1327L1559.63 60.0977V-25.794L1635.04 17.1327Z" fill="#CECECE"/>
<path d="M1559.62 60.0985V145.99L1484.17 103.025L1559.62 60.0985Z" fill="#C3C3C3"/>
<path d="M1559.62 145.989L1484.17 188.916V103.024L1559.62 145.989Z" fill="#BABABA"/>
<path d="M1484.18 188.917V274.809L1408.76 231.844L1484.18 188.917Z" fill="#B9B9B9"/>
<path d="M1484.18 274.808L1408.76 317.734V231.843L1484.18 274.808Z" fill="#C9C9C9"/>
<path d="M1710.5 -25.7939L1635.05 17.1328V-68.7588L1710.5 -25.7939Z" fill="#AFAFAF"/>
<path d="M1635.04 17.1337V103.025L1559.63 60.0986L1635.04 17.1337Z" fill="#CDCDCD"/>
<path d="M1635.04 103.025L1559.63 145.99V60.0985L1635.04 103.025Z" fill="#C2C2C2"/>
<path d="M1559.62 145.989V231.843L1484.17 188.916L1559.62 145.989Z" fill="#C3C3C3"/>
<path d="M1559.62 231.844L1484.17 274.809V188.917L1559.62 231.844Z" fill="#BDBDBD"/>
<path d="M1710.5 -25.794V60.0977L1635.05 17.1327L1710.5 -25.794Z" fill="#B6B6B6"/>
<path d="M1710.5 60.0986L1635.05 103.025V17.1337L1710.5 60.0986Z" fill="#C2C2C2"/>
<path d="M1635.04 103.024V188.916L1559.63 145.989L1635.04 103.024Z" fill="#B9B9B9"/>
<path d="M1635.04 188.916L1559.63 231.843V145.989L1635.04 188.916Z" fill="#B9B9B9"/>
<path d="M1559.62 231.843V317.734L1484.17 274.808L1559.62 231.843Z" fill="#B2B2B2"/>
<path d="M1785.91 -68.7588V17.1328L1710.5 -25.7939L1785.91 -68.7588Z" fill="#9E9E9E"/>
<path d="M1785.91 17.1327L1710.5 60.0977V-25.794L1785.91 17.1327Z" fill="#B2B2B2"/>
<path d="M1710.5 60.0985V145.99L1635.05 103.025L1710.5 60.0985Z" fill="#C2C2C2"/>
<path d="M1710.5 145.989L1635.05 188.916V103.024L1710.5 145.989Z" fill="#C2C2C2"/>
<path d="M1635.04 188.917V274.809L1559.63 231.844L1635.04 188.917Z" fill="#B6B6B6"/>
<path d="M1635.04 274.808L1559.63 317.734V231.843L1635.04 274.808Z" fill="#A5A5A5"/>
<path d="M1861.37 -25.7939L1785.91 17.1328V-68.7588L1861.37 -25.7939Z" fill="#C1C1C1"/>
<path d="M1785.91 17.1337V103.025L1710.5 60.0986L1785.91 17.1337Z" fill="#B2B2B2"/>
<path d="M1785.91 103.025L1710.5 145.99V60.0985L1785.91 103.025Z" fill="#B9B9B9"/>
<path d="M1710.5 145.989V231.843L1635.05 188.916L1710.5 145.989Z" fill="#AFAFAF"/>
<path d="M1710.5 231.844L1635.05 274.809V188.917L1710.5 231.844Z" fill="#B5B5B5"/>
<path d="M1861.37 -25.794V60.0977L1785.91 17.1327L1861.37 -25.794Z" fill="#AFAFAF"/>
<path d="M1861.37 60.0986L1785.91 103.025V17.1337L1861.37 60.0986Z" fill="#9E9E9E"/>
<path d="M1785.91 103.024V188.916L1710.5 145.989L1785.91 103.024Z" fill="#B6B6B6"/>
<path d="M1785.91 188.916L1710.5 231.843V145.989L1785.91 188.916Z" fill="#B9B9B9"/>
<path d="M1710.5 231.843V317.734L1635.05 274.808L1710.5 231.843Z" fill="#9E9E9E"/>
<path d="M1936.83 -68.7588V17.1328L1861.37 -25.7939L1936.83 -68.7588Z" fill="#C7C7C7"/>
<path d="M1936.83 17.1327L1861.37 60.0977V-25.794L1936.83 17.1327Z" fill="#C7C7C7"/>
<path d="M1861.37 60.0985V145.99L1785.91 103.025L1861.37 60.0985Z" fill="#9E9E9E"/>
<path d="M1861.37 145.989L1785.91 188.916V103.024L1861.37 145.989Z" fill="#B2B2B2"/>
<path d="M1785.91 188.917V274.809L1710.5 231.844L1785.91 188.917Z" fill="#BABABA"/>
<path d="M1785.91 274.808L1710.5 317.734V231.843L1785.91 274.808Z" fill="#AFAFAF"/>
<path d="M1936.83 17.1337V103.025L1861.37 60.0986L1936.83 17.1337Z" fill="#C2C2C2"/>
<path d="M1936.83 103.025L1861.37 145.99V60.0985L1936.83 103.025Z" fill="#B6B6B6"/>
<path d="M1861.37 145.989V231.843L1785.91 188.916L1861.37 145.989Z" fill="#BDBDBD"/>
<path d="M1861.37 231.844L1785.91 274.809V188.917L1861.37 231.844Z" fill="#BABABA"/>
<path d="M1936.83 103.024V188.916L1861.37 145.989L1936.83 103.024Z" fill="#BDBDBD"/>
<path d="M1936.83 188.916L1861.37 231.843V145.989L1936.83 188.916Z" fill="#B2B2B2"/>
<path d="M1861.37 231.843V317.734L1785.91 274.808L1861.37 231.843Z" fill="#BABABA"/>
<path d="M1936.83 188.917V274.809L1861.37 231.844L1936.83 188.917Z" fill="#C1C1C1"/>
<path d="M1936.83 274.808L1861.37 317.734V231.843L1936.83 274.808Z" fill="#BABABA"/>
<path style="mix-blend-mode:color-dodge" d="M1948.84 -190.704L-50.6133 -190.704L-50.6133 692.693L1948.84 692.693V-190.704Z" fill="url(#paint1_linear_1054_1864)"/>
<g style="mix-blend-mode:overlay">
<path d="M1948.84 -190.704L-50.6133 -190.704L-50.6133 692.693L1948.84 692.693V-190.704Z" fill="#0010A3"/>
</g>
<path style="mix-blend-mode:color-dodge" d="M1948.84 -190.704L-50.6133 -190.704L-50.6133 692.693L1948.84 692.693V-190.704Z" fill="url(#paint2_linear_1054_1864)"/>
</g>
</g>
<g style="mix-blend-mode:hard-light" opacity="0.4">
<mask id="mask1_1054_1864" style="mask-type:alpha" maskUnits="userSpaceOnUse" x="0" y="0" width="976" height="274">
<rect width="976" height="274" fill="url(#paint3_linear_1054_1864)"/>
</mask>
<g mask="url(#mask1_1054_1864)">
<path d="M503.635 309.694L575.568 268.734V350.617L503.635 309.694Z" fill="#C9C9C9"/>
<path d="M575.57 350.617V268.734L647.467 309.694L575.57 350.617Z" fill="#BEBEBE"/>
<path d="M647.471 309.694L719.404 268.734V350.617L647.471 309.694Z" fill="#BEBEBE"/>
<path d="M719.4 350.617V268.734L791.297 309.694L719.4 350.617Z" fill="#C1C1C1"/>
<path d="M791.295 309.694L863.228 268.734V350.617L791.295 309.694Z" fill="#CACACA"/>
<path d="M863.232 350.617V268.734L935.129 309.694L863.232 350.617Z" fill="#D2D2D2"/>
<path d="M935.123 309.694L1007.06 268.734V350.617L935.123 309.694Z" fill="#DBDBDB"/>
<path d="M503.635 309.692V227.81L575.568 268.733L503.635 309.692Z" fill="#BEBEBE"/>
<path d="M575.57 268.733L647.467 227.81V309.692L575.57 268.733Z" fill="#BDBDBD"/>
<path d="M647.471 309.692V227.81L719.404 268.733L647.471 309.692Z" fill="#BABABA"/>
<path d="M719.4 268.733L791.297 227.81V309.692L719.4 268.733Z" fill="#C7C7C7"/>
<path d="M791.295 309.692V227.81L863.228 268.733L791.295 309.692Z" fill="#CDCDCD"/>
<path d="M863.232 268.733L935.129 227.81V309.692L863.232 268.733Z" fill="#D5D5D5"/>
<path d="M935.123 309.692V227.81L1007.06 268.733L935.123 309.692Z" fill="#DCDCDC"/>
<path d="M431.701 350.617V268.734L503.635 309.694L431.701 350.617Z" fill="#D3D3D3"/>
<path d="M431.701 268.733L503.635 227.81V309.692L431.701 268.733Z" fill="#D6D6D6"/>
<path d="M503.635 227.809L575.568 186.85V268.732L503.635 227.809Z" fill="#C2C2C2"/>
<path d="M575.57 268.732V186.85L647.467 227.809L575.57 268.732Z" fill="#C1C1C1"/>
<path d="M647.471 227.809L719.404 186.85V268.732L647.471 227.809Z" fill="#C1C1C1"/>
<path d="M719.4 268.732V186.85L791.297 227.809L719.4 268.732Z" fill="#C9C9C9"/>
<path d="M791.295 227.809L863.228 186.85V268.732L791.295 227.809Z" fill="#D2D2D2"/>
<path d="M863.232 268.732V186.85L935.129 227.809L863.232 268.732Z" fill="#D1D1D1"/>
<path d="M935.123 227.809L1007.06 186.85V268.732L935.123 227.809Z" fill="#D6D6D6"/>
<path d="M359.811 309.694L431.707 268.734V350.617L359.811 309.694Z" fill="#CDCDCD"/>
<path d="M431.701 268.732V186.85L503.635 227.809L431.701 268.732Z" fill="#C6C6C6"/>
<path d="M431.701 186.851L503.635 145.928V227.81L431.701 186.851Z" fill="#D1D1D1"/>
<path d="M503.635 227.81V145.928L575.568 186.851L503.635 227.81Z" fill="#C6C6C6"/>
<path d="M575.57 186.851L647.467 145.928V227.81L575.57 186.851Z" fill="#B9B9B9"/>
<path d="M647.471 227.81V145.928L719.404 186.851L647.471 227.81Z" fill="#BABABA"/>
<path d="M719.4 186.851L791.297 145.928V227.81L719.4 186.851Z" fill="#CDCDCD"/>
<path d="M791.295 227.81V145.928L863.228 186.851L791.295 227.81Z" fill="#CFCFCF"/>
<path d="M863.232 186.851L935.129 145.928V227.81L863.232 186.851Z" fill="#CFCFCF"/>
<path d="M935.123 227.81V145.928L1007.06 186.851L935.123 227.81Z" fill="#D1D1D1"/>
<path d="M359.811 309.692V227.81L431.707 268.733L359.811 309.692Z" fill="#D1D1D1"/>
<path d="M359.811 227.809L431.707 186.85V268.732L359.811 227.809Z" fill="#C7C7C7"/>
<path d="M431.701 186.851V105.005L503.635 145.928L431.701 186.851Z" fill="#D6D6D6"/>
<path d="M503.635 145.928L575.568 105.005V186.851L503.635 145.928Z" fill="#C2C2C2"/>
<path d="M575.57 186.851V105.005L647.467 145.928L575.57 186.851Z" fill="#BABABA"/>
<path d="M647.471 145.928L719.404 105.005V186.851L647.471 145.928Z" fill="#BABABA"/>
<path d="M719.4 186.851V105.005L791.297 145.928L719.4 186.851Z" fill="#C3C3C3"/>
<path d="M791.295 145.928L863.228 105.005V186.851L791.295 145.928Z" fill="#CDCDCD"/>
<path d="M863.232 186.851V105.005L935.129 145.928L863.232 186.851Z" fill="#CDCDCD"/>
<path d="M935.123 145.928L1007.06 105.005V186.851L935.123 145.928Z" fill="#D6D6D6"/>
<path d="M287.873 350.617V268.734L359.806 309.694L287.873 350.617Z" fill="#BABABA"/>
<path d="M287.873 268.733L359.806 227.81V309.692L287.873 268.733Z" fill="#C3C3C3"/>
<path d="M359.811 227.81V145.928L431.707 186.851L359.811 227.81Z" fill="#B6B6B6"/>
<path d="M359.811 145.928L431.707 105.005V186.851L359.811 145.928Z" fill="#D1D1D1"/>
<path d="M431.701 105.003L503.635 64.0439V145.926L431.701 105.003Z" fill="#CACACA"/>
<path d="M503.635 145.926V64.0439L575.568 105.003L503.635 145.926Z" fill="#C7C7C7"/>
<path d="M575.57 105.003L647.467 64.0439V145.926L575.57 105.003Z" fill="#BABABA"/>
<path d="M647.471 145.926V64.0439L719.404 105.003L647.471 145.926Z" fill="#C9C9C9"/>
<path d="M719.4 105.003L791.297 64.0439V145.926L719.4 105.003Z" fill="#BABABA"/>
<path d="M791.295 145.926V64.0439L863.228 105.003L791.295 145.926Z" fill="#C1C1C1"/>
<path d="M863.232 105.003L935.129 64.0439V145.926L863.232 105.003Z" fill="#CDCDCD"/>
<path d="M935.123 145.926V64.0439L1007.06 105.003L935.123 145.926Z" fill="#D6D6D6"/>
<path d="M215.973 309.694L287.869 268.734V350.617L215.973 309.694Z" fill="#BDBDBD"/>
<path d="M287.873 268.732V186.85L359.806 227.809L287.873 268.732Z" fill="#BDBDBD"/>
<path d="M287.873 186.851L359.806 145.928V227.81L287.873 186.851Z" fill="#B9B9B9"/>
<path d="M359.811 145.926V64.0439L431.707 105.003L359.811 145.926Z" fill="#CECECE"/>
<path d="M359.811 64.0461L431.707 23.123V105.006L359.811 64.0461Z" fill="#CACACA"/>
<path d="M431.701 105.006V23.123L503.635 64.0461L431.701 105.006Z" fill="#CDCDCD"/>
<path d="M503.635 64.0461L575.568 23.123V105.006L503.635 64.0461Z" fill="#C7C7C7"/>
<path d="M575.57 105.006V23.123L647.467 64.0461L575.57 105.006Z" fill="#C7C7C7"/>
<path d="M647.471 64.0461L719.404 23.123V105.006L647.471 64.0461Z" fill="#DFDFDF"/>
<path d="M719.4 105.006V23.123L791.297 64.0461L719.4 105.006Z" fill="#CDCDCD"/>
<path d="M791.295 64.0461L863.228 23.123V105.006L791.295 64.0461Z" fill="#D1D1D1"/>
<path d="M863.232 105.006V23.123L935.129 64.0461L863.232 105.006Z" fill="#CECECE"/>
<path d="M935.123 64.0461L1007.06 23.123V105.006L935.123 64.0461Z" fill="#CDCDCD"/>
<path d="M215.973 309.692V227.81L287.869 268.733L215.973 309.692Z" fill="#BDBDBD"/>
<path d="M215.973 227.809L287.869 186.85V268.732L215.973 227.809Z" fill="#BEBEBE"/>
<path d="M287.873 186.851V105.005L359.806 145.928L287.873 186.851Z" fill="#B6B6B6"/>
<path d="M287.873 105.003L359.806 64.0439V145.926L287.873 105.003Z" fill="#C7C7C7"/>
<path d="M359.811 64.0456V-17.8369L431.707 23.1225L359.811 64.0456Z" fill="#BDBDBD"/>
<path d="M431.701 23.1225L503.635 -17.8369V64.0456L431.701 23.1225Z" fill="#D1D1D1"/>
<path d="M503.635 64.0456V-17.8369L575.568 23.1225L503.635 64.0456Z" fill="#D1D1D1"/>
<path d="M575.57 23.1225L647.467 -17.8369V64.0456L575.57 23.1225Z" fill="#D1D1D1"/>
<path d="M647.471 64.0456V-17.8369L719.404 23.1225L647.471 64.0456Z" fill="#DFDFDF"/>
<path d="M719.4 23.1225L791.297 -17.8369V64.0456L719.4 23.1225Z" fill="#CDCDCD"/>
<path d="M791.295 64.0456V-17.8369L863.228 23.1225L791.295 64.0456Z" fill="#D8D8D8"/>
<path d="M863.232 23.1225L935.129 -17.8369V64.0456L863.232 23.1225Z" fill="#D8D8D8"/>
<path d="M935.123 64.0456V-17.8369L1007.06 23.1225L935.123 64.0456Z" fill="#D2D2D2"/>
<path d="M144.051 350.617V268.734L215.984 309.694L144.051 350.617Z" fill="#BEBEBE"/>
<path d="M144.051 268.733L215.984 227.81V309.692L144.051 268.733Z" fill="#C2C2C2"/>
<path d="M215.973 227.81V145.928L287.869 186.851L215.973 227.81Z" fill="#C1C1C1"/>
<path d="M215.973 145.928L287.869 105.005V186.851L215.973 145.928Z" fill="#BEBEBE"/>
<path d="M287.873 105.006V23.123L359.806 64.0461L287.873 105.006Z" fill="#C9C9C9"/>
<path d="M287.873 23.1225L359.806 -17.8369V64.0456L287.873 23.1225Z" fill="#CACACA"/>
<path d="M359.811 -17.8367L431.707 -58.7598V23.1227L359.811 -17.8367Z" fill="#CFCFCF"/>
<path d="M431.701 23.1227V-58.7598L503.635 -17.8367L431.701 23.1227Z" fill="#D6D6D6"/>
<path d="M503.635 -17.8367L575.568 -58.7598V23.1227L503.635 -17.8367Z" fill="#DEDEDE"/>
<path d="M575.57 23.1227V-58.7598L647.467 -17.8367L575.57 23.1227Z" fill="#E0E0E0"/>
<path d="M647.471 -17.8367L719.404 -58.7598V23.1227L647.471 -17.8367Z" fill="#D7D7D7"/>
<path d="M719.4 23.1227V-58.7598L791.297 -17.8367L719.4 23.1227Z" fill="#CDCDCD"/>
<path d="M791.295 -17.8367L863.228 -58.7598V23.1227L791.295 -17.8367Z" fill="#B9B9B9"/>
<path d="M863.232 23.1227V-58.7598L935.129 -17.8367L863.232 23.1227Z" fill="#D2D2D2"/>
<path d="M935.123 -17.8367L1007.06 -58.7598V23.1227L935.123 -17.8367Z" fill="#DADADA"/>
<path d="M72.1504 309.694L144.047 268.734V350.617L72.1504 309.694Z" fill="#CECECE"/>
<path d="M144.051 268.732V186.85L215.984 227.809L144.051 268.732Z" fill="#C3C3C3"/>
<path d="M144.051 186.851L215.984 145.928V227.81L144.051 186.851Z" fill="#BABABA"/>
<path d="M215.973 145.926V64.0439L287.869 105.003L215.973 145.926Z" fill="#B9B9B9"/>
<path d="M215.973 64.0461L287.869 23.123V105.006L215.973 64.0461Z" fill="#C9C9C9"/>
<path d="M287.873 23.1227V-58.7598L359.806 -17.8367L287.873 23.1227Z" fill="#BABABA"/>
<path d="M72.1504 309.692V227.81L144.047 268.733L72.1504 309.692Z" fill="#CDCDCD"/>
<path d="M72.1504 227.809L144.047 186.85V268.732L72.1504 227.809Z" fill="#C2C2C2"/>
<path d="M144.051 186.851V105.005L215.984 145.928L144.051 186.851Z" fill="#C3C3C3"/>
<path d="M144.051 105.003L215.984 64.0439V145.926L144.051 105.003Z" fill="#BDBDBD"/>
<path d="M215.973 64.0456V-17.8369L287.869 23.1225L215.973 64.0456Z" fill="#C6C6C6"/>
<path d="M215.973 -17.8367L287.869 -58.7598V23.1227L215.973 -17.8367Z" fill="#C2C2C2"/>
<path d="M0.212891 350.617V268.734L72.1463 309.694L0.212891 350.617Z" fill="#B6B6B6"/>
<path d="M0.212891 268.733L72.1463 227.81V309.692L0.212891 268.733Z" fill="#C2C2C2"/>
<path d="M72.1504 227.81V145.928L144.047 186.851L72.1504 227.81Z" fill="#B9B9B9"/>
<path d="M72.1504 145.928L144.047 105.005V186.851L72.1504 145.928Z" fill="#B9B9B9"/>
<path d="M144.051 105.006V23.123L215.984 64.0461L144.051 105.006Z" fill="#B2B2B2"/>
<path d="M144.051 23.1225L215.984 -17.8369V64.0456L144.051 23.1225Z" fill="#C6C6C6"/>
<path d="M-71.6797 309.694L0.216752 268.734V350.617L-71.6797 309.694Z" fill="#B2B2B2"/>
<path d="M0.212891 268.732V186.85L72.1463 227.809L0.212891 268.732Z" fill="#C2C2C2"/>
<path d="M0.212891 186.851L72.1463 145.928V227.81L0.212891 186.851Z" fill="#C2C2C2"/>
<path d="M72.1504 145.926V64.0439L144.047 105.003L72.1504 145.926Z" fill="#B6B6B6"/>
<path d="M72.1504 64.0461L144.047 23.123V105.006L72.1504 64.0461Z" fill="#A5A5A5"/>
<path d="M144.051 23.1227V-58.7598L215.984 -17.8367L144.051 23.1227Z" fill="#CACACA"/>
<path d="M-71.6797 309.692V227.81L0.216752 268.733L-71.6797 309.692Z" fill="#B2B2B2"/>
<path d="M-71.6797 227.809L0.216752 186.85V268.732L-71.6797 227.809Z" fill="#B9B9B9"/>
<path d="M0.212891 186.851V105.005L72.1463 145.928L0.212891 186.851Z" fill="#AFAFAF"/>
<path d="M0.212891 105.003L72.1463 64.0439V145.926L0.212891 105.003Z" fill="#B5B5B5"/>
<path d="M72.1504 64.0456V-17.8369L144.047 23.1225L72.1504 64.0456Z" fill="#A5A5A5"/>
<path d="M72.1504 -17.8367L144.047 -58.7598V23.1227L72.1504 -17.8367Z" fill="#CDCDCD"/>
<path d="M-71.6797 227.81V145.928L0.216752 186.851L-71.6797 227.81Z" fill="#B6B6B6"/>
<path d="M-71.6797 145.928L0.216752 105.005V186.851L-71.6797 145.928Z" fill="#B9B9B9"/>
<path d="M0.212891 105.006V23.123L72.1463 64.0461L0.212891 105.006Z" fill="#9E9E9E"/>
<path d="M0.212891 23.1225L72.1463 -17.8369V64.0456L0.212891 23.1225Z" fill="#9E9E9E"/>
<path d="M-71.6797 145.926V64.0439L0.216752 105.003L-71.6797 145.926Z" fill="#BABABA"/>
<path d="M-71.6797 64.0461L0.216752 23.123V105.006L-71.6797 64.0461Z" fill="#AFAFAF"/>
<path d="M0.212891 23.1227V-58.7598L72.1463 -17.8367L0.212891 23.1227Z" fill="#AFAFAF"/>
<path d="M-71.6797 64.0456V-17.8369L0.216752 23.1225L-71.6797 64.0456Z" fill="#B2B2B2"/>
<path d="M-71.6797 -17.8367L0.216752 -58.7598V23.1227L-71.6797 -17.8367Z" fill="#B5B5B5"/>
<path style="mix-blend-mode:color-dodge" d="M-227.001 507.828L1679.12 507.828V-334.335L-227.001 -334.335V507.828Z" fill="url(#paint4_linear_1054_1864)"/>
<g style="mix-blend-mode:overlay">
<path d="M-227.001 507.828L1679.12 507.828V-334.335L-227.001 -334.335V507.828Z" fill="#0010A3"/>
</g>
<path style="mix-blend-mode:color-dodge" d="M-227.001 507.828L1679.12 507.828V-334.335L-227.001 -334.335V507.828Z" fill="url(#paint5_linear_1054_1864)"/>
</g>
</g>
<defs>
<linearGradient id="paint0_linear_1054_1864" x1="-4.4172e-06" y1="129.958" x2="756.121" y2="129.958" gradientUnits="userSpaceOnUse">
<stop stop-color="#D9D9D9"/>
<stop offset="1" stop-color="#D9D9D9" stop-opacity="0"/>
</linearGradient>
<linearGradient id="paint1_linear_1054_1864" x1="1998.23" y1="250.975" x2="-368.859" y2="250.975" gradientUnits="userSpaceOnUse">
<stop/>
<stop offset="0.13" stop-color="#070707"/>
<stop offset="0.33" stop-color="#1B1B1B"/>
<stop offset="0.56" stop-color="#3C3C3C"/>
<stop offset="0.83" stop-color="#6A6A6A"/>
<stop offset="1" stop-color="#8C8C8C"/>
</linearGradient>
<linearGradient id="paint2_linear_1054_1864" x1="1406.63" y1="550.928" x2="372.977" y2="-146.207" gradientUnits="userSpaceOnUse">
<stop/>
<stop offset="0.13" stop-color="#070707"/>
<stop offset="0.33" stop-color="#1B1B1B"/>
<stop offset="0.56" stop-color="#3C3C3C"/>
<stop offset="0.83" stop-color="#6A6A6A"/>
<stop offset="1" stop-color="#8C8C8C"/>
</linearGradient>
<linearGradient id="paint3_linear_1054_1864" x1="-4.39917e-06" y1="129.958" x2="753.034" y2="129.958" gradientUnits="userSpaceOnUse">
<stop stop-color="#D9D9D9"/>
<stop offset="1" stop-color="#D9D9D9" stop-opacity="0"/>
</linearGradient>
<linearGradient id="paint4_linear_1054_1864" x1="-274.082" y1="86.765" x2="1982.51" y2="86.765" gradientUnits="userSpaceOnUse">
<stop/>
<stop offset="0.13" stop-color="#070707"/>
<stop offset="0.33" stop-color="#1B1B1B"/>
<stop offset="0.56" stop-color="#3C3C3C"/>
<stop offset="0.83" stop-color="#6A6A6A"/>
<stop offset="1" stop-color="#8C8C8C"/>
</linearGradient>
<linearGradient id="paint5_linear_1054_1864" x1="289.901" y1="-199.187" x2="1275.3" y2="465.408" gradientUnits="userSpaceOnUse">
<stop/>
<stop offset="0.13" stop-color="#070707"/>
<stop offset="0.33" stop-color="#1B1B1B"/>
<stop offset="0.56" stop-color="#3C3C3C"/>
<stop offset="0.83" stop-color="#6A6A6A"/>
<stop offset="1" stop-color="#8C8C8C"/>
</linearGradient>
</defs>
</svg>
