<svg width="213" height="40" viewBox="0 0 213 40" fill="none" xmlns="http://www.w3.org/2000/svg">
<g clip-path="url(#clip0_118_345)">
<path d="M58.5263 8.90174H88.2103C88.2103 8.90174 88.258 8.87822 88.258 8.8547V5.60319C88.258 5.60319 88.2342 5.55615 88.2103 5.55615H58.5263C58.5263 5.55615 58.4785 5.57967 58.4785 5.60319V8.8547C58.4785 8.8547 58.5024 8.90174 58.5263 8.90174Z" fill="#005BAC"/>
<path d="M89.1176 31.4686C89.1176 31.1687 88.8728 30.9218 88.5624 30.9218H79.1652C78.5622 30.8924 78.0368 30.3867 77.8458 29.8634C77.8219 29.7928 77.7861 29.6576 77.7861 29.5518V15.6403H88.9982C89.028 15.6403 89.046 15.6167 89.046 15.5932V12.3417C89.046 12.3417 89.0221 12.2947 88.9982 12.2947H57.7978C57.7978 12.2947 57.75 12.3182 57.75 12.3417V15.5932C57.75 15.5932 57.7739 15.6403 57.7978 15.6403H67.6367C67.571 15.7696 59.8515 29.9634 57.9888 33.3913C57.9769 33.4089 57.9709 33.4207 57.9649 33.4383C57.9351 33.503 57.9172 33.5794 57.9172 33.6558C57.9172 33.9557 58.1619 34.2027 58.4724 34.2027H61.5709C61.5709 34.2027 61.6068 34.1909 61.6127 34.1791C61.6127 34.1791 71.6726 15.7049 71.7024 15.6461H74.2398V29.4871C74.2457 32.0918 76.2995 34.2085 78.819 34.2085H85.9176C87.5056 34.1909 88.8728 33.0208 89.1116 31.5626C89.1116 31.5332 89.1176 31.5097 89.1176 31.4803" fill="#005BAC"/>
<path d="M131.102 12.8296C131.102 12.5298 130.857 12.2828 130.547 12.2828H115.836V4.76261C115.836 4.76261 115.812 4.71558 115.788 4.71558H112.296C112.296 4.71558 112.248 4.7391 112.248 4.76261V12.2828H98.7373C98.7373 12.2828 98.6896 12.3063 98.6896 12.3299V15.5579C98.6896 15.5579 98.7134 15.6049 98.7373 15.6049H111.251C111.155 15.7401 100.839 29.7986 98.2597 33.3206C98.2418 33.3382 98.2358 33.3618 98.2239 33.3794C98.1821 33.4558 98.1582 33.544 98.1582 33.644C98.1582 33.9439 98.403 34.1908 98.7134 34.1908H101.86C101.86 34.1908 101.89 34.1849 101.902 34.1732L113.054 19.0798C113.675 18.2978 114.582 18.2978 115.203 19.1151L126.332 34.1732C126.344 34.1849 126.356 34.1908 126.374 34.1908H129.52C129.824 34.1908 130.075 33.9497 130.075 33.644C130.075 33.5264 130.033 33.4147 129.968 33.3265C129.968 33.3206 129.962 33.3147 129.956 33.3088C127.359 29.7634 117.072 15.746 116.976 15.6108C117.161 15.6108 127.818 15.6108 127.818 15.6108C129.454 15.599 130.857 14.4054 131.096 12.9178C131.096 12.9178 131.096 12.9178 131.096 12.912C131.096 12.8884 131.096 12.8649 131.096 12.8355" fill="#005BAC"/>
<path d="M191.119 15.3341C191.119 15.3341 191.143 15.3811 191.167 15.3811H194.391C194.391 15.3811 194.439 15.3576 194.439 15.3341V10.8772C194.439 10.8302 194.439 10.6714 194.552 10.5656C194.659 10.4656 194.797 10.4539 194.833 10.4539H194.851H197.077V17.2332C197.077 17.2332 197.077 17.245 197.077 17.2509C197.077 17.2979 197.065 17.4155 196.958 17.5096C196.851 17.6036 196.707 17.6154 196.648 17.6154C196.636 17.6154 196.63 17.6154 196.624 17.6154H191.352C191.352 17.6154 191.328 17.6154 191.316 17.6272C191.31 17.6389 191.304 17.6507 191.304 17.6624V20.6376C191.304 20.6376 191.328 20.6846 191.352 20.6846H196.636C197.107 20.6846 198.313 20.5847 199.334 19.6498C200.313 18.7502 200.421 17.8682 200.421 17.5331V17.4508C200.421 17.4155 200.421 17.3978 200.421 17.3978V10.4539H203.382V17.439C203.382 17.439 203.382 17.4919 203.382 17.539C203.382 17.8741 203.489 18.7502 204.469 19.6498C205.49 20.5788 206.684 20.6846 207.149 20.6846H207.209H212.451C212.463 20.6846 212.475 20.6788 212.487 20.667C212.499 20.6552 212.505 20.6435 212.505 20.6317V17.6566C212.505 17.6566 212.481 17.6095 212.457 17.6095H207.197C207.197 17.6095 207.179 17.6095 207.167 17.6095C207.107 17.6095 206.958 17.5978 206.851 17.5037C206.743 17.4037 206.731 17.292 206.731 17.2509V17.2332V10.448H208.928C208.928 10.448 208.94 10.448 208.952 10.448C209.018 10.448 209.137 10.4597 209.239 10.5597C209.364 10.6714 209.352 10.8419 209.352 10.8654V15.3223C209.352 15.3223 209.352 15.3458 209.364 15.3576C209.37 15.3693 209.382 15.3752 209.4 15.3752H212.624C212.624 15.3752 212.672 15.3517 212.672 15.3282V10.9125C212.672 10.9125 212.773 9.50721 211.549 8.37242C210.851 7.71976 209.955 7.38462 208.887 7.37874C208.851 7.37874 208.809 7.37874 208.803 7.37874C208.803 7.37874 208.791 7.37874 208.785 7.37874H203.501V5.43254C203.501 5.43254 203.478 5.3855 203.454 5.3855H200.212C200.212 5.3855 200.164 5.40902 200.164 5.43254V7.37874H191.167C191.167 7.37874 191.119 7.3905 191.119 7.41989V15.3458V15.3341Z" fill="#005BAC"/>
<path d="M189.972 10.0483H186.659V5.32096C186.659 5.32096 186.635 5.27393 186.611 5.27393H183.441C183.441 5.27393 183.393 5.29744 183.393 5.32096V10.0424H179.829C179.829 10.0424 179.781 10.0659 179.781 10.0894V13.0881C179.781 13.0881 179.805 13.1352 179.829 13.1352H183.393V20.479C183.166 20.6142 181.375 21.6491 179.871 22.5193C179.859 22.531 179.847 22.5428 179.847 22.5604V25.2122C179.847 25.5121 180.098 25.7472 180.402 25.7472C180.504 25.7472 180.599 25.7237 180.677 25.6767L183.393 24.1068C183.393 24.3008 183.393 24.783 183.393 25.3886C183.393 26.9291 183.393 29.281 183.393 29.8454C183.363 30.5157 183.017 30.9861 182.522 31.0155H179.865C179.865 31.0155 179.841 31.0155 179.829 31.0331C179.823 31.039 179.817 31.0508 179.817 31.0684V34.1494C179.817 34.1494 179.841 34.1965 179.865 34.1965H182.629C182.629 34.1965 182.647 34.1965 182.653 34.1965C182.671 34.1965 182.695 34.1965 182.713 34.1965C182.725 34.1965 182.742 34.1965 182.754 34.1965H182.898C182.898 34.1965 182.922 34.1965 182.94 34.1847C185.035 34.0259 186.677 32.1268 186.683 29.869C186.683 29.869 186.683 29.8572 186.683 29.8513C186.683 29.6749 186.677 25.3651 186.671 23.2954C186.671 22.7015 186.671 22.2194 186.671 22.2194L189.972 20.3085C189.972 20.3085 189.996 20.2849 189.996 20.2673V17.6214C189.996 17.3216 189.752 17.0746 189.441 17.0746C189.34 17.0746 189.244 17.104 189.16 17.151L186.665 18.5916V13.141H189.978C189.978 13.141 190.026 13.1175 190.026 13.094V10.0953C190.026 10.0953 190.002 10.0483 189.978 10.0483" fill="#005BAC"/>
<path d="M212.999 31.5858C212.999 31.2859 212.755 31.039 212.444 31.039H203.345V26.0588H212.558C212.558 26.0588 212.605 26.0353 212.605 26.0118V23.019C212.605 23.019 212.581 22.9719 212.558 22.9719H190.784C190.784 22.9719 190.736 22.9954 190.736 23.019V26.0118C190.736 26.0118 190.76 26.0588 190.784 26.0588H199.996V31.039H190.784C190.784 31.039 190.736 31.0625 190.736 31.086V34.1552C190.736 34.1552 190.736 34.1787 190.748 34.1905C190.76 34.2023 190.772 34.2023 190.784 34.2023H209.871C211.447 34.1905 212.761 33.091 212.993 31.6681C212.993 31.6681 212.993 31.6681 212.993 31.6622C212.993 31.6328 212.999 31.6093 212.999 31.5799" fill="#005BAC"/>
<path d="M172.19 16.4867L166.966 9.13701C166.936 9.07821 166.828 8.93122 166.494 8.47259L165.933 7.68471C165.933 7.68471 165.921 7.67295 165.915 7.66707C165.909 7.65531 165.885 7.63179 165.867 7.60827C165.825 7.52595 165.396 6.77334 164.303 6.16773C163.246 5.57975 162.034 5.53271 161.688 5.53271C161.64 5.53271 161.616 5.53271 161.61 5.53271H144.392C144.392 5.53271 144.368 5.53272 144.357 5.54447C144.351 5.55035 144.345 5.56799 144.345 5.57975V8.3256C144.124 8.63723 140.022 14.3582 138.512 16.4749C138.446 16.5631 138.41 16.6749 138.41 16.7925C138.41 17.0923 138.661 17.3393 138.965 17.3393H141.974C141.992 17.3393 142.004 17.3334 142.016 17.3216C142.148 17.1394 142.476 16.6807 142.912 16.0692H153.813V20.1851H142.136C142.136 20.1851 142.088 20.2086 142.088 20.2321V23.2249C142.088 23.2249 142.112 23.2719 142.136 23.2719H153.813V31.0391H149.569C149.389 30.7392 147.592 27.5524 146.631 25.8473C146.619 25.8296 146.607 25.8238 146.589 25.8238H143.461C143.156 25.8238 142.906 26.0707 142.906 26.3706C142.906 26.4705 142.936 26.5646 142.983 26.6469L145.473 31.0391H139.825C139.825 31.0391 139.777 31.0626 139.777 31.0861V34.0789C139.777 34.0789 139.801 34.126 139.825 34.126H167.933C169.533 34.1083 170.864 33.0559 171.115 31.6859C171.115 31.6859 171.115 31.68 171.115 31.6741C171.115 31.6447 171.127 31.6094 171.127 31.58C171.127 31.2802 170.876 31.0332 170.572 31.0332H165.431L167.921 26.6352C167.969 26.5587 167.993 26.4647 167.993 26.3706C167.993 26.0707 167.742 25.8238 167.437 25.8238H164.309C164.291 25.8238 164.273 25.8355 164.267 25.8473L161.33 31.0391H157.24V23.2719H168.751C168.751 23.2719 168.799 23.2484 168.799 23.2249V20.2321C168.799 20.2321 168.775 20.1851 168.751 20.1851H157.24V16.0692H167.831C168.255 16.6631 168.578 17.1158 168.727 17.3216C168.739 17.3334 168.751 17.3393 168.769 17.3393H171.766C172.07 17.3393 172.321 17.0923 172.321 16.7925C172.321 16.6749 172.285 16.569 172.22 16.4749M145.139 12.9765C145.139 12.9765 148.189 8.72542 148.267 8.61371H162.225C162.309 8.61959 162.458 8.64899 162.506 8.67251L162.637 8.77834C162.715 8.89594 163.163 9.51919 165.628 12.9765H145.139Z" fill="#005BAC"/>
<path d="M17.6558 21.5787L11.1423 37.2071C11.1124 37.2777 11.1005 37.3482 11.1005 37.4247C11.1005 37.6305 11.2139 37.8127 11.3871 37.9068C11.393 37.9127 11.405 37.9186 11.411 37.9244C14.1394 39.2533 17.214 40 20.4618 40C23.7096 40 26.7843 39.2533 29.5127 37.9244C29.5127 37.9244 29.5187 37.9244 29.5247 37.9244C29.7038 37.8304 29.8291 37.6422 29.8291 37.4305C29.8291 37.3541 29.8112 37.2894 29.7873 37.2248C29.7873 37.2189 29.7873 37.213 29.7814 37.2071L23.3634 21.808C23.3634 21.808 23.3634 21.7904 23.3514 21.7845C22.8977 20.6556 21.7753 19.8559 20.4618 19.8559C19.232 19.8559 18.1693 20.5615 17.6618 21.5787M0.574985 19.8501C0.264533 19.8501 0.0078125 20.097 0.0078125 20.4086C0.0078125 20.4086 0.0078125 20.4204 0.0078125 20.4263C0.151098 25.5005 2.20486 30.0985 5.47058 33.5675C5.47058 33.5675 5.47655 33.5793 5.48252 33.5793C5.58401 33.6793 5.7273 33.7439 5.88849 33.7439C6.1273 33.7439 6.33029 33.6028 6.41387 33.397L11.7334 20.6262V20.6144C11.7572 20.5498 11.7751 20.4792 11.7751 20.4086C11.7751 20.097 11.5184 19.8501 11.208 19.8501H0.574985ZM29.7097 19.8501C29.3993 19.8501 29.1426 20.1029 29.1426 20.4086C29.1426 20.4851 29.1605 20.5615 29.1903 20.6262L34.5098 33.397C34.5934 33.5969 34.7964 33.7381 35.0352 33.7381C35.1904 33.7381 35.3277 33.6793 35.4352 33.5793C35.4412 33.5734 35.4471 33.5675 35.4591 33.5558C38.7248 30.0926 40.7726 25.4946 40.9218 20.4263C40.9218 20.4204 40.9218 20.4086 40.9218 20.4028C40.9218 20.0911 40.6651 19.8383 40.3547 19.8383H29.7157L29.7097 19.8501ZM16.8916 0C16.8916 0 16.8737 0 16.8678 0C9.47063 1.29943 3.45264 6.49125 1.08245 13.3471C1.08245 13.3471 1.08245 13.3529 1.08245 13.3588C1.06454 13.4117 1.0526 13.4705 1.0526 13.5293C1.0526 13.841 1.30932 14.0879 1.61978 14.0879H14.0797C14.0797 14.0879 14.1095 14.0879 14.1214 14.0879C14.3423 14.0703 14.5215 13.935 14.5991 13.741L15.5842 11.3715C16.9334 7.87888 17.5543 4.55093 17.5305 1.50522V0.558577C17.5305 0.24695 17.2737 0 16.9633 0C16.9394 0 16.9095 0 16.8857 0M23.3753 0.552697V1.49934C23.3455 4.55093 23.9723 7.88476 25.3156 11.3773L26.3007 13.741C26.3724 13.9115 26.5216 14.035 26.7067 14.0761H26.7127C26.7306 14.0761 26.7425 14.082 26.7604 14.082C26.7604 14.082 26.7963 14.082 26.8142 14.082H39.2681C39.5845 14.082 39.8352 13.8292 39.8352 13.5234C39.8352 13.4646 39.8233 13.4059 39.8054 13.3529C37.4651 6.49713 31.4411 1.29943 24.044 0.00587976C24.032 0.00587976 24.0261 0.00587976 24.0201 0.00587976C23.9962 0.00587976 23.9723 0.00587976 23.9425 0.00587976C23.6261 0.00587976 23.3753 0.258709 23.3753 0.564457" fill="#005BAC"/>
</g>
<defs>
<clipPath id="clip0_118_345">
<rect width="213" height="40" fill="white"/>
</clipPath>
</defs>
</svg>
