<svg width="666" height="541" viewBox="0 0 666 541" fill="none" xmlns="http://www.w3.org/2000/svg">
<g clip-path="url(#clip0_1030_41)">
<path d="M0 236.472C0 210.867 17.1453 196.211 36.6684 196.211C46.6891 196.211 54.7482 200.853 60.013 206.225L50.3069 217.997C46.4856 214.483 42.4514 212.005 36.983 212.005C27.0641 212.005 18.9033 220.882 18.9033 235.852C18.9033 250.823 25.9261 260.015 36.7795 260.015C42.877 260.015 47.8272 256.917 51.445 252.996L61.1603 264.555C54.6557 272.091 46.0784 275.91 36.0578 275.91C16.5346 275.91 0.0092527 262.493 0.0092527 236.472H0Z" fill="#005BAC"/>
<path d="M64.4531 235.639C64.4531 210.451 78.7115 196.201 99.6781 196.201C120.645 196.201 134.903 210.552 134.903 235.639C134.903 260.726 120.645 275.9 99.6781 275.9C78.7115 275.9 64.4531 260.828 64.4531 235.639ZM116.102 235.639C116.102 220.77 109.801 211.995 99.6781 211.995C89.5557 211.995 83.3564 220.77 83.3564 235.639C83.3564 250.508 89.5557 260.005 99.6781 260.005C109.801 260.005 116.102 250.61 116.102 235.639Z" fill="#005BAC"/>
<path d="M149.162 197.653H167.658V258.978H197.517V274.467H149.171V197.653H149.162Z" fill="#005BAC"/>
<path d="M202.875 235.639C202.875 210.451 217.133 196.201 238.1 196.201C259.067 196.201 273.325 210.552 273.325 235.639C273.325 260.726 259.067 275.9 238.1 275.9C217.133 275.9 202.875 260.828 202.875 235.639ZM254.524 235.639C254.524 220.77 248.222 211.995 238.1 211.995C227.978 211.995 221.778 220.77 221.778 235.639C221.778 250.508 227.978 260.005 238.1 260.005C248.222 260.005 254.524 250.61 254.524 235.639Z" fill="#005BAC"/>
<path d="M329.1 274.458L314.943 247.41H306.061V274.458H287.564V197.644H315.767C332.19 197.644 345.829 203.219 345.829 221.806C345.829 233.059 340.564 240.29 332.607 243.998L349.752 274.458H329.091H329.1ZM306.061 232.856H314.323C323.104 232.856 327.749 229.037 327.749 221.806C327.749 214.575 323.104 212.207 314.323 212.207H306.061V232.856Z" fill="#005BAC"/>
<path d="M360.707 197.653H409.774V212.929H379.193V229.758H405.434V245.145H379.193V274.467H360.697V197.653H360.707Z" fill="#005BAC"/>
<path d="M422.689 238.33V197.653H441.074V240.29C441.074 254.845 445.414 260.005 453.88 260.005C462.346 260.005 466.898 254.845 466.898 240.29V197.653H484.664V238.33C484.664 264.24 474.338 275.909 453.88 275.909C433.422 275.909 422.68 264.24 422.68 238.33H422.689Z" fill="#005BAC"/>
<path d="M501.914 197.653H520.41V258.978H550.269V274.467H501.923V197.653H501.914Z" fill="#005BAC"/>
<path d="M661.662 275.91C655.259 274.772 648.338 271.989 641.621 268.272C635.116 273.025 626.955 275.91 617.342 275.91C600.086 275.91 591.305 265.479 591.305 253.819C591.305 243.083 597.809 236.888 605.249 232.246C602.251 226.67 600.604 221.307 600.604 216.452C600.604 205.513 608.765 196.22 621.987 196.22C633.765 196.22 641.408 203.136 641.408 213.872C641.408 223.988 633.553 230.184 625.503 235.556C629.74 240.309 634.903 244.748 640.279 248.668C643.999 243.712 646.997 237.729 648.958 230.701H665.696C662.911 239.995 658.775 248.557 652.891 256.408C657.647 258.784 662.19 260.541 666.011 261.05L661.671 275.919L661.662 275.91ZM619.618 261.873C622.514 261.873 625.604 260.948 628.602 259.293C622.921 254.753 617.758 249.593 613.317 244.22C610.634 246.8 608.774 249.482 608.774 252.681C608.774 258.156 613.011 261.873 619.618 261.873V261.873ZM618.063 225.116C623.328 222.019 627.362 218.819 627.362 213.863C627.362 210.349 625.706 208.287 622.301 208.287C618.683 208.287 615.686 211.283 615.686 216.443C615.686 219.124 616.509 222.12 618.063 225.116Z" fill="#005BAC"/>
<path d="M0 321.127H18.8755L23.7239 356.062L26.8143 380.381H27.2307C28.6741 372.244 30.2193 363.996 31.7645 356.062L39.6015 321.127H55.0721L63.1127 356.062C64.6579 363.894 65.9995 372.142 67.5447 380.381H68.0628C68.9881 372.133 70.0244 363.996 70.9497 356.062L75.8999 321.127H93.4337L80.1284 397.802H56.9226L50.0108 364.412C48.771 358.54 47.7439 352.354 47.0222 346.584H46.5041C45.5788 352.354 44.6443 358.54 43.5154 364.412L36.8165 397.802H14.0271L0 321.127Z" fill="#005BAC"/>
<path d="M100.326 359.049C100.326 333.906 114.557 319.685 135.486 319.685C156.416 319.685 170.647 334.008 170.647 359.049C170.647 384.089 156.416 399.245 135.486 399.245C114.557 399.245 100.326 384.2 100.326 359.049V359.049ZM151.882 359.049C151.882 344.207 145.59 335.451 135.486 335.451C125.382 335.451 119.192 344.207 119.192 359.049C119.192 373.89 125.382 383.368 135.486 383.368C145.59 383.368 151.882 373.992 151.882 359.049Z" fill="#005BAC"/>
<path d="M184.879 321.127H203.643L222.722 357.819L230.254 374.824H230.772C229.745 366.687 228.302 355.655 228.302 346.482V321.127H245.836V397.802H227.071L208.094 360.805L200.562 344.004H200.044C200.868 352.557 202.413 363.071 202.413 372.346V397.802H184.879V321.127V321.127Z" fill="#005BAC"/>
<path d="M263.656 321.127H285.724C309.133 321.127 324.604 332.362 324.604 359.049C324.604 385.735 309.133 397.793 286.76 397.793H263.656V321.118V321.127ZM284.586 382.961C296.957 382.961 305.728 377.293 305.728 359.049C305.728 340.804 296.966 335.756 284.586 335.756H282.115V382.952H284.586V382.961Z" fill="#005BAC"/>
<path d="M338.826 321.127H387.495V336.375H357.285V350.597H382.962V366.058H357.285V382.342H388.633V397.802H338.826V321.127V321.127Z" fill="#005BAC"/>
<path d="M445.241 397.802L431.112 370.801H422.248V397.802H403.789V321.127H431.945C448.341 321.127 461.952 326.694 461.952 345.243C461.952 356.478 456.696 363.691 448.748 367.399L465.865 397.802H445.241V397.802ZM422.248 356.274H430.502C439.264 356.274 443.909 352.465 443.909 345.252C443.909 338.04 439.264 335.672 430.502 335.672H422.248V356.284V356.274Z" fill="#005BAC"/>
<path d="M476.781 321.127H525.765V336.375H495.24V353.177H521.435V368.536H495.24V397.802H476.781V321.127Z" fill="#005BAC"/>
<path d="M538.654 361.73V321.127H557.012V363.69C557.012 378.217 561.342 383.377 569.799 383.377C578.256 383.377 582.79 378.227 582.79 363.69V321.127H600.527V361.73C600.527 387.594 590.22 399.245 569.799 399.245C549.378 399.245 538.654 387.603 538.654 361.73V361.73Z" fill="#005BAC"/>
<path d="M617.736 321.127H636.195V382.342H665.998V397.802H617.736V321.127V321.127Z" fill="#005BAC"/>
<path d="M44.7646 518.835C37.7325 533.981 21.383 539.206 2.39645 540.999C1.94307 539.353 0.953028 536.764 0 535.266C7.87405 534.721 15.304 533.574 21.5865 531.327C20.1894 529.885 18.2001 528.192 16.405 526.694C14.4065 527.693 12.2691 528.636 9.97441 529.432C9.28046 528.091 7.57796 525.899 6.3381 524.845C16.6086 521.655 23.4833 516.773 27.277 511.946L33.7076 513.444C32.7083 514.59 31.7645 515.681 30.6634 516.782H39.583L40.6841 516.486L44.7738 518.825L44.7646 518.835ZM38.1859 500.507C31.7553 511.964 17.5986 518.141 3.2477 520.832C2.70179 519.334 1.55445 516.893 0.508898 515.598C5.54237 514.849 10.6314 513.601 15.2114 511.816C13.8698 510.42 12.0748 508.774 10.326 507.331C8.88259 508.127 7.38365 508.876 5.79219 509.569C4.89468 508.228 3.05339 506.185 1.75801 505.334C9.7801 502.347 15.7111 498.112 19.0513 494.229L25.4357 495.727C24.5844 496.623 23.6869 497.52 22.7431 498.417H33.2635L34.309 498.168L38.1951 500.507H38.1859ZM16.3495 503.642C15.9054 503.993 15.4057 504.289 14.9061 504.641C16.9972 506.139 19.0976 507.932 20.541 509.477C23.7332 507.831 26.5738 505.843 28.7666 503.651H16.3588L16.3495 503.642ZM24.3716 522.025C23.4278 522.672 22.4285 523.319 21.4848 523.967C23.5296 525.465 25.7688 527.305 27.314 528.895C30.7005 527.055 33.541 524.762 35.6877 522.025H24.3716V522.025Z" fill="#EB6100"/>
<path d="M90.0743 534.518C91.7213 534.518 92.0174 533.223 92.2672 526.047C93.5626 527.092 96.1071 528.137 97.7541 528.535C97.1526 537.449 95.663 540.038 90.574 540.038H84.5967C78.9618 540.038 77.5184 538.142 77.5184 532.317V517.078H70.0422C69.1447 527.434 66.8501 535.96 54.9418 540.787C54.2479 539.289 52.6009 537.097 51.25 535.951C61.613 532.067 63.0102 525.345 63.6116 517.069H52.3511V511.289H96.8103V517.069H83.653V532.307C83.653 534.203 83.949 534.499 85.596 534.499H90.0836L90.0743 534.518ZM92.221 503.587H56.8201V497.854H92.2117V503.587H92.221Z" fill="#EB6100"/>
<path d="M136.376 531.836C141.16 533.482 146.249 535.424 149.488 536.922L144.5 541.009C141.16 539.261 135.433 536.774 129.946 534.878L132.99 531.836H119.879L123.969 534.721C119.934 537.264 113.652 539.705 108.369 540.944C107.517 539.696 105.824 537.754 104.63 536.607C109.118 535.609 114.448 533.667 117.742 531.827H104.482V526.75H115.845V522.968H107.573V517.882H115.845V514.544H109.164V496.06H144.658V514.544H137.875V517.882H146.499V522.968H137.875V526.75H149.386V531.827H136.376V531.836ZM114.845 503.244H123.821V500.507H114.845V503.244ZM114.845 510.17H123.821V507.378H114.845V510.17ZM121.877 517.892H131.796V514.553H121.877V517.892ZM121.877 526.759H131.796V522.977H121.877V526.759ZM138.671 500.507H129.548V503.244H138.671V500.507ZM138.671 507.378H129.548V510.17H138.671V507.378Z" fill="#EB6100"/>
<path d="M175.562 522.413C178.504 524.808 181.243 527.693 182.686 529.885L178.744 533.87C177.597 531.882 175.45 529.339 173.063 527.046V540.741H167.327V529.136C164.736 532.575 161.645 535.756 158.749 538.003C158 536.413 156.455 534.064 155.215 532.723C158.851 530.486 162.793 526.5 165.485 522.413H156.964V517.087H167.336V512.704H173.073V517.087H182.297V522.413H175.571H175.562ZM183.288 499.795C175.913 501.635 165.939 502.782 157.463 503.383C157.315 501.94 156.519 499.795 155.918 498.501C164.245 497.752 173.665 496.457 179.744 494.811L183.278 499.795H183.288ZM161.109 514.239C160.461 512.001 158.768 508.755 156.917 506.37L161.257 504.474C163.2 506.712 164.949 509.754 165.744 511.946L161.109 514.239V514.239ZM170.426 503.133C171.87 505.371 173.267 508.413 173.813 510.401L168.927 512.149C168.529 510.004 167.179 506.869 165.837 504.576L170.426 503.133ZM183.436 504.631L183.288 504.881C187.479 502.689 192.457 498.907 195.048 495.116L200.932 497.557C197.389 502.338 192.263 506.619 187.322 509.56C186.322 508.164 184.675 506.425 183.13 505.223C181.483 508.413 179.744 511.798 178.347 513.989L173.813 512.648C175.21 510.004 176.801 506.074 177.597 503.179L183.426 504.622L183.436 504.631ZM203.079 524.91C198.795 531.937 192.161 537.31 184.786 540.898C183.843 539.307 182.048 537.116 180.502 535.766C187.127 533.075 193.762 528.34 197.148 522.515L203.079 524.91ZM201.83 511.215C198.092 516.051 192.707 520.379 187.673 523.319C186.674 521.978 184.879 520.027 183.288 518.936C187.72 516.643 193.206 512.713 196.001 508.774L201.83 511.215Z" fill="#EB6100"/>
<path d="M249.137 525.252C249.035 524.559 248.934 523.81 248.786 522.959C238.913 524.355 237.173 524.799 236.072 525.354C235.776 524.309 234.879 521.664 234.231 520.176C235.48 519.88 236.572 518.779 238.117 516.985C238.719 516.292 239.866 514.794 241.208 512.797C237.516 513.25 236.424 513.546 235.675 513.897C235.378 512.797 234.527 510.309 233.926 508.913C234.87 508.663 235.675 507.72 236.665 506.222C237.664 504.826 240.652 499.25 242.346 494.016L247.583 496.106C245.89 500.193 243.549 504.474 241.106 508.016L244.446 507.766C245.538 505.824 246.685 503.679 247.638 501.636L252.524 504.576C249.785 509.606 246.241 514.738 242.605 518.974L247.842 518.373C247.49 517.078 247.148 515.783 246.796 514.59L251.034 513.444C252.135 516.828 253.329 521.211 253.671 523.856L249.137 525.252ZM240.81 527.693C240.458 532.28 239.616 537.162 238.571 540.297C237.571 539.751 235.332 539.104 234.083 538.753C235.277 535.71 235.878 531.133 236.174 526.944L240.81 527.693ZM245.991 526.843C246.537 530.375 247.037 534.915 247.185 537.948L242.651 538.845C242.651 535.757 242.207 531.124 241.707 527.582L245.991 526.833V526.843ZM250.83 525.345C251.774 527.74 252.727 530.828 253.07 532.862L248.934 534.259C248.582 532.215 247.685 529.08 246.889 526.639L250.83 525.345ZM269.771 534.508C270.77 534.61 271.76 534.656 272.759 534.656C274.305 534.656 279.486 534.656 281.429 534.555C280.68 535.849 279.93 538.438 279.736 539.936H272.51C266.727 539.936 262.091 538.743 258.899 532.659C257.9 535.794 256.354 538.586 254.115 540.981C253.366 539.788 251.876 538.244 250.627 537.495C254.966 532.761 255.66 525.095 256.012 518.511H261.342C261.193 520.952 260.944 523.394 260.546 525.835C261.443 528.72 262.591 530.671 264.034 532.012V515.571H254.966V510.439H279.042V515.571H269.771V521.748H278.191V526.833H269.771V534.508V534.508ZM258.51 509.357H253.079V500.138H264.441C263.988 498.593 263.294 496.846 262.6 495.403L267.68 494.062C268.725 495.902 269.724 498.297 270.224 500.138H280.347V509.357H274.665V505.02H258.519V509.357H258.51Z" fill="#EB6100"/>
<path d="M289.516 497.696H314.498V504.428H297.621V514.997H312.027V521.785H297.621V538.207H289.516V497.696Z" fill="#EB6100"/>
<path d="M324.084 519.972V497.687H332.189V520.684C332.189 529.117 335.095 531.965 339.86 531.965C344.625 531.965 347.752 529.117 347.752 520.684V497.687H355.534V519.972C355.534 533.445 349.779 538.975 339.869 538.975C329.959 538.975 324.093 533.445 324.093 519.972H324.084Z" fill="#EB6100"/>
<path d="M368.016 497.696H376.288L388.066 519.269L392.119 528.026H392.396C391.962 523.81 391.351 518.446 391.351 513.851V497.696H399.021V538.207H390.805L379.082 516.523L374.974 507.822H374.696C375.075 512.205 375.686 517.291 375.686 521.951V538.207H368.016V497.696Z" fill="#EB6100"/>
<path d="M423.994 501.201V540.658H419.608V531.688C416.37 532.336 413.178 532.983 410.337 533.584L409.338 528.655C410.087 528.554 410.929 528.406 411.827 528.258V501.211H409.736V495.931H425.687V501.211H423.994V501.201ZM419.608 501.201H416.12V506.481H419.608V501.201ZM419.608 511.318H416.12V516.597H419.608V511.318ZM419.608 526.908V521.424H416.12V527.5L419.608 526.899V526.908ZM455.842 517.439C454.297 522.173 452.058 526.455 449.411 530.043C449.957 532.53 450.605 533.926 451.308 533.982C451.91 533.982 452.4 531.79 452.65 528.008C453.399 529.155 455.389 530.699 456.194 531.245C455 538.716 452.807 540.464 451.058 540.464C448.717 540.418 446.969 538.272 445.673 534.536C443.434 536.83 440.991 538.818 438.493 540.362C437.845 539.419 436.347 537.921 435.199 537.07C436.347 536.377 437.494 535.628 438.586 534.731H435.995V533.538H431.359V537.172H426.872V515.506H440.381V533.186C441.778 531.938 443.073 530.542 444.322 528.998C443.527 524.818 442.981 519.63 442.629 513.703H425.28V508.719H427.575C427.371 507.221 427.029 505.584 426.631 504.188L430.665 503.495C431.165 505.085 431.609 507.129 431.813 508.728H434.505C434.949 507.036 435.403 504.946 435.551 503.448L440.038 504.096C439.539 505.742 439.039 507.332 438.641 508.728H442.379C442.176 504.197 442.083 499.315 441.981 494.137H447.015C447.015 499.223 447.117 504.151 447.311 508.728H455.786V513.712H447.561C447.764 517.051 448.005 520.093 448.31 522.774C449.559 520.435 450.549 517.846 451.354 515.155L455.842 517.448V517.439ZM440.991 503.393H426.289V498.862H431.073C430.721 497.567 430.277 496.217 429.879 495.08L434.709 494.229C435.255 495.625 435.856 497.364 436.3 498.862H440.982V503.393H440.991ZM431.369 519.436V522.525H436.004V519.436H431.369ZM436.004 529.645V526.455H431.369V529.645H436.004ZM450.309 507.628C449.809 505.335 448.468 501.405 447.172 498.464L451.308 497.068C452.705 499.907 454.195 503.689 454.75 506.037L450.318 507.628H450.309Z" fill="#EB6100"/>
<path d="M558.585 520.573C557.243 525.16 555.143 528.988 552.45 532.076C554.893 533.621 557.78 534.814 560.972 535.563C559.778 536.607 558.233 538.753 557.483 540.149C554.097 539.15 551.053 537.708 548.508 535.766C545.871 537.81 542.975 539.354 539.783 540.547C539.182 539.252 537.886 537.357 536.841 536.164V540.593H531.308V536.312C525.525 536.959 519.742 537.504 515.254 538.004L514.801 532.927C516.096 532.826 517.54 532.724 519.14 532.576V517.485H515.254V512.806H559.519V517.485H536.841V535.812C539.533 535.017 542.124 533.667 544.363 532.03C542.466 529.839 540.829 527.25 539.579 524.411L541.375 523.912H538.386V519.38H553.94L554.883 519.177L558.575 520.573H558.585ZM526.783 511.262H521.102V495.671H553.847V511.262H547.87V499.759H526.783V511.262ZM524.442 517.485V519.528H531.317V517.485H524.442ZM524.442 525.604H531.317V523.616H524.442V525.604ZM524.442 532.076C526.635 531.873 529.031 531.679 531.317 531.429V529.682H524.442V532.076ZM546.029 504.974H528.337V501.534H546.029V504.974ZM528.384 510.3V506.86H546.029V510.3H528.384ZM544.78 523.902C545.631 525.594 546.824 527.194 548.166 528.581C549.461 527.185 550.609 525.594 551.404 523.902H544.78Z" fill="#EB6100"/>
<path d="M613.01 510.06V514.295H584.696V510.06H595.763V507.868H586.695V503.929H595.763V501.941H585.446V500.045C584.15 503.337 582.753 506.869 581.708 509.209L578.414 507.961V510.605H583.743V516.089H578.414V519.575L580.505 518.132C581.504 519.279 584.891 524.161 585.686 525.354L581.948 529.635C581.199 527.694 579.654 524.402 578.414 522.062V540.593H573.232V524.106C572.131 528.341 570.54 532.52 568.449 534.962C567.949 533.214 566.857 530.579 566.006 528.886C567.995 526.343 569.892 521.766 570.595 517.975L573.241 518.918V516.079H566.857V510.596H573.241V494.109H578.423V506.86C579.422 504.068 580.468 500.184 581.014 497.391L585.446 498.788V497.687H595.763V494.053H601.499V497.687H612.362V501.922H601.499V503.91H611.372V507.85H601.499V510.041H613.01V510.06ZM568.893 508.959C568.597 506.074 567.644 501.636 566.746 498.298L570.836 497.299C571.78 500.637 572.834 505.02 573.232 507.859L568.893 508.959V508.959ZM610.613 535.211C610.613 537.699 610.16 538.993 608.42 539.742C606.773 540.491 604.432 540.593 601.296 540.537C601.092 539.141 600.398 537.153 599.75 535.859C601.592 535.905 603.692 535.905 604.284 535.905C604.932 535.905 605.136 535.701 605.136 535.156V533.066H591.627C591.025 535.951 589.878 538.79 587.99 540.991C587.139 539.946 584.946 537.902 583.854 537.255C586.741 533.769 587.047 529.081 587.047 525.197V516.329H610.622V535.211H610.613ZM605.126 529.238V526.843H592.367C592.321 527.638 592.265 528.433 592.219 529.238H605.126V529.238ZM592.367 520.666V523.005H605.126V520.666H592.367Z" fill="#EB6100"/>
<path d="M638.481 522.118C641.424 524.513 644.163 527.398 645.606 529.589L641.664 533.575C640.517 531.587 638.38 529.044 635.983 526.75V540.445H630.256V528.84C627.665 532.28 624.575 535.461 621.679 537.708C620.929 536.118 619.384 533.769 618.135 532.428C621.771 530.19 625.713 526.205 628.405 522.118H619.884V516.791H630.256V512.408H635.983V516.791H645.208V522.118H638.481V522.118ZM646.207 499.5C638.833 501.34 628.859 502.486 620.383 503.088C620.235 501.645 619.439 499.5 618.838 498.205C627.165 497.456 636.585 496.162 642.664 494.516L646.207 499.5V499.5ZM624.029 513.943C623.381 511.706 621.688 508.46 619.837 506.074L624.177 504.179C626.12 506.416 627.869 509.459 628.664 511.65L624.029 513.943V513.943ZM633.346 502.838C634.79 505.076 636.187 508.118 636.733 510.106L631.847 511.854C631.449 509.708 630.098 506.574 628.757 504.28L633.346 502.838ZM646.355 504.336L646.207 504.586C650.399 502.394 655.377 498.612 657.968 494.821L663.852 497.262C660.318 502.043 655.183 506.324 650.242 509.264C649.242 507.868 647.605 506.13 646.05 504.928C644.403 508.118 642.664 511.502 641.267 513.694L636.733 512.353C638.13 509.708 639.721 505.778 640.517 502.884L646.346 504.327L646.355 504.336ZM665.999 524.614C661.715 531.642 655.081 537.014 647.706 540.602C646.763 539.012 644.968 536.82 643.422 535.47C650.047 532.779 656.682 528.045 660.068 522.219L665.999 524.614ZM664.75 510.92C661.012 515.756 655.627 520.083 650.593 523.024C649.594 521.683 647.799 519.732 646.207 518.641C650.64 516.348 656.126 512.418 658.921 508.479L664.75 510.92Z" fill="#EB6100"/>
<path d="M469.368 517.762C467.73 516.218 464.048 513.888 461.42 512.399L464.945 508.33C467.527 509.671 471.256 511.761 473.097 513.25L469.368 517.772V517.762ZM473.893 524.568C472.153 529.386 470.016 534.601 467.98 539.113L462.512 535.738C464.353 532.16 467.036 526.501 469.016 521.091L473.883 524.568H473.893ZM467.536 495.218C470.071 496.605 473.698 498.843 475.586 500.332L471.607 504.65C469.868 503.115 466.342 500.674 463.705 499.037L467.527 495.218H467.536ZM481.1 509.764C481.1 518.502 480.406 531.91 475.984 540.648C474.892 539.807 472.403 538.512 470.913 538.068C475.234 529.876 475.586 517.91 475.586 509.819V496.365H507.434V501.525H481.1V509.764V509.764ZM508.081 533.944V538.864H479.657V533.944H491.676V529.127H482.784V524.365H491.676V521.239H497.441V524.365H506.286V529.127H497.441V533.944H508.072H508.081ZM491.686 514.923V510.651H484.182V505.982H491.686V502.403H497.302V505.982H505.148V510.651H497.302V514.923H507.036V519.741H482.09V514.923H491.676H491.686Z" fill="#EB6100"/>
<path d="M225.832 0H252.183L268.292 43.7934C270.337 49.6559 271.975 56.0733 273.89 62.3519H274.575C276.62 56.0733 278.257 49.6652 280.173 43.7934L295.726 0H322.208V101.503H299.955V66.7165C299.955 56.6189 301.87 41.4724 303.092 31.5135H302.546L294.079 55.7959L280.432 92.9038H267.052L253.266 55.7959L245.077 31.5135H244.531C245.762 41.4724 247.668 56.6189 247.668 66.7165V101.503H225.822V0H225.832Z" fill="#EB6100"/>
<path d="M408.637 78.1734H378.602L372.736 101.503H347.893L379.417 0H408.627L440.16 101.503H414.494L408.627 78.1734H408.637ZM403.992 59.3467L401.808 50.7563C399.079 40.6587 396.488 28.5175 393.749 18.1517H393.203C390.742 28.7949 388.012 40.6587 385.422 50.7563L383.238 59.3467H403.992Z" fill="#EB6100"/>
<path d="M666 140.303H0V152.426H666V140.303Z" fill="#EB6100"/>
<path d="M666 443.029H0V455.152H666V443.029Z" fill="#EB6100"/>
</g>
<defs>
<clipPath id="clip0_1030_41">
<rect width="666" height="541" fill="white"/>
</clipPath>
</defs>
</svg>
