<svg width="290" height="290" viewBox="0 0 290 290" fill="none" xmlns="http://www.w3.org/2000/svg">
<path d="M19.9746 217.619C32.6916 239.544 50.9509 257.74 72.9207 270.381C94.8904 283.021 119.798 289.662 145.145 289.637C170.491 289.612 195.386 282.921 217.33 270.237C239.275 257.553 257.498 239.321 270.171 217.37L145.001 145.103L19.9746 217.619Z" fill="url(#paint0_linear_158_6651)"/>
<path d="M270.086 217.517C282.798 195.56 289.505 170.643 289.535 145.272C289.565 119.901 282.916 94.9695 270.256 72.9826C257.596 50.9957 239.372 32.7286 217.415 20.0172C195.458 7.30587 170.542 0.598195 145.171 0.568377L145.001 145.103L270.086 217.517Z" fill="url(#paint1_linear_158_6651)"/>
<path d="M19.9138 217.517C7.20242 195.56 0.494748 170.643 0.464931 145.272C0.435114 119.901 7.08421 94.9695 19.7439 72.9826C32.4036 50.9957 50.6279 32.7286 72.5849 20.0172C94.542 7.30587 119.458 0.598195 144.829 0.568377L144.999 145.103L19.9138 217.517Z" fill="url(#paint2_linear_158_6651)"/>
<line x1="145.626" y1="0.568005" x2="145.624" y2="144.524" stroke="white" stroke-width="1.25682"/>
<line x1="145.314" y1="144.489" x2="20.4363" y2="217.046" stroke="white" stroke-width="1.25682"/>
<line y1="-0.62841" x2="144.426" y2="-0.62841" transform="matrix(0.864648 0.502377 0.502377 -0.864648 145.578 143.946)" stroke="white" stroke-width="1.25682"/>
<circle cx="145.405" cy="144.934" r="58.8012" fill="white"/>
<path d="M132.56 123.785V124.777H135.6V123.785H132.56ZM132.88 132.153V133.113H139.312V132.153H132.88ZM132.848 134.729V135.737H139.504V134.729H132.848ZM132 121.849V127.753H133.088V121.849H132ZM130.96 127.593L131.296 128.601C132.592 128.297 134.24 127.865 135.824 127.465L135.728 126.521C133.984 126.937 132.192 127.353 130.96 127.593ZM136.272 121.849V126.857C136.272 128.041 136.56 128.361 137.76 128.361C138.016 128.361 139.328 128.361 139.584 128.361C140.544 128.361 140.848 127.913 140.976 126.249C140.656 126.169 140.208 125.993 139.968 125.801C139.936 127.129 139.856 127.321 139.456 127.321C139.2 127.321 138.112 127.321 137.904 127.321C137.456 127.321 137.376 127.257 137.376 126.857V121.849H136.272ZM139.792 122.841C139.088 123.401 137.824 124.041 136.704 124.505C136.832 124.729 137.008 125.065 137.056 125.289C138.256 124.857 139.632 124.281 140.624 123.641L139.792 122.841ZM135.2 127.993C135.072 128.585 134.768 129.481 134.528 130.041L135.568 130.281C135.824 129.769 136.112 129.001 136.4 128.249L135.2 127.993ZM132.288 129.625V136.329H133.408V130.649H138.912V136.281H140.064V129.625H132.288ZM126.848 122.329V136.361H127.936V123.417H130.448V122.329H126.848ZM130.08 122.329V122.665C129.776 123.753 129.216 125.657 128.688 127.129C129.76 128.377 130.016 129.465 130.032 130.313C130.032 130.809 129.936 131.257 129.712 131.433C129.6 131.513 129.424 131.561 129.232 131.561C129.008 131.577 128.72 131.561 128.4 131.545C128.56 131.849 128.672 132.313 128.688 132.601C129.024 132.617 129.392 132.601 129.68 132.569C130 132.521 130.272 132.441 130.48 132.297C130.912 131.977 131.104 131.289 131.088 130.441C131.088 129.465 130.848 128.329 129.76 126.985C130.256 125.689 130.816 124.057 131.248 122.745L130.448 122.281L130.288 122.329H130.08ZM149.024 128.745V129.849H155.216V128.745H149.024ZM143.952 125.801V126.937H148.224V125.801H143.952ZM143.952 128.873V130.009H148.368V128.873H143.952ZM150.496 122.313V123.385H154.256V122.313H150.496ZM154.976 128.745V128.953C153.968 132.409 151.088 134.505 147.792 135.337C148.032 135.609 148.32 136.089 148.448 136.393C152 135.353 154.992 133.113 156.192 129.001L155.408 128.697L155.2 128.745H154.976ZM150.736 129.785L149.696 130.073C150.848 133.193 153.056 135.369 156.224 136.345C156.4 136.025 156.736 135.545 157.024 135.305C153.968 134.489 151.776 132.521 150.736 129.785ZM143.392 122.857V136.345H144.528V123.225L143.392 122.857ZM142.064 132.841L142.272 134.025C144.032 133.705 146.496 133.257 148.832 132.825L148.784 131.721C146.32 132.153 143.744 132.585 142.064 132.841ZM149.952 122.313V124.585C149.952 125.657 149.76 126.825 148.304 127.705C148.544 127.865 148.976 128.297 149.136 128.521C150.752 127.513 151.072 125.929 151.072 124.617V122.313H149.952ZM147.84 121.657C146.88 122.201 145.152 122.793 143.632 123.177C143.792 123.417 143.968 123.817 144.032 124.073C145.664 123.705 147.552 123.161 148.864 122.505L147.84 121.657ZM153.584 122.313V126.201C153.584 127.097 153.68 127.369 153.904 127.561C154.128 127.769 154.496 127.849 154.816 127.849C154.992 127.849 155.408 127.849 155.632 127.849C155.888 127.849 156.208 127.801 156.384 127.689C156.608 127.593 156.768 127.417 156.864 127.161C156.944 126.889 156.992 126.185 157.024 125.545C156.72 125.449 156.32 125.273 156.112 125.065C156.096 125.721 156.08 126.233 156.032 126.457C156 126.649 155.936 126.777 155.872 126.809C155.808 126.857 155.664 126.873 155.52 126.873C155.392 126.873 155.168 126.873 155.072 126.873C154.944 126.873 154.864 126.857 154.816 126.809C154.736 126.745 154.72 126.569 154.72 126.265V122.313H153.584ZM163.07 123.445V135.081H161.309V125.206H161.241L158.457 127.024V125.342L161.36 123.445H163.07Z" fill="#005CAF"/>
<path d="M122.478 167.713C121.643 167.707 120.828 167.562 120.032 167.278C119.237 166.988 118.521 166.519 117.885 165.872C117.248 165.218 116.743 164.352 116.368 163.272C115.993 162.187 115.808 160.843 115.814 159.241C115.814 157.747 115.973 156.414 116.291 155.244C116.609 154.073 117.066 153.085 117.663 152.278C118.26 151.465 118.978 150.846 119.819 150.42C120.666 149.994 121.612 149.781 122.657 149.781C123.754 149.781 124.725 149.997 125.572 150.429C126.424 150.86 127.112 151.451 127.635 152.201C128.157 152.946 128.481 153.786 128.606 154.724H125.495C125.336 154.054 125.01 153.519 124.515 153.122C124.027 152.718 123.407 152.517 122.657 152.517C121.447 152.517 120.515 153.042 119.862 154.093C119.214 155.144 118.887 156.588 118.882 158.423H119.001C119.279 157.923 119.64 157.494 120.083 157.136C120.527 156.778 121.027 156.502 121.583 156.309C122.146 156.11 122.74 156.011 123.365 156.011C124.387 156.011 125.305 156.255 126.118 156.744C126.936 157.233 127.583 157.906 128.061 158.764C128.538 159.616 128.774 160.593 128.768 161.696C128.774 162.843 128.512 163.875 127.984 164.789C127.456 165.698 126.72 166.414 125.777 166.937C124.833 167.46 123.734 167.718 122.478 167.713ZM122.461 165.156C123.081 165.156 123.635 165.005 124.123 164.704C124.612 164.403 124.998 163.997 125.282 163.485C125.566 162.974 125.706 162.4 125.7 161.764C125.706 161.139 125.569 160.573 125.291 160.068C125.018 159.562 124.64 159.161 124.157 158.866C123.674 158.571 123.123 158.423 122.504 158.423C122.044 158.423 121.615 158.511 121.217 158.687C120.819 158.863 120.473 159.108 120.177 159.42C119.882 159.727 119.649 160.085 119.478 160.494C119.314 160.897 119.228 161.329 119.223 161.789C119.228 162.397 119.37 162.957 119.649 163.468C119.927 163.98 120.311 164.389 120.799 164.696C121.288 165.002 121.842 165.156 122.461 165.156ZM138.234 148.322V169.61H140.85V150.818H149.922V169.418H152.658V148.322H138.234ZM141.474 153.77V155.858H149.37V153.77H141.474ZM139.578 165.698V168.218H151.242V165.698H139.578ZM144.234 151.322V159.026H146.466V151.322H144.234ZM144.162 159.938H146.61V162.434H144.162V159.938ZM142.098 157.946V164.426H148.794V157.946H142.098ZM135.258 147.17C134.178 150.602 132.33 154.058 130.314 156.266C130.77 157.01 131.49 158.69 131.706 159.386C134.202 156.554 136.506 152.114 137.898 147.962L135.258 147.17ZM133.29 153.746V169.658H136.026V151.058L136.002 151.034L133.29 153.746ZM160.554 148.226V151.034H172.554V148.226H160.554ZM160.578 153.962V156.698H172.674V153.962H160.578ZM160.458 159.65V162.434H172.506V159.65H160.458ZM158.586 148.226V156.17C158.586 159.842 158.25 164.474 154.602 167.57C155.226 167.954 156.402 169.034 156.834 169.634C160.89 166.226 161.538 160.346 161.538 156.17V148.226H158.586ZM171.21 148.226V165.938C171.21 166.442 171.018 166.61 170.466 166.634C169.89 166.634 167.898 166.658 166.194 166.562C166.674 167.33 167.226 168.722 167.394 169.586C169.89 169.586 171.594 169.538 172.746 169.034C173.85 168.554 174.258 167.69 174.258 165.986V148.226H171.21Z" fill="#F06214"/>
<path d="M38.808 92.96C36.84 93.68 33.368 94.32 30.392 94.704C30.52 94.992 30.696 95.44 30.744 95.728C33.784 95.36 37.368 94.768 39.704 93.968L38.808 92.96ZM29.848 99.424V100.576H40.36V99.424H29.848ZM30.472 105.52V106.672H40.104V105.52H30.472ZM34.616 94.736V105.84H35.816V94.736H34.616ZM27.96 96.816V107.28H29.16V95.664L29.144 95.632L27.96 96.816ZM29.704 92.576C28.712 95.088 27.064 97.536 25.336 99.104C25.576 99.408 25.944 100.032 26.072 100.32C27.944 98.496 29.736 95.728 30.872 92.944L29.704 92.576ZM41.912 93.36V94.4H47.368V93.36H41.912ZM48.088 101.536V102.576H55.032V101.536H48.088ZM41.736 98.192V99.264H47.752V98.192H41.736ZM44.536 98.624V105.888C44.536 106.064 44.472 106.112 44.296 106.128C44.104 106.128 43.464 106.128 42.776 106.112C42.936 106.432 43.096 106.928 43.128 107.232C44.12 107.232 44.744 107.216 45.144 107.04C45.576 106.832 45.688 106.512 45.688 105.888V98.624H44.536ZM54.616 101.536V101.728C54.376 104.528 54.088 105.648 53.752 105.968C53.608 106.112 53.464 106.128 53.208 106.128C52.952 106.128 52.312 106.112 51.624 106.048C51.8 106.368 51.912 106.848 51.944 107.168C52.664 107.216 53.368 107.216 53.736 107.184C54.168 107.152 54.456 107.056 54.744 106.768C55.208 106.288 55.496 105.072 55.8 102.064C55.832 101.888 55.848 101.536 55.848 101.536H54.616ZM51.08 99.952C50.808 102.72 50.184 105.136 46.856 106.368C47.112 106.576 47.432 107.008 47.576 107.296C51.192 105.888 51.976 103.184 52.28 99.952H51.08ZM42.472 96.032C43.832 96.64 45.464 97.648 46.264 98.384L47.064 97.504C46.232 96.768 44.568 95.824 43.224 95.264L42.472 96.032ZM47.432 98.192V98.4C47.176 99.552 46.776 100.976 46.36 101.856L47.208 102.272C47.704 101.28 48.184 99.744 48.52 98.4L47.784 98.144L47.608 98.192H47.432ZM53.848 94.736C52.984 97.216 50.744 98.64 47.832 99.376C48.072 99.632 48.44 100.128 48.584 100.384C51.608 99.44 54.008 97.84 55.08 94.944L53.848 94.736ZM50.424 92.56C49.784 94.096 48.616 95.552 47.352 96.496C47.656 96.656 48.136 96.992 48.344 97.2C49.576 96.176 50.808 94.576 51.56 92.864L50.424 92.56ZM50.136 95.072L49.144 95.408C50.424 97.872 52.824 99.664 55.752 100.448C55.912 100.128 56.264 99.664 56.52 99.424C53.672 98.8 51.288 97.2 50.136 95.072ZM44.392 98.544C43.864 100.384 42.728 102.48 41.576 103.568C41.784 103.856 42.072 104.352 42.2 104.688C43.448 103.44 44.6 100.96 45.208 98.848L44.392 98.544ZM50.072 94.256L49.576 95.28H56.184V94.256H50.072ZM47.08 93.36V93.584C46.552 94.448 45.432 95.616 44.408 96.288C44.648 96.432 45.016 96.688 45.224 96.88C46.328 96.144 47.576 94.928 48.312 93.808L47.528 93.312L47.336 93.36H47.08ZM68.344 93.36C69.176 93.936 70.152 94.8 70.632 95.376L71.48 94.624C70.984 94.064 69.976 93.232 69.144 92.672L68.344 93.36ZM57.88 95.552V96.72H72.136V95.552H57.88ZM58.424 99.12V100.288H65.496V99.12H58.424ZM61.304 99.744V105.456H62.504V99.744H61.304ZM57.944 105.616L58.312 106.816C60.376 106.352 63.304 105.68 66.04 105.04L65.944 103.968C62.984 104.608 59.848 105.248 57.944 105.616ZM66.024 92.64C66.088 100.384 67.384 107.312 70.568 107.312C71.8 107.312 72.264 106.496 72.472 103.696C72.136 103.584 71.672 103.312 71.4 103.04C71.304 105.184 71.112 106.064 70.664 106.064C68.696 106.064 67.256 100.064 67.304 92.64H66.024ZM17.736 128.72V129.712H32.264V128.72H17.736ZM18.2 119.808V120.768H31.608V119.808H18.2ZM27.272 127.68V131.968C27.272 132.176 27.192 132.24 26.936 132.256C26.664 132.272 25.768 132.272 24.808 132.24C24.968 132.544 25.128 132.976 25.176 133.28C26.472 133.28 27.288 133.28 27.8 133.12C28.296 132.944 28.424 132.624 28.424 132V127.68H27.272ZM24.376 118.592V127.168H25.56V118.592H24.376ZM20.296 130.384C21.256 130.976 22.376 131.856 22.92 132.496L23.8 131.696C23.24 131.072 22.056 130.224 21.112 129.68L20.296 130.384ZM20.568 124.24H29.464V125.232H20.568V124.24ZM20.568 122.48H29.464V123.456H20.568V122.48ZM19.432 121.68V126.048H30.632V121.68H19.432ZM27.368 126.384C28.632 126.816 30.152 127.648 30.936 128.288L31.656 127.6C30.856 127.008 29.336 126.208 28.056 125.776L27.368 126.384ZM18.376 126.976L18.424 127.92C21.448 127.872 25.992 127.776 30.264 127.664L30.328 126.848C25.944 126.928 21.288 126.976 18.376 126.976ZM34.008 128.448V129.456H48.024V128.448H34.008ZM34.072 121.424V122.448H47.96V121.424H34.072ZM34.712 124.16V125.152H47.384V124.16H34.712ZM35.528 126.32V127.248H46.6V126.32H35.528ZM40.376 124.624V133.296H41.56V124.624H40.376ZM38.904 118.56V121.904H40.04V118.56H38.904ZM41.928 118.56V121.856H43.08V118.56H41.928ZM39.992 128.848C38.632 130.24 35.96 131.472 33.592 132C33.848 132.256 34.2 132.72 34.376 133.024C36.76 132.352 39.464 130.96 40.952 129.296L39.992 128.848ZM41.944 128.816L41 129.216C42.504 130.944 45.176 132.4 47.608 133.072C47.784 132.736 48.152 132.256 48.424 132C45.992 131.488 43.304 130.256 41.944 128.816ZM45.64 118.752C45.368 119.488 44.84 120.544 44.408 121.216L45.384 121.536C45.832 120.912 46.408 119.968 46.872 119.088L45.64 118.752ZM43.496 122.144C43.304 122.72 42.888 123.552 42.568 124.112L43.576 124.416C43.928 123.904 44.344 123.168 44.744 122.448L43.496 122.144ZM35.368 119.088C35.88 119.84 36.456 120.864 36.68 121.504L37.752 121.104C37.528 120.448 36.936 119.44 36.392 118.72L35.368 119.088ZM37.448 122.56C37.8 123.088 38.152 123.84 38.28 124.32L39.464 124.064C39.32 123.584 38.952 122.864 38.584 122.336L37.448 122.56ZM49.992 129.136V130.128H64.008V129.136H49.992ZM52.824 126.32V127.232H60.216V126.32H52.824ZM56.392 128.24V132C56.392 132.208 56.328 132.256 56.072 132.272C55.816 132.288 54.904 132.304 53.928 132.272C54.088 132.56 54.264 132.976 54.328 133.296C55.608 133.296 56.44 133.28 56.92 133.12C57.448 132.96 57.576 132.656 57.576 132.032V128.24H56.392ZM59.944 126.32V126.528C59.24 127.168 57.848 127.984 56.68 128.432C56.84 128.576 57.128 128.88 57.272 129.072C58.6 128.544 60.152 127.712 61.208 126.864L60.488 126.256L60.232 126.32H59.944ZM50.184 124.304V127.232H51.336V125.232H62.664V127.232H63.848V124.304H50.184ZM51.144 119.264L51.512 124.768H52.616L52.312 119.808C52.504 119.776 52.6 119.712 52.632 119.632L51.144 119.264ZM61.816 119.168C61.736 120.96 61.576 123.36 61.384 124.816H62.536C62.696 123.392 62.856 121.008 62.952 119.168H61.816ZM59.192 119.168V120H62.264V119.168H59.192ZM54.264 118.704C53.528 118.992 52.28 119.44 51.4 119.616L51.928 120.272C52.808 120.08 54.024 119.776 54.888 119.376L54.264 118.704ZM51.848 120.88V121.696H54.76V120.88H51.848ZM51.928 122.576V123.408H54.84V122.576H51.928ZM59.256 120.88V121.696H62.136V120.88H59.256ZM59.192 122.576V123.408H62.024V122.576H59.192ZM57.736 118.72C57.096 119.552 55.992 120.32 54.904 120.848C55.096 120.992 55.448 121.28 55.592 121.44C56.664 120.848 57.848 119.936 58.584 118.976L57.736 118.72ZM55.352 119.392C56.296 119.904 57.432 120.672 57.976 121.232L58.6 120.672C58.04 120.112 56.888 119.344 55.944 118.88L55.352 119.392ZM57.896 121.376C57.24 122.256 56.072 123.072 54.936 123.616C55.144 123.76 55.496 124.064 55.64 124.208C56.744 123.6 58.008 122.64 58.76 121.632L57.896 121.376ZM55.464 122.112C56.424 122.656 57.576 123.472 58.12 124.048L58.76 123.472C58.184 122.896 57.016 122.096 56.056 121.616L55.464 122.112ZM67.96 126.672V133.328H69.144V127.632H76.952V133.328H78.184V126.672H67.96ZM68.584 129.168V130.128H77.336V129.168H68.584ZM68.632 131.744V132.704H77.336V131.744H68.632ZM72.344 125.168C72.184 125.696 71.832 126.512 71.528 127.056L72.504 127.312C72.84 126.832 73.256 126.112 73.608 125.408L72.344 125.168ZM66.152 119.392V120.352H71.48V119.392H66.152ZM71.16 119.392V124.688C71.16 124.848 71.112 124.912 70.904 124.912C70.712 124.928 70.072 124.928 69.336 124.912C69.48 125.168 69.624 125.536 69.672 125.808C70.696 125.808 71.336 125.808 71.752 125.648C72.136 125.488 72.264 125.216 72.264 124.688V119.392H71.16ZM73.272 119.392V120.352H78.856V119.392H73.272ZM78.312 119.392V124.688C78.312 124.88 78.248 124.912 78.04 124.928C77.832 124.944 77.128 124.944 76.376 124.912C76.52 125.184 76.664 125.584 76.712 125.856C77.784 125.872 78.472 125.856 78.888 125.696C79.32 125.52 79.432 125.248 79.432 124.688V119.392H78.312ZM72.904 124.112L73.352 125.04C74.584 124.608 76.152 124 77.624 123.44L77.448 122.56C75.768 123.152 74.072 123.744 72.904 124.112ZM73.72 121.232C74.488 121.632 75.416 122.272 75.848 122.768L76.504 121.968C76.056 121.488 75.112 120.88 74.344 120.512L73.72 121.232ZM65.768 124.432L66.232 125.424C67.4 124.96 68.856 124.352 70.264 123.776L70.072 122.88C68.472 123.472 66.872 124.08 65.768 124.432ZM66.824 121.216C67.592 121.648 68.488 122.32 68.92 122.8L69.576 122.016C69.144 121.536 68.216 120.912 67.464 120.512L66.824 121.216Z" fill="white"/>
<path d="M235.936 93.728C237.408 95.712 240.192 97.904 242.672 99.184C242.88 98.832 243.168 98.416 243.456 98.128C240.944 97.008 238.176 94.864 236.48 92.544H235.248C234.016 94.56 231.36 96.928 228.592 98.32C228.848 98.576 229.184 98.992 229.328 99.28C232.032 97.84 234.608 95.632 235.936 93.728ZM231.968 97.44V98.528H240V97.44H231.968ZM229.904 100.656V101.728H242.08V100.656H229.904ZM229.168 105.712V106.768H242.848V105.712H229.168ZM235.296 97.856V106.272H236.56V97.856H235.296ZM231.232 102.544C231.872 103.44 232.496 104.688 232.704 105.488L233.744 105.04C233.52 104.24 232.864 103.024 232.208 102.144L231.232 102.544ZM239.6 102.112C239.2 103.024 238.448 104.304 237.872 105.088L238.784 105.488C239.376 104.736 240.128 103.584 240.736 102.576L239.6 102.112ZM255.28 92.688V96.544H256.352V92.688H255.28ZM248.208 103.392V106.832H249.12V103.392H248.208ZM252.56 105.856L252.864 107.008C254.432 106.736 256.528 106.368 258.528 105.984L258.448 104.944C256.272 105.296 254.048 105.664 252.56 105.856ZM257.072 102.928C257.728 104.32 258.304 106.176 258.432 107.312L259.44 107.024C259.296 105.872 258.688 104.064 258 102.672L257.072 102.928ZM253.984 96.784H257.776V100.752H253.984V96.784ZM252.992 95.744V101.808H258.8V95.744H252.992ZM246.832 96.064H250.544V97.6H246.832V96.064ZM245.792 95.216V98.464H251.664V95.216H245.792ZM244.944 93.28V94.304H252.496V93.28H244.944ZM246.8 103.152V104.016H250.608V103.152H246.8ZM245.136 99.376V107.248H246.08V100.304H251.728V99.376H245.136ZM251.28 99.376V106.112C251.28 106.272 251.232 106.336 251.056 106.336C250.896 106.352 250.352 106.352 249.744 106.336C249.872 106.592 250 106.992 250.032 107.264C250.896 107.264 251.456 107.248 251.808 107.088C252.176 106.912 252.272 106.64 252.272 106.128V99.376H251.28ZM249.152 99.808V101.52C249.152 102.352 249.36 102.512 250.128 102.512C250.272 102.512 250.992 102.512 251.136 102.512C251.632 102.512 251.888 102.368 251.968 101.968C251.728 101.904 251.424 101.808 251.264 101.68C251.232 101.76 251.184 101.776 250.992 101.776C250.848 101.776 250.32 101.776 250.208 101.776C249.984 101.776 249.936 101.76 249.936 101.52V99.808H249.152ZM255.36 96.144V101.264H255.296V105.872H256.368V101.264H256.288V96.144H255.36ZM247.392 99.808V100.352C247.392 101.008 247.264 101.952 246.112 102.528C246.304 102.656 246.608 102.896 246.752 103.088C248 102.336 248.16 101.264 248.16 100.384V99.808H247.392ZM212.736 128.72V129.712H227.264V128.72H212.736ZM213.2 119.808V120.768H226.608V119.808H213.2ZM222.272 127.68V131.968C222.272 132.176 222.192 132.24 221.936 132.256C221.664 132.272 220.768 132.272 219.808 132.24C219.968 132.544 220.128 132.976 220.176 133.28C221.472 133.28 222.288 133.28 222.8 133.12C223.296 132.944 223.424 132.624 223.424 132V127.68H222.272ZM219.376 118.592V127.168H220.56V118.592H219.376ZM215.296 130.384C216.256 130.976 217.376 131.856 217.92 132.496L218.8 131.696C218.24 131.072 217.056 130.224 216.112 129.68L215.296 130.384ZM215.568 124.24H224.464V125.232H215.568V124.24ZM215.568 122.48H224.464V123.456H215.568V122.48ZM214.432 121.68V126.048H225.632V121.68H214.432ZM222.368 126.384C223.632 126.816 225.152 127.648 225.936 128.288L226.656 127.6C225.856 127.008 224.336 126.208 223.056 125.776L222.368 126.384ZM213.376 126.976L213.424 127.92C216.448 127.872 220.992 127.776 225.264 127.664L225.328 126.848C220.944 126.928 216.288 126.976 213.376 126.976ZM229.008 128.448V129.456H243.024V128.448H229.008ZM229.072 121.424V122.448H242.96V121.424H229.072ZM229.712 124.16V125.152H242.384V124.16H229.712ZM230.528 126.32V127.248H241.6V126.32H230.528ZM235.376 124.624V133.296H236.56V124.624H235.376ZM233.904 118.56V121.904H235.04V118.56H233.904ZM236.928 118.56V121.856H238.08V118.56H236.928ZM234.992 128.848C233.632 130.24 230.96 131.472 228.592 132C228.848 132.256 229.2 132.72 229.376 133.024C231.76 132.352 234.464 130.96 235.952 129.296L234.992 128.848ZM236.944 128.816L236 129.216C237.504 130.944 240.176 132.4 242.608 133.072C242.784 132.736 243.152 132.256 243.424 132C240.992 131.488 238.304 130.256 236.944 128.816ZM240.64 118.752C240.368 119.488 239.84 120.544 239.408 121.216L240.384 121.536C240.832 120.912 241.408 119.968 241.872 119.088L240.64 118.752ZM238.496 122.144C238.304 122.72 237.888 123.552 237.568 124.112L238.576 124.416C238.928 123.904 239.344 123.168 239.744 122.448L238.496 122.144ZM230.368 119.088C230.88 119.84 231.456 120.864 231.68 121.504L232.752 121.104C232.528 120.448 231.936 119.44 231.392 118.72L230.368 119.088ZM232.448 122.56C232.8 123.088 233.152 123.84 233.28 124.32L234.464 124.064C234.32 123.584 233.952 122.864 233.584 122.336L232.448 122.56ZM254.56 119.76V131.616H255.632V119.76H254.56ZM257.6 118.992V133.264H258.752V118.992H257.6ZM251.616 119.12V124.912C251.616 127.664 251.44 130.432 250.016 132.592C250.304 132.752 250.736 133.088 250.944 133.328C252.528 130.976 252.704 127.936 252.704 124.912V119.12H251.616ZM245.36 123.408V124.368H250.128V123.408H245.36ZM245.44 119.136V120.096H250.096V119.136H245.44ZM245.36 125.552V126.512H250.128V125.552H245.36ZM244.608 121.232V122.224H250.688V121.232H244.608ZM245.936 127.712V128.704H249.072V131.376H245.936V132.384H250.128V127.712H245.936ZM245.344 127.712V133.12H246.384V127.712H245.344ZM270.176 127.68V133.28H271.312V127.68H270.176ZM266.336 120.176V121.232H275.12V120.176H266.336ZM267.92 125.776H273.648V127.184H267.92V125.776ZM267.92 123.488H273.648V124.896H267.92V123.488ZM266.832 122.576V128.096H274.768V122.576H266.832ZM271.488 127.52L270.608 127.872C271.584 129.664 273.328 131.6 274.864 132.608C275.056 132.304 275.408 131.904 275.696 131.696C274.16 130.848 272.4 129.104 271.488 127.52ZM269.952 127.568C269.024 129.28 267.216 130.992 265.504 131.808C265.76 132.032 266.128 132.448 266.32 132.736C268.064 131.76 269.888 129.872 270.896 127.904L269.952 127.568ZM270.176 118.576V123.104H270.224V127.792H271.264V123.104H271.312V118.576H270.176ZM263.136 118.576C262.72 119.632 261.968 121.2 261.392 122.128L262.208 122.48C262.832 121.6 263.584 120.16 264.192 118.976L263.136 118.576ZM264.928 120.4C264.048 122.08 262.544 124.464 261.344 125.888L262.08 126.304C263.28 124.912 264.832 122.64 265.936 120.864L264.928 120.4ZM260.576 121.904C261.424 122.72 262.384 123.856 262.784 124.624L263.472 123.728C263.056 122.992 262.08 121.92 261.216 121.136L260.576 121.904ZM264.304 124.064C264.944 125.12 265.568 126.544 265.776 127.44L266.72 127.008C266.496 126.128 265.84 124.752 265.168 123.696L264.304 124.064ZM260.448 125.648L260.576 126.72C262.032 126.624 263.952 126.512 265.856 126.384V125.376C263.84 125.488 261.84 125.584 260.448 125.648ZM264.752 127.92C265.12 128.8 265.456 130 265.536 130.768L266.464 130.464C266.368 129.712 266.032 128.544 265.632 127.648L264.752 127.92ZM261.408 127.712C261.232 129.104 260.928 130.544 260.416 131.52C260.656 131.632 261.136 131.84 261.328 131.968C261.84 130.944 262.208 129.408 262.416 127.888L261.408 127.712ZM263.104 126.112V133.28H264.16V126.112H263.104Z" fill="white"/>
<path d="M121.287 224.712V225.912H135.815V224.712H121.287ZM127.943 222.136V230.728C127.943 231.016 127.831 231.096 127.495 231.112C127.143 231.128 125.959 231.128 124.663 231.08C124.871 231.432 125.095 231.976 125.191 232.328C126.727 232.328 127.767 232.296 128.359 232.104C128.967 231.912 129.191 231.544 129.191 230.744V222.136H127.943ZM122.935 218.68V219.864H133.383V218.68H122.935ZM132.967 218.68V218.952C131.959 220.088 129.831 221.608 128.087 222.44C128.327 222.648 128.695 223.032 128.871 223.304C130.743 222.344 133.015 220.76 134.471 219.288L133.559 218.616L133.287 218.68H132.967ZM143.207 223.368C142.455 225.624 141.063 228.744 139.927 230.712L141.031 231.064C142.215 229.128 143.607 226.136 144.615 223.72L143.207 223.368ZM137.959 230.344L138.119 231.608C141.127 231.48 145.607 231.24 149.799 231L149.831 229.848C145.543 230.056 140.887 230.248 137.959 230.344ZM146.279 226.872C147.703 228.568 149.367 230.904 150.119 232.36L151.335 231.704C150.535 230.248 148.887 228.024 147.431 226.344L146.279 226.872ZM141.591 218.04C140.663 220.408 139.079 222.712 137.319 224.152C137.655 224.344 138.215 224.776 138.471 225.016C140.167 223.432 141.847 220.984 142.919 218.408L141.591 218.04ZM147.319 218.024L146.135 218.52C147.367 220.76 149.367 223.48 150.855 225C151.095 224.696 151.543 224.232 151.863 223.976C150.391 222.648 148.375 220.12 147.319 218.024ZM153.943 218.6V219.752H166.007V218.6H153.943ZM154.039 221.432V222.504H163.687V221.432H154.039ZM165.527 218.6V230.488C165.527 230.792 165.431 230.872 165.127 230.888C164.791 230.904 163.703 230.904 162.583 230.872C162.775 231.224 162.951 231.816 163.015 232.184C164.439 232.184 165.447 232.168 166.007 231.96C166.567 231.736 166.727 231.32 166.727 230.488V218.6H165.527ZM155.063 224.232V230.536H156.231V224.232H155.063ZM156.023 224.232V225.304H161.399V228.296H156.023V229.352H162.583V224.232H156.023ZM115.911 246.248V247.016H125.095V246.248H115.911ZM115.719 253.096V253.848H125.335V253.096H115.719ZM117.431 254.328C117.959 254.776 118.551 255.416 118.823 255.848L119.639 255.384C119.367 254.952 118.743 254.328 118.199 253.928L117.431 254.328ZM117.495 249.576H123.543V250.28H117.495V249.576ZM117.495 248.296H123.543V248.968H117.495V248.296ZM116.535 247.672V250.92H124.535V247.672H116.535ZM122.007 252.504V255.304C122.007 255.464 121.959 255.512 121.783 255.512C121.607 255.528 120.999 255.528 120.343 255.512C120.455 255.72 120.583 255.976 120.631 256.216C121.591 256.216 122.199 256.216 122.551 256.088C122.935 255.976 123.031 255.816 123.031 255.336V252.504H122.007ZM115.943 251.736L116.007 252.504C118.071 252.472 121.031 252.376 123.911 252.28L123.943 251.64C120.967 251.704 117.927 251.736 115.943 251.736ZM122.567 251.336C123.175 251.8 123.943 252.52 124.311 253L124.999 252.472C124.631 252.024 123.879 251.352 123.223 250.888L122.567 251.336ZM119.943 245.512V252.04L120.967 251.976V245.512H119.943ZM114.071 244.296V258.296H115.175V245.256H125.863V258.216H127.015V244.296H114.071ZM114.615 256.488V257.448H126.359V256.488H114.615ZM143.015 248.504C142.327 249.304 141.127 250.424 140.295 251.08L140.951 251.752C141.815 251.112 142.951 250.136 143.815 249.272L143.015 248.504ZM135.511 243.992C135.975 244.744 136.423 245.768 136.583 246.44L137.639 246.04C137.447 245.368 136.983 244.392 136.487 243.64L135.511 243.992ZM134.295 246.264V247.336H143.735V246.264H134.295ZM136.407 249.144C139.287 251.512 139.415 255.88 138.487 256.824C138.247 257.144 137.959 257.192 137.607 257.192C137.303 257.192 136.871 257.16 136.407 257.112C136.615 257.432 136.695 257.928 136.711 258.216C137.127 258.248 137.527 258.264 137.831 258.264C138.487 258.264 138.919 258.12 139.367 257.656C140.711 256.424 140.583 251.272 137.335 248.648L136.407 249.144ZM138.487 246.664C137.399 247.976 135.543 249.208 133.831 249.96C134.055 250.168 134.423 250.6 134.567 250.824C136.295 249.928 138.263 248.552 139.495 247.048L138.487 246.664ZM139.943 246.872L138.983 247.048C139.639 251.176 140.903 254.68 143.223 256.504C143.415 256.2 143.799 255.784 144.055 255.576C141.831 254.008 140.551 250.648 139.943 246.872ZM137.815 250.136C136.999 251.048 135.351 252.168 134.151 252.728C134.407 252.936 134.695 253.32 134.839 253.592C136.071 252.856 137.719 251.64 138.615 250.648L137.815 250.136ZM138.775 252.2C137.623 253.752 135.223 255.448 133.223 256.216C133.495 256.44 133.799 256.824 133.959 257.096C135.959 256.184 138.343 254.376 139.591 252.728L138.775 252.2ZM141.255 243.576C140.983 244.312 140.455 245.368 140.039 246.056L140.999 246.376C141.431 245.752 141.959 244.792 142.407 243.944L141.255 243.576ZM129.815 244.264V258.296H130.903V245.352H133.591V244.264H129.815ZM133.223 244.264V244.584C132.887 245.688 132.295 247.592 131.719 249.048C132.871 250.296 133.159 251.384 133.159 252.248C133.159 252.728 133.079 253.16 132.823 253.336C132.695 253.432 132.519 253.48 132.327 253.48C132.071 253.512 131.767 253.496 131.399 253.464C131.575 253.768 131.671 254.232 131.687 254.52C132.055 254.536 132.455 254.536 132.775 254.504C133.095 254.456 133.383 254.36 133.607 254.216C134.055 253.896 134.231 253.224 134.231 252.36C134.231 251.368 133.975 250.248 132.791 248.92C133.335 247.64 133.927 245.992 134.391 244.68L133.623 244.216L133.431 244.264H133.223ZM148.647 247.864H156.407V249.512H148.647V247.864ZM148.647 250.52H156.407V252.184H148.647V250.52ZM148.647 245.208H156.407V246.84H148.647V245.208ZM147.479 244.136V253.272H157.623V244.136H147.479ZM153.559 252.488V256.472C153.559 257.8 153.959 258.168 155.479 258.168C155.799 258.168 157.735 258.168 158.071 258.168C159.431 258.168 159.783 257.576 159.927 255.24C159.591 255.16 159.063 254.968 158.807 254.744C158.743 256.744 158.631 257.016 157.975 257.016C157.543 257.016 155.927 257.016 155.591 257.016C154.903 257.016 154.775 256.936 154.775 256.472V252.488H153.559ZM149.703 252.824C149.431 255.16 148.679 256.536 145.159 257.24C145.399 257.496 145.735 257.992 145.847 258.296C149.703 257.416 150.663 255.672 150.999 252.824H149.703ZM163.495 251.672V258.328H164.679V252.632H172.487V258.328H173.719V251.672H163.495ZM164.119 254.168V255.128H172.871V254.168H164.119ZM164.167 256.744V257.704H172.871V256.744H164.167ZM167.879 250.168C167.719 250.696 167.367 251.512 167.063 252.056L168.039 252.312C168.375 251.832 168.791 251.112 169.143 250.408L167.879 250.168ZM161.687 244.392V245.352H167.015V244.392H161.687ZM166.695 244.392V249.688C166.695 249.848 166.647 249.912 166.439 249.912C166.247 249.928 165.607 249.928 164.871 249.912C165.015 250.168 165.159 250.536 165.207 250.808C166.231 250.808 166.871 250.808 167.287 250.648C167.671 250.488 167.799 250.216 167.799 249.688V244.392H166.695ZM168.807 244.392V245.352H174.391V244.392H168.807ZM173.847 244.392V249.688C173.847 249.88 173.783 249.912 173.575 249.928C173.367 249.944 172.663 249.944 171.911 249.912C172.055 250.184 172.199 250.584 172.247 250.856C173.319 250.872 174.007 250.856 174.423 250.696C174.855 250.52 174.967 250.248 174.967 249.688V244.392H173.847ZM168.439 249.112L168.887 250.04C170.119 249.608 171.687 249 173.159 248.44L172.983 247.56C171.303 248.152 169.607 248.744 168.439 249.112ZM169.255 246.232C170.023 246.632 170.951 247.272 171.383 247.768L172.039 246.968C171.591 246.488 170.647 245.88 169.879 245.512L169.255 246.232ZM161.303 249.432L161.767 250.424C162.935 249.96 164.391 249.352 165.799 248.776L165.607 247.88C164.007 248.472 162.407 249.08 161.303 249.432ZM162.359 246.216C163.127 246.648 164.023 247.32 164.455 247.8L165.111 247.016C164.679 246.536 163.751 245.912 162.999 245.512L162.359 246.216Z" fill="white"/>
<defs>
<linearGradient id="paint0_linear_158_6651" x1="145.001" y1="289.637" x2="145.001" y2="163.012" gradientUnits="userSpaceOnUse">
<stop stop-color="#003A6F"/>
<stop offset="1" stop-color="#005CAF"/>
</linearGradient>
<linearGradient id="paint1_linear_158_6651" x1="145.001" y1="154.529" x2="274.126" y2="79.4105" gradientUnits="userSpaceOnUse">
<stop stop-color="#2078FB"/>
<stop offset="1" stop-color="#1B67C9"/>
</linearGradient>
<linearGradient id="paint2_linear_158_6651" x1="12.4046" y1="77.8627" x2="138.087" y2="145.103" gradientUnits="userSpaceOnUse">
<stop stop-color="#3A9BD8"/>
<stop offset="1" stop-color="#57B7FF"/>
</linearGradient>
</defs>
</svg>
