<svg width="290" height="290" viewBox="0 0 290 290" fill="none" xmlns="http://www.w3.org/2000/svg">
<path d="M19.9746 217.688C32.6916 239.614 50.9509 257.809 72.9207 270.45C94.8904 283.091 119.798 289.731 145.145 289.706C170.491 289.681 195.386 282.991 217.33 270.306C239.275 257.622 257.498 239.39 270.171 217.439L145.001 145.172L19.9746 217.688Z" fill="url(#paint0_linear_158_6670)"/>
<path d="M270.086 217.586C282.798 195.629 289.505 170.713 289.535 145.342C289.565 119.971 282.916 95.0388 270.256 73.0519C257.596 51.065 239.372 32.7979 217.415 20.0865C195.458 7.37521 170.542 0.667531 145.171 0.637713L145.001 145.172L270.086 217.586Z" fill="url(#paint1_linear_158_6670)"/>
<path d="M19.9138 217.586C7.20242 195.629 0.494748 170.713 0.464931 145.342C0.435114 119.971 7.08421 95.0388 19.7439 73.0519C32.4036 51.065 50.6279 32.7979 72.5849 20.0865C94.542 7.37521 119.458 0.667531 144.829 0.637713L144.999 145.172L19.9138 217.586Z" fill="url(#paint2_linear_158_6670)"/>
<line x1="145.636" y1="0.636853" x2="145.634" y2="144.593" stroke="white" stroke-width="1.25682"/>
<line x1="145.324" y1="144.558" x2="20.4461" y2="217.115" stroke="white" stroke-width="1.25682"/>
<line y1="-0.62841" x2="144.426" y2="-0.62841" transform="matrix(0.864648 0.502377 0.502377 -0.864648 145.588 144.015)" stroke="white" stroke-width="1.25682"/>
<circle cx="145.414" cy="145.002" r="58.8012" fill="white"/>
<path d="M131.705 123.854V124.846H134.745V123.854H131.705ZM132.025 132.222V133.182H138.457V132.222H132.025ZM131.993 134.798V135.806H138.649V134.798H131.993ZM131.145 121.918V127.822H132.233V121.918H131.145ZM130.105 127.662L130.441 128.67C131.737 128.366 133.385 127.934 134.969 127.534L134.873 126.59C133.129 127.006 131.337 127.422 130.105 127.662ZM135.417 121.918V126.926C135.417 128.11 135.705 128.43 136.905 128.43C137.161 128.43 138.473 128.43 138.729 128.43C139.689 128.43 139.993 127.982 140.121 126.318C139.801 126.238 139.353 126.062 139.113 125.87C139.081 127.198 139.001 127.39 138.601 127.39C138.345 127.39 137.257 127.39 137.049 127.39C136.601 127.39 136.521 127.326 136.521 126.926V121.918H135.417ZM138.937 122.91C138.233 123.47 136.969 124.11 135.849 124.574C135.977 124.798 136.153 125.134 136.201 125.358C137.401 124.926 138.777 124.35 139.769 123.71L138.937 122.91ZM134.345 128.062C134.217 128.654 133.913 129.55 133.673 130.11L134.713 130.35C134.969 129.838 135.257 129.07 135.545 128.318L134.345 128.062ZM131.433 129.694V136.398H132.553V130.718H138.057V136.35H139.209V129.694H131.433ZM125.993 122.398V136.43H127.081V123.486H129.593V122.398H125.993ZM129.225 122.398V122.734C128.921 123.822 128.361 125.726 127.833 127.198C128.905 128.446 129.161 129.534 129.177 130.382C129.177 130.878 129.081 131.326 128.857 131.502C128.745 131.582 128.569 131.63 128.377 131.63C128.153 131.646 127.865 131.63 127.545 131.614C127.705 131.918 127.817 132.382 127.833 132.67C128.169 132.686 128.537 132.67 128.825 132.638C129.145 132.59 129.417 132.51 129.625 132.366C130.057 132.046 130.249 131.358 130.233 130.51C130.233 129.534 129.993 128.398 128.905 127.054C129.401 125.758 129.961 124.126 130.393 122.814L129.593 122.35L129.433 122.398H129.225ZM148.169 128.814V129.918H154.361V128.814H148.169ZM143.097 125.87V127.006H147.369V125.87H143.097ZM143.097 128.942V130.078H147.513V128.942H143.097ZM149.641 122.382V123.454H153.401V122.382H149.641ZM154.121 128.814V129.022C153.113 132.478 150.233 134.574 146.937 135.406C147.177 135.678 147.465 136.158 147.593 136.462C151.145 135.422 154.137 133.182 155.337 129.07L154.553 128.766L154.345 128.814H154.121ZM149.881 129.854L148.841 130.142C149.993 133.262 152.201 135.438 155.369 136.414C155.545 136.094 155.881 135.614 156.169 135.374C153.113 134.558 150.921 132.59 149.881 129.854ZM142.537 122.926V136.414H143.673V123.294L142.537 122.926ZM141.209 132.91L141.417 134.094C143.177 133.774 145.641 133.326 147.977 132.894L147.929 131.79C145.465 132.222 142.889 132.654 141.209 132.91ZM149.097 122.382V124.654C149.097 125.726 148.905 126.894 147.449 127.774C147.689 127.934 148.121 128.366 148.281 128.59C149.897 127.582 150.217 125.998 150.217 124.686V122.382H149.097ZM146.985 121.726C146.025 122.27 144.297 122.862 142.777 123.246C142.937 123.486 143.113 123.886 143.177 124.142C144.809 123.774 146.697 123.23 148.009 122.574L146.985 121.726ZM152.729 122.382V126.27C152.729 127.166 152.825 127.438 153.049 127.63C153.273 127.838 153.641 127.918 153.961 127.918C154.137 127.918 154.553 127.918 154.777 127.918C155.033 127.918 155.353 127.87 155.529 127.758C155.753 127.662 155.913 127.486 156.009 127.23C156.089 126.958 156.137 126.254 156.169 125.614C155.865 125.518 155.465 125.342 155.257 125.134C155.241 125.79 155.225 126.302 155.177 126.526C155.145 126.718 155.081 126.846 155.017 126.878C154.953 126.926 154.809 126.942 154.665 126.942C154.537 126.942 154.313 126.942 154.217 126.942C154.089 126.942 154.009 126.926 153.961 126.878C153.881 126.814 153.865 126.638 153.865 126.334V122.382H152.729ZM157.8 135.15V133.877L161.737 129.797C162.158 129.354 162.505 128.966 162.777 128.633C163.054 128.296 163.26 127.975 163.397 127.672C163.533 127.369 163.601 127.047 163.601 126.707C163.601 126.32 163.51 125.987 163.328 125.707C163.147 125.422 162.898 125.205 162.584 125.053C162.27 124.898 161.915 124.82 161.522 124.82C161.105 124.82 160.741 124.905 160.431 125.076C160.12 125.246 159.881 125.487 159.715 125.797C159.548 126.108 159.465 126.472 159.465 126.888H157.789C157.789 126.18 157.951 125.561 158.277 125.03C158.603 124.5 159.05 124.089 159.618 123.797C160.186 123.502 160.832 123.354 161.556 123.354C162.287 123.354 162.931 123.5 163.487 123.792C164.048 124.08 164.486 124.474 164.8 124.974C165.114 125.47 165.272 126.03 165.272 126.655C165.272 127.087 165.19 127.51 165.027 127.922C164.868 128.335 164.59 128.796 164.192 129.303C163.794 129.807 163.241 130.419 162.533 131.138L160.22 133.559V133.644H165.459V135.15H157.8Z" fill="#005CAF"/>
<path d="M127.086 167.543V165.259L133.146 159.318C133.725 158.733 134.208 158.213 134.595 157.759C134.981 157.304 135.271 156.864 135.464 156.438C135.657 156.011 135.754 155.557 135.754 155.074C135.754 154.523 135.629 154.051 135.379 153.659C135.129 153.261 134.785 152.955 134.348 152.739C133.91 152.523 133.413 152.415 132.856 152.415C132.282 152.415 131.779 152.534 131.348 152.773C130.916 153.006 130.581 153.338 130.342 153.77C130.109 154.202 129.993 154.716 129.993 155.313H126.984C126.984 154.205 127.237 153.242 127.743 152.423C128.248 151.605 128.944 150.972 129.831 150.523C130.723 150.074 131.745 149.85 132.899 149.85C134.069 149.85 135.098 150.068 135.984 150.506C136.87 150.943 137.558 151.543 138.047 152.304C138.541 153.065 138.788 153.935 138.788 154.912C138.788 155.565 138.663 156.207 138.413 156.838C138.163 157.469 137.723 158.168 137.092 158.935C136.467 159.702 135.589 160.631 134.458 161.722L131.45 164.781V164.901H139.052V167.543H127.086ZM146.393 147.071C145.361 150.191 143.489 153.263 141.329 155.135C142.025 155.543 143.249 156.503 143.801 157.007C145.937 154.847 148.049 151.391 149.321 147.815L146.393 147.071ZM146.897 149.807L145.505 152.591H162.161V149.807H146.897ZM145.193 155.471V163.199H148.097V158.159H161.609V155.471H145.193ZM141.401 161.783V164.567H163.481V161.783H141.401ZM152.249 151.247V169.703H155.225V151.247H152.249Z" fill="#F06214"/>
<path d="M39.688 90.9068V92.0108H48.344V90.9068H39.688ZM41.864 94.3468V95.3548H46.024V94.3468H41.864ZM40.056 96.6988V97.7068H47.928V96.6988H40.056ZM41.608 98.9228V99.9308H46.472V98.9228H41.608ZM45.288 91.1948L44.28 91.5148C45 93.3548 46.312 95.1468 47.752 96.0748C47.944 95.7868 48.312 95.3708 48.568 95.1468C47.208 94.3788 45.928 92.7948 45.288 91.1948ZM46.056 98.9228V99.0828C45.8 101.435 45.528 102.411 45.176 102.715C45.032 102.843 44.856 102.859 44.584 102.859C44.264 102.859 43.464 102.843 42.648 102.779C42.84 103.067 42.984 103.515 43 103.835C43.816 103.883 44.584 103.883 45 103.867C45.496 103.835 45.8 103.739 46.104 103.467C46.584 103.019 46.888 101.947 47.176 99.4348C47.208 99.2588 47.24 98.9228 47.24 98.9228H46.056ZM41.864 97.2108C41.592 98.2668 41.176 99.5948 40.824 100.491L41.928 100.699C42.28 99.7708 42.696 98.3628 43.032 97.2108H41.864ZM35.4 90.8748H38.184V93.7548H35.4V90.8748ZM34.36 89.8508V94.7788H39.256V89.8508H34.36ZM36.44 94.2348V101.627H37.48V94.2348H36.44ZM34.376 96.2508V102.107H35.352V96.2508H34.376ZM33.592 101.947L33.832 103.067C35.528 102.635 37.848 102.059 40.024 101.483L39.896 100.443C37.576 101.019 35.16 101.611 33.592 101.947ZM36.888 96.9708V98.0268H39.624V96.9708H36.888ZM43.112 89.1308C42.76 91.3228 41.592 93.8188 39.048 95.3708C39.304 95.5468 39.672 95.9628 39.832 96.2508C42.552 94.4908 43.832 91.8028 44.296 89.2588L43.112 89.1308ZM49.672 93.0668V94.2028H53.96V93.0668H49.672ZM51.368 89.3388V100.059H52.488V89.3388H51.368ZM49.56 100.523L50.024 101.723C51.288 101.099 52.84 100.299 54.312 99.5468L53.992 98.4748C52.36 99.2748 50.68 100.059 49.56 100.523ZM54.216 91.5308V92.6188H64.168V91.5308H54.216ZM53.688 100.955L54.008 102.091C55.544 101.659 57.56 101.083 59.496 100.523L59.368 99.4988C57.288 100.059 55.112 100.635 53.688 100.955ZM59.576 89.1628C59.64 96.9868 60.312 103.867 62.84 103.867C63.848 103.867 64.184 103.179 64.36 101.051C64.104 100.923 63.736 100.683 63.496 100.411C63.448 102.075 63.288 102.715 62.984 102.715C61.608 102.715 60.68 96.7308 60.744 89.1628H59.576ZM61.368 89.7868C62.072 90.2988 62.888 91.0348 63.304 91.5308L64.024 90.8428C63.624 90.3628 62.76 89.6588 62.072 89.1948L61.368 89.7868ZM62.776 94.1388C61.8 98.0428 59.944 101.115 57.064 102.939C57.32 103.131 57.768 103.531 57.944 103.739C60.824 101.707 62.76 98.5228 63.88 94.3468L62.776 94.1388ZM55.64 95.1148H57.72V97.8028H55.64V95.1148ZM54.696 94.1388V98.7948H58.696V94.1388H54.696ZM17.736 125.307V126.299H32.264V125.307H17.736ZM18.2 116.395V117.355H31.608V116.395H18.2ZM27.272 124.267V128.555C27.272 128.763 27.192 128.827 26.936 128.843C26.664 128.859 25.768 128.859 24.808 128.827C24.968 129.131 25.128 129.563 25.176 129.867C26.472 129.867 27.288 129.867 27.8 129.707C28.296 129.531 28.424 129.211 28.424 128.587V124.267H27.272ZM24.376 115.179V123.755H25.56V115.179H24.376ZM20.296 126.971C21.256 127.563 22.376 128.443 22.92 129.083L23.8 128.283C23.24 127.659 22.056 126.811 21.112 126.267L20.296 126.971ZM20.568 120.827H29.464V121.819H20.568V120.827ZM20.568 119.067H29.464V120.043H20.568V119.067ZM19.432 118.267V122.635H30.632V118.267H19.432ZM27.368 122.971C28.632 123.403 30.152 124.235 30.936 124.875L31.656 124.187C30.856 123.595 29.336 122.795 28.056 122.363L27.368 122.971ZM18.376 123.563L18.424 124.507C21.448 124.459 25.992 124.363 30.264 124.251L30.328 123.435C25.944 123.515 21.288 123.563 18.376 123.563ZM40.376 115.163V117.003H41.576V115.163H40.376ZM40.344 123.579V129.867H41.56V123.579H40.344ZM34.28 116.347V118.667H35.4V117.371H46.632V118.667H47.784V116.347H34.28ZM34.088 119.051V120.043H47.96V119.051H34.088ZM33.832 124.907V125.947H48.184V124.907H33.832ZM39.544 117.563C38.584 118.923 37.192 120.715 36.184 121.835L37.304 122.203C38.264 121.067 39.64 119.323 40.68 117.899L39.544 117.563ZM37.112 121.723C40.248 122.331 44.36 123.467 46.456 124.315L47.176 123.435C44.92 122.571 40.84 121.531 37.8 120.971L37.112 121.723ZM39.912 125.451C38.6 126.875 35.944 128.155 33.528 128.683C33.784 128.907 34.12 129.371 34.296 129.659C36.728 129.003 39.368 127.547 40.808 125.851L39.912 125.451ZM42.04 125.419L41.16 125.835C42.632 127.563 45.336 129.019 47.768 129.675C47.944 129.371 48.28 128.923 48.552 128.667C46.104 128.139 43.4 126.875 42.04 125.419ZM43.768 119.611C42.856 121.771 40.776 122.859 34.52 123.243C34.68 123.483 34.872 123.931 34.904 124.203C41.464 123.739 43.944 122.443 45.048 119.611H43.768ZM62.808 115.547C60.84 116.267 57.368 116.907 54.392 117.291C54.52 117.579 54.696 118.027 54.744 118.315C57.784 117.947 61.368 117.355 63.704 116.555L62.808 115.547ZM53.848 122.011V123.163H64.36V122.011H53.848ZM54.472 128.107V129.259H64.104V128.107H54.472ZM58.616 117.323V128.427H59.816V117.323H58.616ZM51.96 119.403V129.867H53.16V118.251L53.144 118.219L51.96 119.403ZM53.704 115.163C52.712 117.675 51.064 120.123 49.336 121.691C49.576 121.995 49.944 122.619 50.072 122.907C51.944 121.083 53.736 118.315 54.872 115.531L53.704 115.163ZM65.912 115.947V116.987H71.368V115.947H65.912ZM72.088 124.123V125.163H79.032V124.123H72.088ZM65.736 120.779V121.851H71.752V120.779H65.736ZM68.536 121.211V128.475C68.536 128.651 68.472 128.699 68.296 128.715C68.104 128.715 67.464 128.715 66.776 128.699C66.936 129.019 67.096 129.515 67.128 129.819C68.12 129.819 68.744 129.803 69.144 129.627C69.576 129.419 69.688 129.099 69.688 128.475V121.211H68.536ZM78.616 124.123V124.315C78.376 127.115 78.088 128.235 77.752 128.555C77.608 128.699 77.464 128.715 77.208 128.715C76.952 128.715 76.312 128.699 75.624 128.635C75.8 128.955 75.912 129.435 75.944 129.755C76.664 129.803 77.368 129.803 77.736 129.771C78.168 129.739 78.456 129.643 78.744 129.355C79.208 128.875 79.496 127.659 79.8 124.651C79.832 124.475 79.848 124.123 79.848 124.123H78.616ZM75.08 122.539C74.808 125.307 74.184 127.723 70.856 128.955C71.112 129.163 71.432 129.595 71.576 129.883C75.192 128.475 75.976 125.771 76.28 122.539H75.08ZM66.472 118.619C67.832 119.227 69.464 120.235 70.264 120.971L71.064 120.091C70.232 119.355 68.568 118.411 67.224 117.851L66.472 118.619ZM71.432 120.779V120.987C71.176 122.139 70.776 123.563 70.36 124.443L71.208 124.859C71.704 123.867 72.184 122.331 72.52 120.987L71.784 120.731L71.608 120.779H71.432ZM77.848 117.323C76.984 119.803 74.744 121.227 71.832 121.963C72.072 122.219 72.44 122.715 72.584 122.971C75.608 122.027 78.008 120.427 79.08 117.531L77.848 117.323ZM74.424 115.147C73.784 116.683 72.616 118.139 71.352 119.083C71.656 119.243 72.136 119.579 72.344 119.787C73.576 118.763 74.808 117.163 75.56 115.451L74.424 115.147ZM74.136 117.659L73.144 117.995C74.424 120.459 76.824 122.251 79.752 123.035C79.912 122.715 80.264 122.251 80.52 122.011C77.672 121.387 75.288 119.787 74.136 117.659ZM68.392 121.131C67.864 122.971 66.728 125.067 65.576 126.155C65.784 126.443 66.072 126.939 66.2 127.275C67.448 126.027 68.6 123.547 69.208 121.435L68.392 121.131ZM74.072 116.843L73.576 117.867H80.184V116.843H74.072ZM71.08 115.947V116.171C70.552 117.035 69.432 118.203 68.408 118.875C68.648 119.019 69.016 119.275 69.224 119.467C70.328 118.731 71.576 117.515 72.312 116.395L71.528 115.899L71.336 115.947H71.08Z" fill="white"/>
<path d="M237.6 90.1068V103.883H238.768V91.2428H242.4V90.1068H237.6ZM229.072 90.9228V91.9948H236.72V90.9228H229.072ZM228.656 95.3548V96.4588H236.928V95.3548H228.656ZM232.288 89.2108V91.5788H233.456V89.2108H232.288ZM230.064 92.5548C230.4 93.3708 230.672 94.4588 230.752 95.1628L231.824 94.9068C231.728 94.2028 231.424 93.1308 231.072 92.3308L230.064 92.5548ZM234.656 92.2188C234.464 93.0348 234.08 94.2188 233.76 94.9548L234.72 95.2108C235.072 94.5068 235.456 93.4348 235.808 92.4908L234.656 92.2188ZM230.16 101.883V102.955H235.424V101.883H230.16ZM229.728 97.8508V103.883H230.848V98.9228H234.88V103.803H236.032V97.8508H229.728ZM242.08 90.1068V90.4908C241.6 91.7548 240.736 93.9628 239.92 95.6108C241.536 97.0188 242 98.2188 242.016 99.2268C242.016 99.8188 241.904 100.283 241.552 100.491C241.36 100.603 241.136 100.667 240.864 100.683C240.544 100.699 240.08 100.683 239.616 100.651C239.824 100.987 239.936 101.499 239.952 101.835C240.416 101.851 240.944 101.867 241.344 101.819C241.76 101.755 242.112 101.643 242.4 101.467C242.96 101.083 243.184 100.331 243.184 99.3548C243.168 98.2028 242.784 96.9388 241.168 95.4508C241.904 93.9788 242.736 92.1228 243.392 90.6188L242.512 90.0588L242.32 90.1068H242.08ZM246.032 92.3308V93.2428H250.48V92.3308H246.032ZM253.392 92.3308V93.2428H257.92V92.3308H253.392ZM257.408 89.9148V102.235C257.408 102.539 257.312 102.619 256.992 102.635C256.672 102.651 255.568 102.667 254.464 102.603C254.64 102.955 254.848 103.515 254.912 103.851C256.368 103.851 257.312 103.835 257.872 103.627C258.416 103.435 258.608 103.051 258.608 102.235V89.9148H257.408ZM246.128 89.9148V90.9228H250.048V94.7788H246.128V95.7868H251.184V89.9148H246.128ZM258.032 89.9148H252.688V95.8028H258.032V94.7948H253.84V90.9228H258.032V89.9148ZM245.456 89.9148V103.867H246.64V89.9148H245.456ZM212.736 125.307V126.299H227.264V125.307H212.736ZM213.2 116.395V117.355H226.608V116.395H213.2ZM222.272 124.267V128.555C222.272 128.763 222.192 128.827 221.936 128.843C221.664 128.859 220.768 128.859 219.808 128.827C219.968 129.131 220.128 129.563 220.176 129.867C221.472 129.867 222.288 129.867 222.8 129.707C223.296 129.531 223.424 129.211 223.424 128.587V124.267H222.272ZM219.376 115.179V123.755H220.56V115.179H219.376ZM215.296 126.971C216.256 127.563 217.376 128.443 217.92 129.083L218.8 128.283C218.24 127.659 217.056 126.811 216.112 126.267L215.296 126.971ZM215.568 120.827H224.464V121.819H215.568V120.827ZM215.568 119.067H224.464V120.043H215.568V119.067ZM214.432 118.267V122.635H225.632V118.267H214.432ZM222.368 122.971C223.632 123.403 225.152 124.235 225.936 124.875L226.656 124.187C225.856 123.595 224.336 122.795 223.056 122.363L222.368 122.971ZM213.376 123.563L213.424 124.507C216.448 124.459 220.992 124.363 225.264 124.251L225.328 123.435C220.944 123.515 216.288 123.563 213.376 123.563ZM229.008 125.035V126.043H243.024V125.035H229.008ZM229.072 118.011V119.035H242.96V118.011H229.072ZM229.712 120.747V121.739H242.384V120.747H229.712ZM230.528 122.907V123.835H241.6V122.907H230.528ZM235.376 121.211V129.883H236.56V121.211H235.376ZM233.904 115.147V118.491H235.04V115.147H233.904ZM236.928 115.147V118.443H238.08V115.147H236.928ZM234.992 125.435C233.632 126.827 230.96 128.059 228.592 128.587C228.848 128.843 229.2 129.307 229.376 129.611C231.76 128.939 234.464 127.547 235.952 125.883L234.992 125.435ZM236.944 125.403L236 125.803C237.504 127.531 240.176 128.987 242.608 129.659C242.784 129.323 243.152 128.843 243.424 128.587C240.992 128.075 238.304 126.843 236.944 125.403ZM240.64 115.339C240.368 116.075 239.84 117.131 239.408 117.803L240.384 118.123C240.832 117.499 241.408 116.555 241.872 115.675L240.64 115.339ZM238.496 118.731C238.304 119.307 237.888 120.139 237.568 120.699L238.576 121.003C238.928 120.491 239.344 119.755 239.744 119.035L238.496 118.731ZM230.368 115.675C230.88 116.427 231.456 117.451 231.68 118.091L232.752 117.691C232.528 117.035 231.936 116.027 231.392 115.307L230.368 115.675ZM232.448 119.147C232.8 119.675 233.152 120.427 233.28 120.907L234.464 120.651C234.32 120.171 233.952 119.451 233.584 118.923L232.448 119.147ZM248 115.163V122.059H249.136V115.163H248ZM244.88 116.571V117.595H252.16V116.571H244.88ZM249.104 117.931L248.48 118.491C249.152 118.891 250.72 119.995 251.312 120.475L251.92 119.643C251.456 119.323 249.632 118.219 249.104 117.931ZM253.168 115.147V120.267C253.168 121.579 253.568 121.931 255.024 121.931C255.328 121.931 257.264 121.931 257.568 121.931C258.848 121.931 259.184 121.387 259.328 119.259C258.992 119.179 258.512 119.003 258.256 118.795C258.192 120.555 258.096 120.827 257.472 120.827C257.056 120.827 255.456 120.827 255.136 120.827C254.464 120.827 254.352 120.747 254.352 120.251V115.147H253.168ZM251.36 125.611V129.867H252.56V125.611H251.36ZM250.688 120.859C250.064 121.579 248.976 122.571 248.128 123.195L248.944 123.643C249.808 123.067 250.88 122.187 251.744 121.355L250.688 120.859ZM253.568 121.947C252.272 123.115 250.112 124.667 248.416 125.595L249.232 126.091C250.912 125.227 253.072 123.771 254.656 122.507L253.568 121.947ZM246.576 123.163C247.76 123.739 249.248 124.635 249.968 125.259L250.816 124.507C250.048 123.883 248.544 123.035 247.36 122.491L246.576 123.163ZM254.192 124.203C255.616 124.939 257.344 126.075 258.176 126.891L259.008 126.171C258.128 125.323 256.384 124.251 254.96 123.563L254.192 124.203ZM254.144 127.179C255.52 127.819 257.232 128.843 258.064 129.563L258.992 128.843C258.112 128.107 256.384 127.131 255.024 126.539L254.144 127.179ZM245.024 125.323L245.072 126.331C248.128 126.299 252.88 126.171 257.328 126.043L257.392 125.179C252.8 125.259 247.968 125.323 245.024 125.323ZM248.656 126.555C247.68 127.419 246.128 128.251 244.704 128.795C244.976 128.987 245.424 129.403 245.632 129.611C247.008 129.003 248.656 127.995 249.744 126.971L248.656 126.555ZM247.952 117.051C247.216 118.459 245.824 119.995 244.592 120.731C244.832 120.939 245.184 121.323 245.36 121.595C246.608 120.699 248.016 118.971 248.784 117.355L247.952 117.051ZM267.904 115.995V117.051H273.184V121.739H267.904V122.779H274.336V115.995H267.904ZM267.984 118.859V119.915H273.744V118.859H267.984ZM267.344 115.995V128.731H268.48V115.995H267.344ZM266.032 128.411L266.384 129.579C267.856 129.259 269.808 128.843 271.648 128.427L271.568 127.355C269.504 127.755 267.424 128.187 266.032 128.411ZM274.384 123.323C273.632 124.091 272.288 125.179 271.376 125.771L271.968 126.491C272.928 125.915 274.192 125.003 275.2 124.219L274.384 123.323ZM270.816 122.155L269.792 122.363C270.56 125.835 272.08 128.619 274.688 129.915C274.864 129.579 275.232 129.147 275.504 128.907C273.024 127.835 271.504 125.259 270.816 122.155ZM260.816 118.587V119.723H266.464V118.587H260.816ZM263.232 115.147V129.851H264.368V115.147H263.232ZM263.168 119.291C262.688 121.595 261.568 124.363 260.432 125.803C260.64 126.075 260.928 126.555 261.056 126.875C262.256 125.259 263.408 122.123 263.936 119.563L263.168 119.291ZM264.288 121.019L263.696 121.579C264.176 122.219 265.424 124.043 265.824 124.843L266.56 123.899C266.24 123.419 264.704 121.467 264.288 121.019Z" fill="white"/>
<path d="M131.787 231.824V232.752H140.251V231.824H131.787ZM134.843 221.808V223.584H136.011V221.808H134.843ZM128.763 223.056V226.064H129.915V224.016H141.099V226.064H142.283V223.056H128.763ZM131.723 225.008V225.92H138.747V227.296H131.723V228.224H139.931V225.008H131.723ZM131.771 229.328V230.272H139.771V233.264H140.955V229.328H131.771ZM131.083 225.008V233.296H132.235V225.008H131.083ZM130.075 219.792V220.784H135.243V219.792H130.075ZM136.315 219.792V220.784H142.779V219.792H136.315ZM130.379 218.496C129.883 219.744 129.019 221.008 128.059 221.84C128.347 221.984 128.827 222.32 129.051 222.496C129.979 221.584 130.923 220.192 131.515 218.784L130.379 218.496ZM136.683 218.496C136.171 219.728 135.243 220.912 134.187 221.68C134.491 221.824 134.987 222.112 135.227 222.288C136.235 221.456 137.243 220.16 137.819 218.768L136.683 218.496ZM130.971 220.544C131.339 221.136 131.723 221.936 131.867 222.432L132.955 222.112C132.795 221.616 132.379 220.832 132.011 220.272L130.971 220.544ZM137.755 220.56C138.267 221.136 138.811 221.952 139.035 222.464L140.123 222.112C139.883 221.584 139.307 220.8 138.811 220.24L137.755 220.56ZM151.067 223.376H157.019V225.44H151.067V223.376ZM151.067 220.352H157.019V222.384H151.067V220.352ZM149.979 219.312V226.48H158.171V219.312H149.979ZM149.771 228.352V229.456H158.395V228.352H149.771ZM148.539 231.664V232.752H158.923V231.664H148.539ZM144.187 219.648V220.784H149.179V219.648H144.187ZM144.363 224.272V225.408H148.955V224.272H144.363ZM144.027 230.4L144.315 231.632C145.739 231.152 147.563 230.544 149.307 229.952L149.099 228.8C147.243 229.424 145.323 230.048 144.027 230.4ZM146.187 220.096V230.24L147.339 230.016V220.096H146.187ZM153.515 219.808V225.968H153.435V232.16H154.651V225.968H154.571V219.808H153.515ZM118.475 253.904V254.768H121.723V253.904H118.475ZM117.579 246.16V247.104H122.619V246.16H117.579ZM117.115 249.664V250.656H126.843V249.664H117.115ZM118.683 251.616V252.512H121.291V256.208H118.683V257.104H122.267V251.616H118.683ZM117.979 251.616V258.112H118.939V251.616H117.979ZM119.515 244.592V246.832H120.571V244.592H119.515ZM125.387 251.472C124.603 254.576 123.051 257.024 120.715 258.48C120.955 258.672 121.323 259.088 121.467 259.28C123.819 257.632 125.499 255.056 126.395 251.68L125.387 251.472ZM118.059 247.392C118.331 248.112 118.539 249.056 118.555 249.664L119.435 249.456C119.403 248.832 119.195 247.904 118.891 247.2L118.059 247.392ZM124.331 245.6C125.003 246.4 125.691 247.52 125.979 248.256L126.859 247.776C126.555 247.04 125.867 245.952 125.163 245.168L124.331 245.6ZM121.115 247.168C121.019 247.824 120.763 248.8 120.555 249.44L121.355 249.632C121.579 249.056 121.835 248.16 122.091 247.392L121.115 247.168ZM112.267 245.264V246.336H117.611V245.264H112.267ZM113.515 248.624V249.632H116.395V248.624H113.515ZM113.515 251.92V252.944H116.395V251.92H113.515ZM113.019 245.808V256.048H114.027V245.808H113.019ZM115.787 245.792V259.296H116.827V245.792H115.787ZM111.995 255.888L112.203 257.008C113.403 256.752 114.907 256.416 116.411 256.096L116.331 255.04C114.699 255.376 113.099 255.696 111.995 255.888ZM122.987 244.592C123.115 252.832 123.483 259.216 125.579 259.248C126.091 259.264 126.667 258.608 126.971 256.096C126.779 256 126.347 255.712 126.155 255.472C126.059 256.976 125.867 257.872 125.627 257.872C124.587 257.824 124.075 251.728 124.075 244.592H122.987ZM130.779 244.56C130.395 245.728 129.643 247.408 129.035 248.432L130.059 248.736C130.699 247.728 131.451 246.176 132.027 244.848L130.779 244.56ZM128.091 247.952L128.203 249.12C129.947 249.024 132.427 248.896 134.811 248.752L134.827 247.68C132.315 247.792 129.771 247.904 128.091 247.952ZM129.067 250.272V259.264H130.187V251.296H134.139V250.272H129.067ZM133.595 250.272V257.888C133.595 258.096 133.531 258.144 133.323 258.144C133.099 258.16 132.411 258.176 131.659 258.144C131.819 258.448 131.995 258.928 132.059 259.248C133.067 259.248 133.771 259.232 134.219 259.04C134.651 258.848 134.779 258.512 134.779 257.904V250.272H133.595ZM129.595 252.656V253.6H134.219V252.656H129.595ZM129.595 255.056V256.016H134.219V255.056H129.595ZM136.283 244.592V249.904C136.283 251.232 136.683 251.6 138.219 251.6C138.539 251.6 140.635 251.6 140.971 251.6C142.267 251.6 142.619 251.072 142.763 249.12C142.411 249.04 141.931 248.864 141.675 248.656C141.611 250.24 141.499 250.512 140.875 250.512C140.411 250.512 138.667 250.512 138.331 250.512C137.595 250.512 137.467 250.4 137.467 249.888V244.592H136.283ZM141.179 245.776C140.091 246.336 138.267 247.04 136.683 247.536C136.827 247.776 136.987 248.128 137.051 248.384C138.699 247.92 140.619 247.296 141.979 246.656L141.179 245.776ZM136.283 252.032V257.456C136.283 258.784 136.699 259.152 138.251 259.152C138.587 259.152 140.747 259.152 141.099 259.152C142.443 259.152 142.795 258.576 142.955 256.416C142.619 256.352 142.139 256.16 141.867 255.968C141.787 257.776 141.691 258.08 141.003 258.08C140.523 258.08 138.715 258.08 138.379 258.08C137.611 258.08 137.467 257.984 137.467 257.44V252.032H136.283ZM141.371 252.912C140.283 253.616 138.347 254.352 136.683 254.832C136.811 255.072 136.987 255.456 137.051 255.696C138.779 255.232 140.827 254.576 142.171 253.808L141.371 252.912ZM132.779 246.08C133.627 247.216 134.491 248.752 134.827 249.728L135.883 249.264C135.515 248.272 134.619 246.8 133.771 245.68L132.779 246.08ZM149.323 246.464V247.568H158.555V246.464H149.323ZM150.779 257.344V258.464H157.163V257.344H150.779ZM148.747 250.528V251.616H158.843V250.528H148.747ZM153.323 244.592V246.896H154.507V244.592H153.323ZM150.219 253.152V259.264H151.371V254.24H156.603V259.216H157.787V253.152H150.219ZM156.107 247.6C155.915 248.384 155.515 249.52 155.211 250.224L156.235 250.528C156.571 249.856 156.971 248.832 157.339 247.92L156.107 247.6ZM150.747 247.904C151.115 248.736 151.435 249.808 151.499 250.512L152.651 250.224C152.555 249.52 152.235 248.448 151.819 247.648L150.747 247.904ZM144.299 248.432V249.568H149.163V248.432H144.299ZM146.219 244.688V255.12H147.371V244.688H146.219ZM143.995 255.536L144.395 256.752C145.867 256.176 147.787 255.392 149.595 254.624L149.355 253.52C147.403 254.288 145.355 255.088 143.995 255.536ZM162.715 251.344V259.296H163.915V252.368H171.499V251.344H162.715ZM171.099 251.344V258C171.099 258.224 171.019 258.288 170.747 258.304C170.491 258.32 169.547 258.32 168.619 258.288C168.763 258.576 168.939 258.992 169.003 259.28C170.299 259.28 171.131 259.28 171.627 259.12C172.139 258.96 172.299 258.656 172.299 258V251.344H171.099ZM163.435 253.584V254.48H171.595V253.584H163.435ZM160.427 246.128V247.2H174.507V246.128H160.427ZM164.875 246.784C164.411 247.632 163.595 248.848 162.939 249.6L163.899 249.968C164.587 249.248 165.483 248.144 166.187 247.168L164.875 246.784ZM169.339 247.792C170.795 248.752 172.523 250.16 173.355 251.12L174.363 250.4C173.483 249.44 171.707 248.096 170.283 247.184L169.339 247.792ZM161.067 249.248L161.115 250.368C164.027 250.304 168.507 250.176 172.683 250.032L172.747 249.04C168.475 249.136 163.915 249.232 161.067 249.248ZM163.435 255.728V256.608H171.547V255.728H163.435ZM166.811 244.56V246.656H168.043V244.56H166.811Z" fill="white"/>
<defs>
<linearGradient id="paint0_linear_158_6670" x1="145.001" y1="289.706" x2="145.001" y2="163.082" gradientUnits="userSpaceOnUse">
<stop stop-color="#003A6F"/>
<stop offset="1" stop-color="#005CAF"/>
</linearGradient>
<linearGradient id="paint1_linear_158_6670" x1="145.001" y1="154.598" x2="274.126" y2="79.4799" gradientUnits="userSpaceOnUse">
<stop stop-color="#2078FB"/>
<stop offset="1" stop-color="#1B67C9"/>
</linearGradient>
<linearGradient id="paint2_linear_158_6670" x1="12.4046" y1="77.932" x2="138.087" y2="145.172" gradientUnits="userSpaceOnUse">
<stop stop-color="#3A9BD8"/>
<stop offset="1" stop-color="#57B7FF"/>
</linearGradient>
</defs>
</svg>
