<svg width="1270" height="56" viewBox="0 0 1270 56" fill="none" xmlns="http://www.w3.org/2000/svg">
<rect width="1270" height="56" fill="#005CAF"/>
<g style="mix-blend-mode:hard-light" opacity="0.5">
<mask id="mask0_430_4314" style="mask-type:alpha" maskUnits="userSpaceOnUse" x="0" y="0" width="1270" height="56">
<rect width="1270" height="56" fill="url(#paint0_linear_430_4314)"/>
</mask>
<g mask="url(#mask0_430_4314)">
<path d="M438.061 91.1699V54.4722L469.418 72.8292L438.061 91.1699Z" fill="#F2F2F2"/>
<path d="M30.2871 72.8292L61.6603 54.4722V91.1699L30.2871 72.8292Z" fill="#CACACA"/>
<path d="M61.6641 91.1699V54.4722L93.0373 72.8292L61.6641 91.1699Z" fill="#C7C7C7"/>
<path d="M93.0352 72.8292L124.392 54.4722V91.1699L93.0352 72.8292Z" fill="#BABABA"/>
<path d="M124.393 91.1699V54.4722L155.766 72.8292L124.393 91.1699Z" fill="#C9C9C9"/>
<path d="M155.766 72.8292L187.123 54.4722V91.1699L155.766 72.8292Z" fill="#BABABA"/>
<path d="M187.119 91.1699V54.4722L218.492 72.8292L187.119 91.1699Z" fill="#C1C1C1"/>
<path d="M218.496 72.8292L249.853 54.4722V91.1699L218.496 72.8292Z" fill="#CDCDCD"/>
<path d="M249.852 91.1699V54.4722L281.225 72.8292L249.852 91.1699Z" fill="#D6D6D6"/>
<path d="M281.227 72.8292L312.584 54.4722V91.1699L281.227 72.8292Z" fill="#D7D7D7"/>
<path d="M312.584 91.1699V54.4722L343.957 72.8292L312.584 91.1699Z" fill="#D1D1D1"/>
<path d="M343.953 72.8292L375.326 54.4722V91.1699L343.953 72.8292Z" fill="#C6C6C6"/>
<path d="M375.328 91.1699V54.4722L406.685 72.8292L375.328 91.1699Z" fill="#CFCFCF"/>
<path d="M406.689 72.8292L438.063 54.4722V91.1699L406.689 72.8292Z" fill="#F0F0F0"/>
<path d="M438.061 54.4726L469.418 36.1318V72.8296L438.061 54.4726Z" fill="#F0F0F0"/>
<path d="M-1.06836 91.1699V54.4722L30.2888 72.8292L-1.06836 91.1699Z" fill="#CECECE"/>
<path d="M-1.06836 54.4726L30.2888 36.1318V72.8296L-1.06836 54.4726Z" fill="#CACACA"/>
<path d="M30.2871 72.8296V36.1318L61.6603 54.4726L30.2871 72.8296Z" fill="#CDCDCD"/>
<path d="M61.6641 54.4726L93.0373 36.1318V72.8296L61.6641 54.4726Z" fill="#C7C7C7"/>
<path d="M93.0352 72.8296V36.1318L124.392 54.4726L93.0352 72.8296Z" fill="#C7C7C7"/>
<path d="M124.393 54.4726L155.766 36.1318V72.8296L124.393 54.4726Z" fill="#DFDFDF"/>
<path d="M155.766 72.8296V36.1318L187.123 54.4726L155.766 72.8296Z" fill="#CDCDCD"/>
<path d="M187.119 54.4726L218.492 36.1318V72.8296L187.119 54.4726Z" fill="#D1D1D1"/>
<path d="M218.496 72.8296V36.1318L249.853 54.4726L218.496 72.8296Z" fill="#CECECE"/>
<path d="M249.852 54.4726L281.225 36.1318V72.8296L249.852 54.4726Z" fill="#CDCDCD"/>
<path d="M281.227 72.8296V36.1318L312.584 54.4726L281.227 72.8296Z" fill="#CDCDCD"/>
<path d="M312.584 54.4726L343.957 36.1318V72.8296L312.584 54.4726Z" fill="#C7C7C7"/>
<path d="M343.953 72.8296V36.1318L375.326 54.4726L343.953 72.8296Z" fill="#C6C6C6"/>
<path d="M375.328 54.4726L406.685 36.1318V72.8296L375.328 54.4726Z" fill="#CDCDCD"/>
<path d="M406.689 72.8296V36.1318L438.063 54.4726L406.689 72.8296Z" fill="#DADADA"/>
<path d="M469.418 72.8296V36.1318L500.791 54.4726L469.418 72.8296Z" fill="#EFEFEF"/>
<path d="M469.418 72.8292L500.791 54.4722V91.1699L469.418 72.8292Z" fill="#E8E8E8"/>
<path d="M-1.06836 54.4727V17.7749L30.2888 36.132L-1.06836 54.4727Z" fill="#BDBDBD"/>
<path d="M30.2871 36.132L61.6603 17.7749V54.4727L30.2871 36.132Z" fill="#D1D1D1"/>
<path d="M61.6641 54.4727V17.7749L93.0373 36.132L61.6641 54.4727Z" fill="#D1D1D1"/>
<path d="M93.0352 36.132L124.392 17.7749V54.4727L93.0352 36.132Z" fill="#D1D1D1"/>
<path d="M124.393 54.4727V17.7749L155.766 36.132L124.393 54.4727Z" fill="#DFDFDF"/>
<path d="M155.766 36.132L187.123 17.7749V54.4727L155.766 36.132Z" fill="#CDCDCD"/>
<path d="M187.119 54.4727V17.7749L218.492 36.132L187.119 54.4727Z" fill="#D8D8D8"/>
<path d="M218.496 36.132L249.853 17.7749V54.4727L218.496 36.132Z" fill="#D8D8D8"/>
<path d="M249.852 54.4727V17.7749L281.225 36.132L249.852 54.4727Z" fill="#D2D2D2"/>
<path d="M281.227 36.132L312.584 17.7749V54.4727L281.227 36.132Z" fill="#BDBDBD"/>
<path d="M312.584 54.4727V17.7749L343.957 36.132L312.584 54.4727Z" fill="#C1C1C1"/>
<path d="M343.953 36.132L375.326 17.7749V54.4727L343.953 36.132Z" fill="#BEBEBE"/>
<path d="M375.328 54.4727V17.7749L406.685 36.132L375.328 54.4727Z" fill="#C2C2C2"/>
<path d="M406.689 36.132L438.063 17.7749V54.4727L406.689 36.132Z" fill="#D3D3D3"/>
<path d="M438.061 54.4727V17.7749L469.418 36.132L438.061 54.4727Z" fill="#E2E2E2"/>
<path d="M469.418 36.1319V-0.565918L500.791 17.7748L469.418 36.1319Z" fill="#DBDBDB"/>
<path d="M469.418 36.132L500.791 17.7749V54.4727L469.418 36.132Z" fill="#E2E2E2"/>
<path d="M500.795 91.1699V54.4722L532.152 72.8292L500.795 91.1699Z" fill="#D8D8D8"/>
<path d="M-1.06836 17.7748L30.2888 -0.565918V36.1319L-1.06836 17.7748Z" fill="#CFCFCF"/>
<path d="M30.2871 36.1319V-0.565918L61.6603 17.7748L30.2871 36.1319Z" fill="#D6D6D6"/>
<path d="M61.6641 17.7748L93.0373 -0.565918V36.1319L61.6641 17.7748Z" fill="#DEDEDE"/>
<path d="M93.0352 36.1319V-0.565918L124.392 17.7748L93.0352 36.1319Z" fill="#E0E0E0"/>
<path d="M124.393 17.7748L155.766 -0.565918V36.1319L124.393 17.7748Z" fill="#D7D7D7"/>
<path d="M155.766 36.1319V-0.565918L187.123 17.7748L155.766 36.1319Z" fill="#CDCDCD"/>
<path d="M187.119 17.7748L218.492 -0.565918V36.1319L187.119 17.7748Z" fill="#B9B9B9"/>
<path d="M218.496 36.1319V-0.565918L249.853 17.7748L218.496 36.1319Z" fill="#D2D2D2"/>
<path d="M249.852 17.7748L281.225 -0.565918V36.1319L249.852 17.7748Z" fill="#DADADA"/>
<path d="M281.227 36.1319V-0.565918L312.584 17.7748L281.227 36.1319Z" fill="#B9B9B9"/>
<path d="M312.584 17.7748L343.957 -0.565918V36.1319L312.584 17.7748Z" fill="#B6B6B6"/>
<path d="M343.953 36.1319V-0.565918L375.326 17.7748L343.953 36.1319Z" fill="#BABABA"/>
<path d="M375.328 17.7748L406.685 -0.565918V36.1319L375.328 17.7748Z" fill="#C6C6C6"/>
<path d="M406.689 36.1319V-0.565918L438.063 17.7748L406.689 36.1319Z" fill="#D1D1D1"/>
<path d="M438.061 17.7748L469.418 -0.565918V36.1319L438.061 17.7748Z" fill="#D7D7D7"/>
<path d="M469.418 -0.565514L500.791 -18.9062V17.7752L469.418 -0.565514Z" fill="#D5D5D5"/>
<path d="M500.795 54.4727V17.7749L532.152 36.132L500.795 54.4727Z" fill="#D2D2D2"/>
<path d="M500.795 54.4726L532.152 36.1318V72.8296L500.795 54.4726Z" fill="#DEDEDE"/>
<path d="M-1.06836 17.7752V-18.9062L30.2888 -0.565514L-1.06836 17.7752Z" fill="#CDCDCD"/>
<path d="M30.2871 -0.565514L61.6603 -18.9062V17.7752L30.2871 -0.565514Z" fill="#D2D2D2"/>
<path d="M61.6641 17.7752V-18.9062L93.0373 -0.565514L61.6641 17.7752Z" fill="#D2D2D2"/>
<path d="M93.0352 -0.565514L124.392 -18.9062V17.7752L93.0352 -0.565514Z" fill="#CDCDCD"/>
<path d="M124.393 17.7752V-18.9062L155.766 -0.565514L124.393 17.7752Z" fill="#C7C7C7"/>
<path d="M155.766 -0.565514L187.123 -18.9062V17.7752L155.766 -0.565514Z" fill="#DADADA"/>
<path d="M187.119 17.7752V-18.9062L218.492 -0.565514L187.119 17.7752Z" fill="#D3D3D3"/>
<path d="M218.496 -0.565514L249.853 -18.9062V17.7752L218.496 -0.565514Z" fill="#BABABA"/>
<path d="M249.852 17.7752V-18.9062L281.225 -0.565514L249.852 17.7752Z" fill="#C3C3C3"/>
<path d="M281.227 -0.565514L312.584 -18.9062V17.7752L281.227 -0.565514Z" fill="#BDBDBD"/>
<path d="M312.584 17.7752V-18.9062L343.957 -0.565514L312.584 17.7752Z" fill="#C1C1C1"/>
<path d="M343.953 -0.565514L375.326 -18.9062V17.7752L343.953 -0.565514Z" fill="#C1C1C1"/>
<path d="M375.328 17.7752V-18.9062L406.685 -0.565514L375.328 17.7752Z" fill="#C3C3C3"/>
<path d="M406.689 -0.565514L438.063 -18.9062V17.7752L406.689 -0.565514Z" fill="#CDCDCD"/>
<path d="M438.061 17.7752V-18.9062L469.418 -0.565514L438.061 17.7752Z" fill="#C9C9C9"/>
<path d="M500.795 17.7752V-18.9062L532.152 -0.565514L500.795 17.7752Z" fill="#C3C3C3"/>
<path d="M500.795 17.7748L532.152 -0.565918V36.1319L500.795 17.7748Z" fill="#CACACA"/>
<path d="M532.15 72.8296V36.1318L563.524 54.4726L532.15 72.8296Z" fill="#C9C9C9"/>
<path d="M532.15 72.8292L563.524 54.4722V91.1699L532.15 72.8292Z" fill="#DBDBDB"/>
<path d="M532.15 36.1319V-0.565918L563.524 17.7748L532.15 36.1319Z" fill="#CDCDCD"/>
<path d="M532.15 36.132L563.524 17.7749V54.4727L532.15 36.132Z" fill="#CACACA"/>
<path d="M563.52 91.1699V54.4722L594.877 72.8292L563.52 91.1699Z" fill="#E7E7E7"/>
<path d="M532.15 -0.565514L563.524 -18.9062V17.7752L532.15 -0.565514Z" fill="#DCDCDC"/>
<path d="M563.52 54.4727V17.7749L594.877 36.132L563.52 54.4727Z" fill="#E4E4E4"/>
<path d="M563.52 54.4726L594.877 36.1318V72.8296L563.52 54.4726Z" fill="#DCDCDC"/>
<path d="M563.52 17.7752V-18.9062L594.877 -0.565514L563.52 17.7752Z" fill="#E0E0E0"/>
<path d="M563.52 17.7748L594.877 -0.565918V36.1319L563.52 17.7748Z" fill="#DEDEDE"/>
<path style="mix-blend-mode:color-dodge" d="M-257.001 253.366L574.342 253.366V-124.072L-257.001 -124.072V253.366Z" fill="url(#paint1_linear_430_4314)"/>
<g style="mix-blend-mode:overlay">
<path d="M-257.001 253.366L574.342 253.366V-124.072L-257.001 -124.072V253.366Z" fill="#334D8F"/>
</g>
<g style="mix-blend-mode:overlay">
<path d="M-257.001 253.366L574.342 253.366V-124.072L-257.001 -124.072V253.366Z" fill="#000B70"/>
</g>
<path style="mix-blend-mode:color-dodge" d="M-257.001 253.366L574.342 253.366V-124.072L-257.001 -124.072V253.366Z" fill="url(#paint2_linear_430_4314)"/>
</g>
<mask id="mask1_430_4314" style="mask-type:alpha" maskUnits="userSpaceOnUse" x="0" y="0" width="1262" height="56">
<rect width="1262" height="56" fill="url(#paint3_linear_430_4314)"/>
</mask>
<g mask="url(#mask1_430_4314)">
<path d="M689.061 91.1699V54.4722L720.418 72.8292L689.061 91.1699Z" fill="#F2F2F2"/>
<path d="M281.287 72.8292L312.66 54.4722V91.1699L281.287 72.8292Z" fill="#CACACA"/>
<path d="M312.664 91.1699V54.4722L344.037 72.8292L312.664 91.1699Z" fill="#C7C7C7"/>
<path d="M344.035 72.8292L375.392 54.4722V91.1699L344.035 72.8292Z" fill="#BABABA"/>
<path d="M375.393 91.1699V54.4722L406.766 72.8292L375.393 91.1699Z" fill="#C9C9C9"/>
<path d="M406.766 72.8292L438.123 54.4722V91.1699L406.766 72.8292Z" fill="#BABABA"/>
<path d="M438.119 91.1699V54.4722L469.492 72.8292L438.119 91.1699Z" fill="#C1C1C1"/>
<path d="M469.496 72.8292L500.853 54.4722V91.1699L469.496 72.8292Z" fill="#CDCDCD"/>
<path d="M500.852 91.1699V54.4722L532.225 72.8292L500.852 91.1699Z" fill="#D6D6D6"/>
<path d="M532.227 72.8292L563.584 54.4722V91.1699L532.227 72.8292Z" fill="#D7D7D7"/>
<path d="M563.584 91.1699V54.4722L594.957 72.8292L563.584 91.1699Z" fill="#D1D1D1"/>
<path d="M594.953 72.8292L626.326 54.4722V91.1699L594.953 72.8292Z" fill="#C6C6C6"/>
<path d="M626.328 91.1699V54.4722L657.685 72.8292L626.328 91.1699Z" fill="#CFCFCF"/>
<path d="M657.689 72.8292L689.063 54.4722V91.1699L657.689 72.8292Z" fill="#F0F0F0"/>
<path d="M689.061 54.4726L720.418 36.1318V72.8296L689.061 54.4726Z" fill="#F0F0F0"/>
<path d="M249.932 91.1699V54.4722L281.289 72.8292L249.932 91.1699Z" fill="#CECECE"/>
<path d="M249.932 54.4726L281.289 36.1318V72.8296L249.932 54.4726Z" fill="#CACACA"/>
<path d="M281.287 72.8296V36.1318L312.66 54.4726L281.287 72.8296Z" fill="#CDCDCD"/>
<path d="M312.664 54.4726L344.037 36.1318V72.8296L312.664 54.4726Z" fill="#C7C7C7"/>
<path d="M344.035 72.8296V36.1318L375.392 54.4726L344.035 72.8296Z" fill="#C7C7C7"/>
<path d="M375.393 54.4726L406.766 36.1318V72.8296L375.393 54.4726Z" fill="#DFDFDF"/>
<path d="M406.766 72.8296V36.1318L438.123 54.4726L406.766 72.8296Z" fill="#CDCDCD"/>
<path d="M438.119 54.4726L469.492 36.1318V72.8296L438.119 54.4726Z" fill="#D1D1D1"/>
<path d="M469.496 72.8296V36.1318L500.853 54.4726L469.496 72.8296Z" fill="#CECECE"/>
<path d="M500.852 54.4726L532.225 36.1318V72.8296L500.852 54.4726Z" fill="#CDCDCD"/>
<path d="M532.227 72.8296V36.1318L563.584 54.4726L532.227 72.8296Z" fill="#CDCDCD"/>
<path d="M563.584 54.4726L594.957 36.1318V72.8296L563.584 54.4726Z" fill="#C7C7C7"/>
<path d="M594.953 72.8296V36.1318L626.326 54.4726L594.953 72.8296Z" fill="#C6C6C6"/>
<path d="M626.328 54.4726L657.685 36.1318V72.8296L626.328 54.4726Z" fill="#CDCDCD"/>
<path d="M657.689 72.8296V36.1318L689.063 54.4726L657.689 72.8296Z" fill="#DADADA"/>
<path d="M720.418 72.8296V36.1318L751.791 54.4726L720.418 72.8296Z" fill="#EFEFEF"/>
<path d="M720.418 72.8292L751.791 54.4722V91.1699L720.418 72.8292Z" fill="#E8E8E8"/>
<path d="M218.559 72.8292L249.932 54.4722V91.1699L218.559 72.8292Z" fill="#C7C7C7"/>
<path d="M249.932 54.4727V17.7749L281.289 36.132L249.932 54.4727Z" fill="#BDBDBD"/>
<path d="M281.287 36.132L312.66 17.7749V54.4727L281.287 36.132Z" fill="#D1D1D1"/>
<path d="M312.664 54.4727V17.7749L344.037 36.132L312.664 54.4727Z" fill="#D1D1D1"/>
<path d="M344.035 36.132L375.392 17.7749V54.4727L344.035 36.132Z" fill="#D1D1D1"/>
<path d="M375.393 54.4727V17.7749L406.766 36.132L375.393 54.4727Z" fill="#DFDFDF"/>
<path d="M406.766 36.132L438.123 17.7749V54.4727L406.766 36.132Z" fill="#CDCDCD"/>
<path d="M438.119 54.4727V17.7749L469.492 36.132L438.119 54.4727Z" fill="#D8D8D8"/>
<path d="M469.496 36.132L500.853 17.7749V54.4727L469.496 36.132Z" fill="#D8D8D8"/>
<path d="M500.852 54.4727V17.7749L532.225 36.132L500.852 54.4727Z" fill="#D2D2D2"/>
<path d="M532.227 36.132L563.584 17.7749V54.4727L532.227 36.132Z" fill="#BDBDBD"/>
<path d="M563.584 54.4727V17.7749L594.957 36.132L563.584 54.4727Z" fill="#C1C1C1"/>
<path d="M594.953 36.132L626.326 17.7749V54.4727L594.953 36.132Z" fill="#BEBEBE"/>
<path d="M626.328 54.4727V17.7749L657.685 36.132L626.328 54.4727Z" fill="#C2C2C2"/>
<path d="M657.689 36.132L689.063 17.7749V54.4727L657.689 36.132Z" fill="#D3D3D3"/>
<path d="M689.061 54.4727V17.7749L720.418 36.132L689.061 54.4727Z" fill="#E2E2E2"/>
<path d="M720.418 36.1319V-0.565918L751.791 17.7748L720.418 36.1319Z" fill="#DBDBDB"/>
<path d="M720.418 36.132L751.791 17.7749V54.4727L720.418 36.132Z" fill="#E2E2E2"/>
<path d="M751.795 91.1699V54.4722L783.152 72.8292L751.795 91.1699Z" fill="#D8D8D8"/>
<path d="M218.559 72.8296V36.1318L249.932 54.4726L218.559 72.8296Z" fill="#C9C9C9"/>
<path d="M218.559 36.132L249.932 17.7749V54.4727L218.559 36.132Z" fill="#CACACA"/>
<path d="M249.932 17.7748L281.289 -0.565918V36.1319L249.932 17.7748Z" fill="#CFCFCF"/>
<path d="M281.287 36.1319V-0.565918L312.66 17.7748L281.287 36.1319Z" fill="#D6D6D6"/>
<path d="M312.664 17.7748L344.037 -0.565918V36.1319L312.664 17.7748Z" fill="#DEDEDE"/>
<path d="M344.035 36.1319V-0.565918L375.392 17.7748L344.035 36.1319Z" fill="#E0E0E0"/>
<path d="M375.393 17.7748L406.766 -0.565918V36.1319L375.393 17.7748Z" fill="#D7D7D7"/>
<path d="M406.766 36.1319V-0.565918L438.123 17.7748L406.766 36.1319Z" fill="#CDCDCD"/>
<path d="M438.119 17.7748L469.492 -0.565918V36.1319L438.119 17.7748Z" fill="#B9B9B9"/>
<path d="M469.496 36.1319V-0.565918L500.853 17.7748L469.496 36.1319Z" fill="#D2D2D2"/>
<path d="M500.852 17.7748L532.225 -0.565918V36.1319L500.852 17.7748Z" fill="#DADADA"/>
<path d="M532.227 36.1319V-0.565918L563.584 17.7748L532.227 36.1319Z" fill="#B9B9B9"/>
<path d="M563.584 17.7748L594.957 -0.565918V36.1319L563.584 17.7748Z" fill="#B6B6B6"/>
<path d="M594.953 36.1319V-0.565918L626.326 17.7748L594.953 36.1319Z" fill="#BABABA"/>
<path d="M626.328 17.7748L657.685 -0.565918V36.1319L626.328 17.7748Z" fill="#C6C6C6"/>
<path d="M657.689 36.1319V-0.565918L689.063 17.7748L657.689 36.1319Z" fill="#D1D1D1"/>
<path d="M689.061 17.7748L720.418 -0.565918V36.1319L689.061 17.7748Z" fill="#D7D7D7"/>
<path d="M720.418 -0.565514L751.791 -18.9062V17.7752L720.418 -0.565514Z" fill="#D5D5D5"/>
<path d="M751.795 54.4727V17.7749L783.152 36.132L751.795 54.4727Z" fill="#D2D2D2"/>
<path d="M751.795 54.4726L783.152 36.1318V72.8296L751.795 54.4726Z" fill="#DEDEDE"/>
<path d="M187.201 91.1699V54.4722L218.558 72.8292L187.201 91.1699Z" fill="#B9B9B9"/>
<path d="M187.201 54.4726L218.558 36.1318V72.8296L187.201 54.4726Z" fill="#C9C9C9"/>
<path d="M218.559 36.1319V-0.565918L249.932 17.7748L218.559 36.1319Z" fill="#BABABA"/>
<path d="M218.559 -0.565514L249.932 -18.9062V17.7752L218.559 -0.565514Z" fill="#BEBEBE"/>
<path d="M249.932 17.7752V-18.9062L281.289 -0.565514L249.932 17.7752Z" fill="#CDCDCD"/>
<path d="M281.287 -0.565514L312.66 -18.9062V17.7752L281.287 -0.565514Z" fill="#D2D2D2"/>
<path d="M312.664 17.7752V-18.9062L344.037 -0.565514L312.664 17.7752Z" fill="#D2D2D2"/>
<path d="M344.035 -0.565514L375.392 -18.9062V17.7752L344.035 -0.565514Z" fill="#CDCDCD"/>
<path d="M375.393 17.7752V-18.9062L406.766 -0.565514L375.393 17.7752Z" fill="#C7C7C7"/>
<path d="M406.766 -0.565514L438.123 -18.9062V17.7752L406.766 -0.565514Z" fill="#DADADA"/>
<path d="M438.119 17.7752V-18.9062L469.492 -0.565514L438.119 17.7752Z" fill="#D3D3D3"/>
<path d="M469.496 -0.565514L500.853 -18.9062V17.7752L469.496 -0.565514Z" fill="#BABABA"/>
<path d="M500.852 17.7752V-18.9062L532.225 -0.565514L500.852 17.7752Z" fill="#C3C3C3"/>
<path d="M532.227 -0.565514L563.584 -18.9062V17.7752L532.227 -0.565514Z" fill="#BDBDBD"/>
<path d="M563.584 17.7752V-18.9062L594.957 -0.565514L563.584 17.7752Z" fill="#C1C1C1"/>
<path d="M594.953 -0.565514L626.326 -18.9062V17.7752L594.953 -0.565514Z" fill="#C1C1C1"/>
<path d="M626.328 17.7752V-18.9062L657.685 -0.565514L626.328 17.7752Z" fill="#C3C3C3"/>
<path d="M657.689 -0.565514L689.063 -18.9062V17.7752L657.689 -0.565514Z" fill="#CDCDCD"/>
<path d="M689.061 17.7752V-18.9062L720.418 -0.565514L689.061 17.7752Z" fill="#C9C9C9"/>
<path d="M751.795 17.7752V-18.9062L783.152 -0.565514L751.795 17.7752Z" fill="#C3C3C3"/>
<path d="M751.795 17.7748L783.152 -0.565918V36.1319L751.795 17.7748Z" fill="#CACACA"/>
<path d="M783.15 72.8296V36.1318L814.524 54.4726L783.15 72.8296Z" fill="#C9C9C9"/>
<path d="M783.15 72.8292L814.524 54.4722V91.1699L783.15 72.8292Z" fill="#DBDBDB"/>
<path d="M155.83 72.8292L187.203 54.4722V91.1699L155.83 72.8292Z" fill="#BDBDBD"/>
<path d="M187.201 54.4727V17.7749L218.558 36.132L187.201 54.4727Z" fill="#C6C6C6"/>
<path d="M187.201 17.7748L218.558 -0.565918V36.1319L187.201 17.7748Z" fill="#C2C2C2"/>
<path d="M783.15 36.1319V-0.565918L814.524 17.7748L783.15 36.1319Z" fill="#CDCDCD"/>
<path d="M783.15 36.132L814.524 17.7749V54.4727L783.15 36.132Z" fill="#CACACA"/>
<path d="M814.52 91.1699V54.4722L845.877 72.8292L814.52 91.1699Z" fill="#E7E7E7"/>
<path d="M155.83 72.8296V36.1318L187.203 54.4726L155.83 72.8296Z" fill="#B2B2B2"/>
<path d="M155.83 36.132L187.203 17.7749V54.4727L155.83 36.132Z" fill="#C6C6C6"/>
<path d="M187.201 17.7752V-18.9062L218.558 -0.565514L187.201 17.7752Z" fill="#BEBEBE"/>
<path d="M783.15 -0.565514L814.524 -18.9062V17.7752L783.15 -0.565514Z" fill="#DCDCDC"/>
<path d="M814.52 54.4727V17.7749L845.877 36.132L814.52 54.4727Z" fill="#E4E4E4"/>
<path d="M814.52 54.4726L845.877 36.1318V72.8296L814.52 54.4726Z" fill="#DCDCDC"/>
<path d="M124.473 91.1699V54.4722L155.83 72.8292L124.473 91.1699Z" fill="#B6B6B6"/>
<path d="M124.473 54.4726L155.83 36.1318V72.8296L124.473 54.4726Z" fill="#A5A5A5"/>
<path d="M155.83 36.1319V-0.565918L187.203 17.7748L155.83 36.1319Z" fill="#CACACA"/>
<path d="M155.83 -0.565514L187.203 -18.9062V17.7752L155.83 -0.565514Z" fill="#C2C2C2"/>
<path d="M814.52 17.7752V-18.9062L845.877 -0.565514L814.52 17.7752Z" fill="#E0E0E0"/>
<path d="M814.52 17.7748L845.877 -0.565918V36.1319L814.52 17.7748Z" fill="#DEDEDE"/>
<path d="M93.0957 72.8292L124.469 54.4722V91.1699L93.0957 72.8292Z" fill="#B5B5B5"/>
<path d="M124.473 54.4727V17.7749L155.83 36.132L124.473 54.4727Z" fill="#A5A5A5"/>
<path d="M124.473 17.7748L155.83 -0.565918V36.1319L124.473 17.7748Z" fill="#CDCDCD"/>
<path d="M93.0957 72.8296V36.1318L124.469 54.4726L93.0957 72.8296Z" fill="#9E9E9E"/>
<path d="M93.0957 36.132L124.469 17.7749V54.4727L93.0957 36.132Z" fill="#9E9E9E"/>
<path d="M124.473 17.7752V-18.9062L155.83 -0.565514L124.473 17.7752Z" fill="#D7D7D7"/>
<path d="M61.7402 91.1699V54.4722L93.0974 72.8292L61.7402 91.1699Z" fill="#BABABA"/>
<path d="M61.7402 54.4726L93.0974 36.1318V72.8296L61.7402 54.4726Z" fill="#AFAFAF"/>
<path d="M93.0957 36.1319V-0.565918L124.469 17.7748L93.0957 36.1319Z" fill="#AFAFAF"/>
<path d="M93.0957 -0.565514L124.469 -18.9062V17.7752L93.0957 -0.565514Z" fill="#BDBDBD"/>
<path d="M30.3672 72.8292L61.7404 54.4722V91.1699L30.3672 72.8292Z" fill="#BABABA"/>
<path d="M61.7402 54.4727V17.7749L93.0974 36.132L61.7402 54.4727Z" fill="#B2B2B2"/>
<path d="M61.7402 17.7748L93.0974 -0.565918V36.1319L61.7402 17.7748Z" fill="#B5B5B5"/>
<path d="M30.3672 72.8296V36.1318L61.7404 54.4726L30.3672 72.8296Z" fill="#BABABA"/>
<path d="M30.3672 36.132L61.7404 17.7749V54.4727L30.3672 36.132Z" fill="#BABABA"/>
<path d="M61.7402 17.7752V-18.9062L93.0974 -0.565514L61.7402 17.7752Z" fill="#B9B9B9"/>
<path d="M-1.00586 91.1699V54.4722L30.3674 72.8292L-1.00586 91.1699Z" fill="#C1C1C1"/>
<path d="M-1.00586 54.4726L30.3674 36.1318V72.8296L-1.00586 54.4726Z" fill="#BABABA"/>
<path d="M30.3672 36.1319V-0.565918L61.7404 17.7748L30.3672 36.1319Z" fill="#B9B9B9"/>
<path d="M30.3672 -0.565514L61.7404 -18.9062V17.7752L30.3672 -0.565514Z" fill="#B5B5B5"/>
<path d="M-1.00586 54.4727V17.7749L30.3674 36.132L-1.00586 54.4727Z" fill="#B6B6B6"/>
<path d="M-1.00586 17.7748L30.3674 -0.565918V36.1319L-1.00586 17.7748Z" fill="#B6B6B6"/>
<path d="M-1.00586 17.7752V-18.9062L30.3674 -0.565514L-1.00586 17.7752Z" fill="#AFAFAF"/>
<path style="mix-blend-mode:color-dodge" d="M-6.00067 253.366L825.342 253.366V-124.072L-6.00067 -124.072V253.366Z" fill="url(#paint4_linear_430_4314)"/>
<g style="mix-blend-mode:overlay">
<path d="M-6.00067 253.366L825.342 253.366V-124.072L-6.00067 -124.072V253.366Z" fill="#334D8F"/>
</g>
<g style="mix-blend-mode:overlay">
<path d="M-6.00067 253.366L825.342 253.366V-124.072L-6.00067 -124.072V253.366Z" fill="#000B70"/>
</g>
<path style="mix-blend-mode:color-dodge" d="M-6.00067 253.366L825.342 253.366V-124.072L-6.00067 -124.072V253.366Z" fill="url(#paint5_linear_430_4314)"/>
</g>
<mask id="mask2_430_4314" style="mask-type:alpha" maskUnits="userSpaceOnUse" x="2" y="0" width="1268" height="56">
<rect width="1268" height="56" transform="matrix(-1 0 0 1 1270 0)" fill="url(#paint6_linear_430_4314)"/>
</mask>
<g mask="url(#mask2_430_4314)">
<path d="M945.404 61.0822L918.728 45.4795V76.6987L945.404 61.0822Z" fill="#F0F0F0"/>
<path d="M1292.3 76.6987V45.4795L1265.61 61.0822L1292.3 76.6987Z" fill="#CDCDCD"/>
<path d="M1265.61 61.0822L1238.92 45.4795V76.6987L1265.61 61.0822Z" fill="#C7C7C7"/>
<path d="M1238.92 76.6987V45.4795L1212.25 61.0822L1238.92 76.6987Z" fill="#C7C7C7"/>
<path d="M1212.24 61.0822L1185.55 45.4795V76.6987L1212.24 61.0822Z" fill="#DFDFDF"/>
<path d="M1185.56 76.6987V45.4795L1158.88 61.0822L1185.56 76.6987Z" fill="#CDCDCD"/>
<path d="M1158.88 61.0822L1132.19 45.4795V76.6987L1158.88 61.0822Z" fill="#D1D1D1"/>
<path d="M1132.19 76.6987V45.4795L1105.51 61.0822L1132.19 76.6987Z" fill="#CECECE"/>
<path d="M1105.52 61.0822L1078.83 45.4795V76.6987L1105.52 61.0822Z" fill="#CDCDCD"/>
<path d="M1078.82 76.6987V45.4795L1052.15 61.0822L1078.82 76.6987Z" fill="#CDCDCD"/>
<path d="M1052.15 61.0822L1025.46 45.4795V76.6987L1052.15 61.0822Z" fill="#C7C7C7"/>
<path d="M1025.46 76.6987V45.4795L998.773 61.0822L1025.46 76.6987Z" fill="#C6C6C6"/>
<path d="M998.771 61.0822L972.096 45.4795V76.6987L998.771 61.0822Z" fill="#CDCDCD"/>
<path d="M972.092 76.6987V45.4795L945.402 61.0822L972.092 76.6987Z" fill="#DADADA"/>
<path d="M918.729 76.6987V45.4795L892.039 61.0822L918.729 76.6987Z" fill="#EFEFEF"/>
<path d="M1292.3 45.4793L1265.61 29.8628V61.082L1292.3 45.4793Z" fill="#D1D1D1"/>
<path d="M1265.61 61.082V29.8628L1238.92 45.4793L1265.61 61.082Z" fill="#D1D1D1"/>
<path d="M1238.92 45.4793L1212.25 29.8628V61.082L1238.92 45.4793Z" fill="#D1D1D1"/>
<path d="M1212.24 61.082V29.8628L1185.55 45.4793L1212.24 61.082Z" fill="#DFDFDF"/>
<path d="M1185.56 45.4793L1158.88 29.8628V61.082L1185.56 45.4793Z" fill="#CDCDCD"/>
<path d="M1158.88 61.082V29.8628L1132.19 45.4793L1158.88 61.082Z" fill="#D8D8D8"/>
<path d="M1132.19 45.4793L1105.51 29.8628V61.082L1132.19 45.4793Z" fill="#D8D8D8"/>
<path d="M1105.52 61.082V29.8628L1078.83 45.4793L1105.52 61.082Z" fill="#D2D2D2"/>
<path d="M1078.82 45.4793L1052.15 29.8628V61.082L1078.82 45.4793Z" fill="#BDBDBD"/>
<path d="M1052.15 61.082V29.8628L1025.46 45.4793L1052.15 61.082Z" fill="#C1C1C1"/>
<path d="M1025.46 45.4793L998.773 29.8628V61.082L1025.46 45.4793Z" fill="#BEBEBE"/>
<path d="M998.771 61.082V29.8628L972.096 45.4793L998.771 61.082Z" fill="#C2C2C2"/>
<path d="M972.092 45.4793L945.402 29.8628V61.082L972.092 45.4793Z" fill="#D3D3D3"/>
<path d="M945.404 61.082V29.8628L918.728 45.4793L945.404 61.082Z" fill="#E2E2E2"/>
<path d="M918.729 45.4795V14.2603L892.039 29.8629L918.729 45.4795Z" fill="#DBDBDB"/>
<path d="M918.729 45.4793L892.039 29.8628V61.082L918.729 45.4793Z" fill="#E2E2E2"/>
<path d="M1292.3 45.4795V14.2603L1265.61 29.8629L1292.3 45.4795Z" fill="#D6D6D6"/>
<path d="M1265.61 29.8629L1238.92 14.2603V45.4795L1265.61 29.8629Z" fill="#DEDEDE"/>
<path d="M1238.92 45.4795V14.2603L1212.25 29.8629L1238.92 45.4795Z" fill="#E0E0E0"/>
<path d="M1212.24 29.8629L1185.55 14.2603V45.4795L1212.24 29.8629Z" fill="#D7D7D7"/>
<path d="M1185.56 45.4795V14.2603L1158.88 29.8629L1185.56 45.4795Z" fill="#CDCDCD"/>
<path d="M1158.88 29.8629L1132.19 14.2603V45.4795L1158.88 29.8629Z" fill="#B9B9B9"/>
<path d="M1132.19 45.4795V14.2603L1105.51 29.8629L1132.19 45.4795Z" fill="#D2D2D2"/>
<path d="M1105.52 29.8629L1078.83 14.2603V45.4795L1105.52 29.8629Z" fill="#DADADA"/>
<path d="M1078.82 45.4795V14.2603L1052.15 29.8629L1078.82 45.4795Z" fill="#B9B9B9"/>
<path d="M1052.15 29.8629L1025.46 14.2603V45.4795L1052.15 29.8629Z" fill="#B6B6B6"/>
<path d="M1025.46 45.4795V14.2603L998.773 29.8629L1025.46 45.4795Z" fill="#BABABA"/>
<path d="M998.771 29.8629L972.096 14.2603V45.4795L998.771 29.8629Z" fill="#C6C6C6"/>
<path d="M972.092 45.4795V14.2603L945.402 29.8629L972.092 45.4795Z" fill="#D1D1D1"/>
<path d="M945.404 29.8629L918.728 14.2603V45.4795L945.404 29.8629Z" fill="#D7D7D7"/>
<path d="M918.729 14.2604L892.039 -1.34229V29.863L918.729 14.2604Z" fill="#D5D5D5"/>
<path d="M892.035 61.082V29.8628L865.359 45.4793L892.035 61.082Z" fill="#D2D2D2"/>
<path d="M892.035 61.0822L865.359 45.4795V76.6987L892.035 61.0822Z" fill="#DEDEDE"/>
<path d="M1292.3 14.2604L1265.61 -1.34229V29.863L1292.3 14.2604Z" fill="#D2D2D2"/>
<path d="M1265.61 29.863V-1.34229L1238.92 14.2604L1265.61 29.863Z" fill="#D2D2D2"/>
<path d="M1238.92 14.2604L1212.25 -1.34229V29.863L1238.92 14.2604Z" fill="#CDCDCD"/>
<path d="M1212.24 29.863V-1.34229L1185.55 14.2604L1212.24 29.863Z" fill="#C7C7C7"/>
<path d="M1185.56 14.2604L1158.88 -1.34229V29.863L1185.56 14.2604Z" fill="#DADADA"/>
<path d="M1158.88 29.863V-1.34229L1132.19 14.2604L1158.88 29.863Z" fill="#D3D3D3"/>
<path d="M1132.19 14.2604L1105.51 -1.34229V29.863L1132.19 14.2604Z" fill="#BABABA"/>
<path d="M1105.52 29.863V-1.34229L1078.83 14.2604L1105.52 29.863Z" fill="#C3C3C3"/>
<path d="M1078.82 14.2604L1052.15 -1.34229V29.863L1078.82 14.2604Z" fill="#BDBDBD"/>
<path d="M1052.15 29.863V-1.34229L1025.46 14.2604L1052.15 29.863Z" fill="#C1C1C1"/>
<path d="M1025.46 14.2604L998.773 -1.34229V29.863L1025.46 14.2604Z" fill="#C1C1C1"/>
<path d="M998.771 29.863V-1.34229L972.096 14.2604L998.771 29.863Z" fill="#C3C3C3"/>
<path d="M972.092 14.2604L945.402 -1.34229V29.863L972.092 14.2604Z" fill="#CDCDCD"/>
<path d="M945.404 29.863V-1.34229L918.728 14.2604L945.404 29.863Z" fill="#C9C9C9"/>
<path d="M892.035 29.863V-1.34229L865.359 14.2604L892.035 29.863Z" fill="#C3C3C3"/>
<path d="M892.035 29.8629L865.359 14.2603V45.4795L892.035 29.8629Z" fill="#CACACA"/>
<path d="M865.361 76.6987V45.4795L838.672 61.0822L865.361 76.6987Z" fill="#C9C9C9"/>
<path d="M1292.3 14.2602V-16.959L1265.61 -1.34244L1292.3 14.2602Z" fill="#D1D1D1"/>
<path d="M1265.61 -1.34244L1238.92 -16.959V14.2602L1265.61 -1.34244Z" fill="#C6C6C6"/>
<path d="M1238.92 14.2602V-16.959L1212.25 -1.34244L1238.92 14.2602Z" fill="#C7C7C7"/>
<path d="M1212.24 -1.34244L1185.55 -16.959V14.2602L1212.24 -1.34244Z" fill="#DADADA"/>
<path d="M1185.56 14.2602V-16.959L1158.88 -1.34244L1185.56 14.2602Z" fill="#D8D8D8"/>
<path d="M1158.88 -1.34244L1132.19 -16.959V14.2602L1158.88 -1.34244Z" fill="#C1C1C1"/>
<path d="M1132.19 14.2602V-16.959L1105.51 -1.34244L1132.19 14.2602Z" fill="#BABABA"/>
<path d="M1105.52 -1.34244L1078.83 -16.959V14.2602L1105.52 -1.34244Z" fill="#B9B9B9"/>
<path d="M1078.82 14.2602V-16.959L1052.15 -1.34244L1078.82 14.2602Z" fill="#C6C6C6"/>
<path d="M1052.15 -1.34244L1025.46 -16.959V14.2602L1052.15 -1.34244Z" fill="#D2D2D2"/>
<path d="M1025.46 14.2602V-16.959L998.773 -1.34244L1025.46 14.2602Z" fill="#CFCFCF"/>
<path d="M998.771 -1.34244L972.096 -16.959V14.2602L998.771 -1.34244Z" fill="#D1D1D1"/>
<path d="M972.092 14.2602V-16.959L945.402 -1.34244L972.092 14.2602Z" fill="#D1D1D1"/>
<path d="M945.404 -1.34244L918.728 -16.959V14.2602L945.404 -1.34244Z" fill="#CFCFCF"/>
<path d="M918.729 14.2602V-16.959L892.039 -1.34244L918.729 14.2602Z" fill="#CFCFCF"/>
<path d="M892.035 -1.34244L865.359 -16.959V14.2602L892.035 -1.34244Z" fill="#C7C7C7"/>
<path d="M865.361 45.4795V14.2603L838.672 29.8629L865.361 45.4795Z" fill="#CDCDCD"/>
<path d="M865.361 45.4793L838.672 29.8628V61.082L865.361 45.4793Z" fill="#CACACA"/>
<path d="M865.361 14.2602V-16.959L838.672 -1.34244L865.361 14.2602Z" fill="#D6D6D6"/>
<path d="M865.361 14.2604L838.672 -1.34229V29.863L865.361 14.2604Z" fill="#DCDCDC"/>
<path d="M838.676 61.082V29.8628L812 45.4793L838.676 61.082Z" fill="#E4E4E4"/>
<path d="M838.676 61.0822L812 45.4795V76.6987L838.676 61.0822Z" fill="#DCDCDC"/>
<path d="M838.676 29.863V-1.34229L812 14.2604L838.676 29.863Z" fill="#E0E0E0"/>
<path d="M838.676 29.8629L812 14.2603V45.4795L838.676 29.8629Z" fill="#DEDEDE"/>
<path d="M838.676 -1.34244L812 -16.959V14.2602L838.676 -1.34244Z" fill="#DBDBDB"/>
<path style="mix-blend-mode:color-dodge" d="M1536.7 230.283L829.467 230.283V-90.8073L1536.7 -90.8073V230.283Z" fill="url(#paint7_linear_430_4314)"/>
<g style="mix-blend-mode:overlay">
<path d="M1536.7 230.283L829.467 230.283V-90.8073L1536.7 -90.8073V230.283Z" fill="#334D8F"/>
</g>
<g style="mix-blend-mode:overlay">
<path d="M1536.7 230.283L829.467 230.283V-90.8073L1536.7 -90.8073V230.283Z" fill="#000B70"/>
</g>
<path style="mix-blend-mode:color-dodge" d="M1536.7 230.283L829.467 230.283V-90.8073L1536.7 -90.8073V230.283Z" fill="url(#paint8_linear_430_4314)"/>
</g>
<mask id="mask3_430_4314" style="mask-type:alpha" maskUnits="userSpaceOnUse" x="0" y="0" width="1270" height="56">
<rect width="1270" height="56" transform="matrix(-1 0 0 1 1270 0)" fill="url(#paint9_linear_430_4314)"/>
</mask>
<g mask="url(#mask3_430_4314)">
<path d="M972.977 74.082V42.8628L946.301 58.4793L972.977 74.082Z" fill="#BDBDBD"/>
<path d="M946.303 58.4793L919.613 42.8628V74.082L946.303 58.4793Z" fill="#D1D1D1"/>
<path d="M919.609 74.082V42.8628L892.92 58.4793L919.609 74.082Z" fill="#D1D1D1"/>
<path d="M892.922 58.4793L866.246 42.8628V74.082L892.922 58.4793Z" fill="#D1D1D1"/>
<path d="M866.244 74.082V42.8628L839.555 58.4793L866.244 74.082Z" fill="#DFDFDF"/>
<path d="M839.557 58.4793L812.881 42.8628V74.082L839.557 58.4793Z" fill="#CDCDCD"/>
<path d="M812.883 74.082V42.8628L786.193 58.4793L812.883 74.082Z" fill="#D8D8D8"/>
<path d="M786.189 58.4793L759.514 42.8628V74.082L786.189 58.4793Z" fill="#D8D8D8"/>
<path d="M759.516 74.082V42.8628L732.826 58.4793L759.516 74.082Z" fill="#D2D2D2"/>
<path d="M732.824 58.4793L706.148 42.8628V74.082L732.824 58.4793Z" fill="#BDBDBD"/>
<path d="M706.148 74.082V42.8628L679.459 58.4793L706.148 74.082Z" fill="#C1C1C1"/>
<path d="M679.463 58.4793L652.773 42.8628V74.082L679.463 58.4793Z" fill="#BEBEBE"/>
<path d="M652.771 74.082V42.8628L626.096 58.4793L652.771 74.082Z" fill="#C2C2C2"/>
<path d="M626.092 58.4793L599.402 42.8628V74.082L626.092 58.4793Z" fill="#D3D3D3"/>
<path d="M599.404 74.082V42.8628L572.728 58.4793L599.404 74.082Z" fill="#E2E2E2"/>
<path d="M572.729 58.4795V27.2603L546.039 42.8629L572.729 58.4795Z" fill="#DBDBDB"/>
<path d="M572.729 58.4793L546.039 42.8628V74.082L572.729 58.4793Z" fill="#E2E2E2"/>
<path d="M999.666 58.4793L972.976 42.8628V74.082L999.666 58.4793Z" fill="#CACACA"/>
<path d="M972.977 42.8629L946.301 27.2603V58.4795L972.977 42.8629Z" fill="#CFCFCF"/>
<path d="M946.303 58.4795V27.2603L919.613 42.8629L946.303 58.4795Z" fill="#D6D6D6"/>
<path d="M919.609 42.8629L892.92 27.2603V58.4795L919.609 42.8629Z" fill="#DEDEDE"/>
<path d="M892.922 58.4795V27.2603L866.246 42.8629L892.922 58.4795Z" fill="#E0E0E0"/>
<path d="M866.244 42.8629L839.555 27.2603V58.4795L866.244 42.8629Z" fill="#D7D7D7"/>
<path d="M839.557 58.4795V27.2603L812.881 42.8629L839.557 58.4795Z" fill="#CDCDCD"/>
<path d="M812.883 42.8629L786.193 27.2603V58.4795L812.883 42.8629Z" fill="#B9B9B9"/>
<path d="M786.189 58.4795V27.2603L759.514 42.8629L786.189 58.4795Z" fill="#D2D2D2"/>
<path d="M759.516 42.8629L732.826 27.2603V58.4795L759.516 42.8629Z" fill="#DADADA"/>
<path d="M732.824 58.4795V27.2603L706.148 42.8629L732.824 58.4795Z" fill="#B9B9B9"/>
<path d="M706.148 42.8629L679.459 27.2603V58.4795L706.148 42.8629Z" fill="#B6B6B6"/>
<path d="M679.463 58.4795V27.2603L652.773 42.8629L679.463 58.4795Z" fill="#BABABA"/>
<path d="M652.771 42.8629L626.096 27.2603V58.4795L652.771 42.8629Z" fill="#C6C6C6"/>
<path d="M626.092 58.4795V27.2603L599.402 42.8629L626.092 58.4795Z" fill="#D1D1D1"/>
<path d="M599.404 42.8629L572.728 27.2603V58.4795L599.404 42.8629Z" fill="#D7D7D7"/>
<path d="M572.729 27.2604L546.039 11.6577V42.863L572.729 27.2604Z" fill="#D5D5D5"/>
<path d="M546.035 74.082V42.8628L519.359 58.4793L546.035 74.082Z" fill="#D2D2D2"/>
<path d="M999.666 58.4795V27.2603L972.976 42.8629L999.666 58.4795Z" fill="#BABABA"/>
<path d="M999.666 27.2604L972.976 11.6577V42.863L999.666 27.2604Z" fill="#BEBEBE"/>
<path d="M972.977 42.863V11.6577L946.301 27.2604L972.977 42.863Z" fill="#CDCDCD"/>
<path d="M946.303 27.2604L919.613 11.6577V42.863L946.303 27.2604Z" fill="#D2D2D2"/>
<path d="M919.609 42.863V11.6577L892.92 27.2604L919.609 42.863Z" fill="#D2D2D2"/>
<path d="M892.922 27.2604L866.246 11.6577V42.863L892.922 27.2604Z" fill="#CDCDCD"/>
<path d="M866.244 42.863V11.6577L839.555 27.2604L866.244 42.863Z" fill="#C7C7C7"/>
<path d="M839.557 27.2604L812.881 11.6577V42.863L839.557 27.2604Z" fill="#DADADA"/>
<path d="M812.883 42.863V11.6577L786.193 27.2604L812.883 42.863Z" fill="#D3D3D3"/>
<path d="M786.189 27.2604L759.514 11.6577V42.863L786.189 27.2604Z" fill="#BABABA"/>
<path d="M759.516 42.863V11.6577L732.826 27.2604L759.516 42.863Z" fill="#C3C3C3"/>
<path d="M732.824 27.2604L706.148 11.6577V42.863L732.824 27.2604Z" fill="#BDBDBD"/>
<path d="M706.148 42.863V11.6577L679.459 27.2604L706.148 42.863Z" fill="#C1C1C1"/>
<path d="M679.463 27.2604L652.773 11.6577V42.863L679.463 27.2604Z" fill="#C1C1C1"/>
<path d="M652.771 42.863V11.6577L626.096 27.2604L652.771 42.863Z" fill="#C3C3C3"/>
<path d="M626.092 27.2604L599.402 11.6577V42.863L626.092 27.2604Z" fill="#CDCDCD"/>
<path d="M599.404 42.863V11.6577L572.728 27.2604L599.404 42.863Z" fill="#C9C9C9"/>
<path d="M546.035 42.863V11.6577L519.359 27.2604L546.035 42.863Z" fill="#C3C3C3"/>
<path d="M546.035 42.8629L519.359 27.2603V58.4795L546.035 42.8629Z" fill="#CACACA"/>
<path d="M1026.34 74.082V42.8628L999.666 58.4793L1026.34 74.082Z" fill="#C6C6C6"/>
<path d="M1026.34 42.8629L999.666 27.2603V58.4795L1026.34 42.8629Z" fill="#C2C2C2"/>
<path d="M999.666 27.2602V-3.95898L972.976 11.6576L999.666 27.2602Z" fill="#BABABA"/>
<path d="M972.977 11.6576L946.301 -3.95898V27.2602L972.977 11.6576Z" fill="#DFDFDF"/>
<path d="M946.303 27.2602V-3.95898L919.613 11.6576L946.303 27.2602Z" fill="#D1D1D1"/>
<path d="M919.609 11.6576L892.92 -3.95898V27.2602L919.609 11.6576Z" fill="#C6C6C6"/>
<path d="M892.922 27.2602V-3.95898L866.246 11.6576L892.922 27.2602Z" fill="#C7C7C7"/>
<path d="M866.244 11.6576L839.555 -3.95898V27.2602L866.244 11.6576Z" fill="#DADADA"/>
<path d="M839.557 27.2602V-3.95898L812.881 11.6576L839.557 27.2602Z" fill="#D8D8D8"/>
<path d="M812.883 11.6576L786.193 -3.95898V27.2602L812.883 11.6576Z" fill="#C1C1C1"/>
<path d="M786.189 27.2602V-3.95898L759.514 11.6576L786.189 27.2602Z" fill="#BABABA"/>
<path d="M759.516 11.6576L732.826 -3.95898V27.2602L759.516 11.6576Z" fill="#B9B9B9"/>
<path d="M732.824 27.2602V-3.95898L706.148 11.6576L732.824 27.2602Z" fill="#C6C6C6"/>
<path d="M706.148 11.6576L679.459 -3.95898V27.2602L706.148 11.6576Z" fill="#D2D2D2"/>
<path d="M679.463 27.2602V-3.95898L652.773 11.6576L679.463 27.2602Z" fill="#CFCFCF"/>
<path d="M652.771 11.6576L626.096 -3.95898V27.2602L652.771 11.6576Z" fill="#D1D1D1"/>
<path d="M626.092 27.2602V-3.95898L599.402 11.6576L626.092 27.2602Z" fill="#D1D1D1"/>
<path d="M599.404 11.6576L572.728 -3.95898V27.2602L599.404 11.6576Z" fill="#CFCFCF"/>
<path d="M572.729 27.2602V-3.95898L546.039 11.6576L572.729 27.2602Z" fill="#CFCFCF"/>
<path d="M546.035 11.6577V-19.5615L519.359 -3.95885L546.035 11.6577Z" fill="#C6C6C6"/>
<path d="M546.035 11.6576L519.359 -3.95898V27.2602L546.035 11.6576Z" fill="#C7C7C7"/>
<path d="M519.361 58.4795V27.2603L492.672 42.8629L519.361 58.4795Z" fill="#CDCDCD"/>
<path d="M519.361 58.4793L492.672 42.8628V74.082L519.361 58.4793Z" fill="#CACACA"/>
<path d="M1053.03 58.4793L1026.34 42.8628V74.082L1053.03 58.4793Z" fill="#C6C6C6"/>
<path d="M1026.34 42.863V11.6577L999.666 27.2604L1026.34 42.863Z" fill="#BEBEBE"/>
<path d="M1026.34 11.6576L999.666 -3.95898V27.2602L1026.34 11.6576Z" fill="#CACACA"/>
<path d="M999.666 -3.95885L972.976 -19.5615V11.6577L999.666 -3.95885Z" fill="#E0E0E0"/>
<path d="M972.977 11.6577V-19.5615L946.301 -3.95885L972.977 11.6577Z" fill="#DEDEDE"/>
<path d="M946.303 -3.95885L919.613 -19.5615V11.6577L946.303 -3.95885Z" fill="#D5D5D5"/>
<path d="M919.609 11.6577V-19.5615L892.92 -3.95885L919.609 11.6577Z" fill="#CECECE"/>
<path d="M892.922 -3.95885L866.246 -19.5615V11.6577L892.922 -3.95885Z" fill="#E4E4E4"/>
<path d="M866.244 11.6577V-19.5615L839.555 -3.95885L866.244 11.6577Z" fill="#EFEFEF"/>
<path d="M839.557 -3.95885L812.881 -19.5615V11.6577L839.557 -3.95885Z" fill="#D1D1D1"/>
<path d="M812.883 11.6577V-19.5615L786.193 -3.95885L812.883 11.6577Z" fill="#BABABA"/>
<path d="M786.189 -3.95885L759.514 -19.5615V11.6577L786.189 -3.95885Z" fill="#B2B2B2"/>
<path d="M759.516 11.6577V-19.5615L732.826 -3.95885L759.516 11.6577Z" fill="#C2C2C2"/>
<path d="M732.824 -3.95885L706.148 -19.5615V11.6577L732.824 -3.95885Z" fill="#D5D5D5"/>
<path d="M706.148 11.6577V-19.5615L679.459 -3.95885L706.148 11.6577Z" fill="#D5D5D5"/>
<path d="M679.463 -3.95885L652.773 -19.5615V11.6577L679.463 -3.95885Z" fill="#D8D8D8"/>
<path d="M652.771 11.6577V-19.5615L626.096 -3.95885L652.771 11.6577Z" fill="#D7D7D7"/>
<path d="M626.092 -3.95885L599.402 -19.5615V11.6577L626.092 -3.95885Z" fill="#D1D1D1"/>
<path d="M599.404 11.6577V-19.5615L572.728 -3.95885L599.404 11.6577Z" fill="#CDCDCD"/>
<path d="M572.729 -3.95885L546.039 -19.5615V11.6577L572.729 -3.95885Z" fill="#C2C2C2"/>
<path d="M519.361 27.2602V-3.95898L492.672 11.6576L519.361 27.2602Z" fill="#D6D6D6"/>
<path d="M519.361 27.2604L492.672 11.6577V42.863L519.361 27.2604Z" fill="#DCDCDC"/>
<path d="M492.676 74.082V42.8628L466 58.4793L492.676 74.082Z" fill="#E4E4E4"/>
<path d="M1053.03 58.4795V27.2603L1026.34 42.8629L1053.03 58.4795Z" fill="#CACACA"/>
<path d="M1053.03 27.2604L1026.34 11.6577V42.863L1053.03 27.2604Z" fill="#C2C2C2"/>
<path d="M1026.34 11.6577V-19.5615L999.666 -3.95885L1026.34 11.6577Z" fill="#EAEAEA"/>
<path d="M519.361 -3.95885L492.672 -19.5615V11.6577L519.361 -3.95885Z" fill="#D5D5D5"/>
<path d="M492.676 42.863V11.6577L466 27.2604L492.676 42.863Z" fill="#E0E0E0"/>
<path d="M492.676 42.8629L466 27.2603V58.4795L492.676 42.8629Z" fill="#DEDEDE"/>
<path d="M1079.71 74.082V42.8628L1053.03 58.4793L1079.71 74.082Z" fill="#A5A5A5"/>
<path d="M1079.71 42.8629L1053.03 27.2603V58.4795L1079.71 42.8629Z" fill="#CDCDCD"/>
<path d="M1053.03 27.2602V-3.95898L1026.34 11.6576L1053.03 27.2602Z" fill="#D6D6D6"/>
<path d="M1053.03 -3.95885L1026.34 -19.5615V11.6577L1053.03 -3.95885Z" fill="#EAEAEA"/>
<path d="M492.676 11.6577V-19.5615L466 -3.95885L492.676 11.6577Z" fill="#D5D5D5"/>
<path d="M492.676 11.6576L466 -3.95898V27.2602L492.676 11.6576Z" fill="#DBDBDB"/>
<path d="M1106.4 58.4793L1079.71 42.8628V74.082L1106.4 58.4793Z" fill="#9E9E9E"/>
<path d="M1079.71 42.863V11.6577L1053.03 27.2604L1079.71 42.863Z" fill="#D7D7D7"/>
<path d="M1079.71 11.6576L1053.03 -3.95898V27.2602L1079.71 11.6576Z" fill="#E6E6E6"/>
<path d="M1106.4 58.4795V27.2603L1079.71 42.8629L1106.4 58.4795Z" fill="#AFAFAF"/>
<path d="M1106.4 27.2604L1079.71 11.6577V42.863L1106.4 27.2604Z" fill="#BDBDBD"/>
<path d="M1079.71 11.6577V-19.5615L1053.03 -3.95885L1079.71 11.6577Z" fill="#EBEBEB"/>
<path d="M1133.07 74.082V42.8628L1106.4 58.4793L1133.07 74.082Z" fill="#B2B2B2"/>
<path d="M1133.07 42.8629L1106.4 27.2603V58.4795L1133.07 42.8629Z" fill="#B5B5B5"/>
<path d="M1106.4 27.2602V-3.95898L1079.71 11.6576L1106.4 27.2602Z" fill="#D3D3D3"/>
<path d="M1106.4 -3.95885L1079.71 -19.5615V11.6577L1106.4 -3.95885Z" fill="#EFEFEF"/>
<path d="M1159.76 58.4793L1133.07 42.8628V74.082L1159.76 58.4793Z" fill="#BABABA"/>
<path d="M1133.07 42.863V11.6577L1106.4 27.2604L1133.07 42.863Z" fill="#B9B9B9"/>
<path d="M1133.07 11.6576L1106.4 -3.95898V27.2602L1133.07 11.6576Z" fill="#ADADAD"/>
<path d="M1159.76 58.4795V27.2603L1133.07 42.8629L1159.76 58.4795Z" fill="#B9B9B9"/>
<path d="M1159.76 27.2604L1133.07 11.6577V42.863L1159.76 27.2604Z" fill="#B5B5B5"/>
<path d="M1133.07 11.6577V-19.5615L1106.4 -3.95885L1133.07 11.6577Z" fill="#B5B5B5"/>
<path d="M1186.45 74.082V42.8628L1159.76 58.4793L1186.45 74.082Z" fill="#B6B6B6"/>
<path d="M1186.45 42.8629L1159.76 27.2603V58.4795L1186.45 42.8629Z" fill="#B6B6B6"/>
<path d="M1159.76 27.2602V-3.95898L1133.07 11.6576L1159.76 27.2602Z" fill="#B9B9B9"/>
<path d="M1159.76 -3.95885L1133.07 -19.5615V11.6577L1159.76 -3.95885Z" fill="#BDBDBD"/>
<path d="M1186.45 42.863V11.6577L1159.76 27.2604L1186.45 42.863Z" fill="#AFAFAF"/>
<path d="M1186.45 11.6576L1159.76 -3.95898V27.2602L1186.45 11.6576Z" fill="#AFAFAF"/>
<path d="M1186.45 11.6577V-19.5615L1159.76 -3.95885L1186.45 11.6577Z" fill="#9E9E9E"/>
<path style="mix-blend-mode:color-dodge" d="M1190.7 243.283L483.467 243.283L483.467 -77.8073L1190.7 -77.8073V243.283Z" fill="url(#paint10_linear_430_4314)"/>
<g style="mix-blend-mode:overlay">
<path d="M1190.7 243.283L483.467 243.283L483.467 -77.8073L1190.7 -77.8073V243.283Z" fill="#334D8F"/>
</g>
<g style="mix-blend-mode:overlay">
<path d="M1190.7 243.283L483.467 243.283L483.467 -77.8073L1190.7 -77.8073V243.283Z" fill="#000B70"/>
</g>
<path style="mix-blend-mode:color-dodge" d="M1190.7 243.283L483.467 243.283L483.467 -77.8073L1190.7 -77.8073V243.283Z" fill="url(#paint11_linear_430_4314)"/>
</g>
</g>
<mask id="mask4_430_4314" style="mask-type:alpha" maskUnits="userSpaceOnUse" x="0" y="0" width="1270" height="56">
<rect width="1270" height="56" transform="matrix(-1 0 0 1 1270 0)" fill="url(#paint12_linear_430_4314)"/>
</mask>
<g mask="url(#mask4_430_4314)">
</g>
<defs>
<linearGradient id="paint0_linear_430_4314" x1="102" y1="28" x2="420.147" y2="28" gradientUnits="userSpaceOnUse">
<stop/>
<stop offset="1" stop-opacity="0"/>
</linearGradient>
<linearGradient id="paint1_linear_430_4314" x1="208.739" y1="76.0602" x2="706.672" y2="65.0417" gradientUnits="userSpaceOnUse">
<stop/>
<stop offset="0.214821" stop-color="#070707"/>
<stop offset="0.415401" stop-color="#1B1B1B"/>
<stop offset="0.56" stop-color="#3C3C3C"/>
<stop offset="0.83" stop-color="#6A6A6A"/>
<stop offset="1" stop-color="#8C8C8C"/>
</linearGradient>
<linearGradient id="paint2_linear_430_4314" x1="-31.5579" y1="-63.5015" x2="405.458" y2="223.325" gradientUnits="userSpaceOnUse">
<stop/>
<stop offset="0.13" stop-color="#070707"/>
<stop offset="0.33" stop-color="#1B1B1B"/>
<stop offset="0.56" stop-color="#3C3C3C"/>
<stop offset="0.83" stop-color="#6A6A6A"/>
<stop offset="1" stop-color="#8C8C8C"/>
</linearGradient>
<linearGradient id="paint3_linear_430_4314" x1="0" y1="28" x2="687" y2="28" gradientUnits="userSpaceOnUse">
<stop stop-opacity="0"/>
<stop offset="0.484375" stop-opacity="0.515625"/>
<stop offset="1" stop-opacity="0"/>
</linearGradient>
<linearGradient id="paint4_linear_430_4314" x1="459.739" y1="76.0602" x2="957.672" y2="65.0417" gradientUnits="userSpaceOnUse">
<stop/>
<stop offset="0.214821" stop-color="#070707"/>
<stop offset="0.415401" stop-color="#1B1B1B"/>
<stop offset="0.56" stop-color="#3C3C3C"/>
<stop offset="0.83" stop-color="#6A6A6A"/>
<stop offset="1" stop-color="#8C8C8C"/>
</linearGradient>
<linearGradient id="paint5_linear_430_4314" x1="219.442" y1="-63.5015" x2="656.458" y2="223.325" gradientUnits="userSpaceOnUse">
<stop/>
<stop offset="0.13" stop-color="#070707"/>
<stop offset="0.33" stop-color="#1B1B1B"/>
<stop offset="0.56" stop-color="#3C3C3C"/>
<stop offset="0.83" stop-color="#6A6A6A"/>
<stop offset="1" stop-color="#8C8C8C"/>
</linearGradient>
<linearGradient id="paint6_linear_430_4314" x1="81.5" y1="28" x2="363.5" y2="28" gradientUnits="userSpaceOnUse">
<stop/>
<stop offset="1" stop-opacity="0"/>
</linearGradient>
<linearGradient id="paint7_linear_430_4314" x1="1140.49" y1="79.447" x2="716.892" y2="70.0734" gradientUnits="userSpaceOnUse">
<stop/>
<stop offset="0.214821" stop-color="#070707"/>
<stop offset="0.415401" stop-color="#1B1B1B"/>
<stop offset="0.56" stop-color="#3C3C3C"/>
<stop offset="0.83" stop-color="#6A6A6A"/>
<stop offset="1" stop-color="#8C8C8C"/>
</linearGradient>
<linearGradient id="paint8_linear_430_4314" x1="1344.91" y1="-39.2797" x2="973.138" y2="204.727" gradientUnits="userSpaceOnUse">
<stop/>
<stop offset="0.13" stop-color="#070707"/>
<stop offset="0.33" stop-color="#1B1B1B"/>
<stop offset="0.56" stop-color="#3C3C3C"/>
<stop offset="0.83" stop-color="#6A6A6A"/>
<stop offset="1" stop-color="#8C8C8C"/>
</linearGradient>
<linearGradient id="paint9_linear_430_4314" x1="136.215" y1="28" x2="656.033" y2="28" gradientUnits="userSpaceOnUse">
<stop stop-opacity="0"/>
<stop offset="0.473958" stop-opacity="0.6"/>
<stop offset="1" stop-opacity="0"/>
</linearGradient>
<linearGradient id="paint10_linear_430_4314" x1="794.489" y1="92.447" x2="370.892" y2="83.0734" gradientUnits="userSpaceOnUse">
<stop/>
<stop offset="0.214821" stop-color="#070707"/>
<stop offset="0.415401" stop-color="#1B1B1B"/>
<stop offset="0.56" stop-color="#3C3C3C"/>
<stop offset="0.83" stop-color="#6A6A6A"/>
<stop offset="1" stop-color="#8C8C8C"/>
</linearGradient>
<linearGradient id="paint11_linear_430_4314" x1="998.912" y1="-26.2797" x2="627.138" y2="217.727" gradientUnits="userSpaceOnUse">
<stop/>
<stop offset="0.13" stop-color="#070707"/>
<stop offset="0.33" stop-color="#1B1B1B"/>
<stop offset="0.56" stop-color="#3C3C3C"/>
<stop offset="0.83" stop-color="#6A6A6A"/>
<stop offset="1" stop-color="#8C8C8C"/>
</linearGradient>
<linearGradient id="paint12_linear_430_4314" x1="881.889" y1="28.0003" x2="371.084" y2="28.0003" gradientUnits="userSpaceOnUse">
<stop stop-opacity="0"/>
<stop offset="0.510417"/>
<stop offset="1" stop-opacity="0"/>
</linearGradient>
</defs>
</svg>
