<svg width="68" height="215" viewBox="0 0 68 215" fill="none" xmlns="http://www.w3.org/2000/svg">
<path d="M66.3346 0.965515H1.07422V29.6881H26.0068L33.7044 36.3926L41.4021 29.6881H66.3346V0.965515Z" fill="white" stroke="#005CAF" stroke-width="1.5" stroke-miterlimit="10"/>
<path d="M7.41822 11.3053V17.9693H8.46822V12.3413H17.6102V17.8993H18.7022V11.3053H7.41822ZM7.97822 16.0653V17.0873H18.2402V16.0653H7.97822ZM12.4862 8.79926V21.6653H13.5782V8.79926H12.4862ZM26.2202 10.6753V11.5433H28.8802V10.6753H26.2202ZM26.5002 17.9973V18.8373H32.1282V17.9973H26.5002ZM26.4722 20.2513V21.1333H32.2962V20.2513H26.4722ZM25.7302 8.98126V14.1473H26.6822V8.98126H25.7302ZM24.8202 14.0073L25.1142 14.8893C26.2482 14.6233 27.6902 14.2453 29.0762 13.8953L28.9922 13.0693C27.4662 13.4333 25.8982 13.7973 24.8202 14.0073ZM29.4682 8.98126V13.3633C29.4682 14.3993 29.7202 14.6793 30.7702 14.6793C30.9942 14.6793 32.1422 14.6793 32.3662 14.6793C33.2062 14.6793 33.4722 14.2873 33.5842 12.8313C33.3042 12.7613 32.9122 12.6073 32.7022 12.4393C32.6742 13.6013 32.6042 13.7693 32.2542 13.7693C32.0302 13.7693 31.0782 13.7693 30.8962 13.7693C30.5042 13.7693 30.4342 13.7133 30.4342 13.3633V8.98126H29.4682ZM32.5482 9.84926C31.9322 10.3393 30.8262 10.8993 29.8462 11.3053C29.9582 11.5013 30.1122 11.7953 30.1542 11.9913C31.2042 11.6133 32.4082 11.1093 33.2762 10.5493L32.5482 9.84926ZM28.5302 14.3573C28.4182 14.8753 28.1522 15.6593 27.9422 16.1493L28.8522 16.3593C29.0762 15.9113 29.3282 15.2393 29.5802 14.5813L28.5302 14.3573ZM25.9822 15.7853V21.6513H26.9622V16.6813H31.7782V21.6093H32.7862V15.7853H25.9822ZM21.2222 9.40126V21.6793H22.1742V10.3533H24.3722V9.40126H21.2222ZM24.0502 9.40126V9.69526C23.7842 10.6473 23.2942 12.3133 22.8322 13.6013C23.7702 14.6933 23.9942 15.6453 24.0082 16.3873C24.0082 16.8213 23.9242 17.2133 23.7282 17.3673C23.6302 17.4373 23.4762 17.4793 23.3082 17.4793C23.1122 17.4933 22.8602 17.4793 22.5802 17.4653C22.7202 17.7313 22.8182 18.1373 22.8322 18.3893C23.1262 18.4033 23.4482 18.3893 23.7002 18.3613C23.9802 18.3193 24.2182 18.2493 24.4002 18.1233C24.7782 17.8433 24.9462 17.2413 24.9322 16.4993C24.9322 15.6453 24.7222 14.6513 23.7702 13.4753C24.2042 12.3413 24.6942 10.9133 25.0722 9.76526L24.3722 9.35926L24.2322 9.40126H24.0502ZM35.5022 11.5993V12.6353H46.6322V11.5993H35.5022ZM36.1462 15.7153V16.7373H46.0442V15.7153H36.1462ZM34.8582 20.1813V21.2173H47.3322V20.1813H34.8582ZM40.5002 12.4253V20.7133H41.6342V12.4253H40.5002ZM39.2962 9.44326C40.2202 10.1293 41.3262 11.1233 41.8302 11.7813L42.7402 11.1233C42.1942 10.4513 41.0602 9.49926 40.1502 8.85526L39.2962 9.44326ZM51.8542 20.4053V21.2173H59.2602V20.4053H51.8542ZM54.5282 11.6413V13.1953H55.5502V11.6413H54.5282ZM49.2082 12.7333V15.3653H50.2162V13.5733H60.0022V15.3653H61.0382V12.7333H49.2082ZM51.7982 14.4413V15.2393H57.9442V16.4433H51.7982V17.2553H58.9802V14.4413H51.7982ZM51.8402 18.2213V19.0473H58.8402V21.6653H59.8762V18.2213H51.8402ZM51.2382 14.4413V21.6933H52.2462V14.4413H51.2382ZM50.3562 9.87726V10.7453H54.8782V9.87726H50.3562ZM55.8162 9.87726V10.7453H61.4722V9.87726H55.8162ZM50.6222 8.74326C50.1882 9.83526 49.4322 10.9413 48.5922 11.6693C48.8442 11.7953 49.2642 12.0893 49.4602 12.2433C50.2722 11.4453 51.0982 10.2273 51.6162 8.99526L50.6222 8.74326ZM56.1382 8.74326C55.6902 9.82126 54.8782 10.8573 53.9542 11.5293C54.2202 11.6553 54.6542 11.9073 54.8642 12.0613C55.7462 11.3333 56.6282 10.1993 57.1322 8.98126L56.1382 8.74326ZM51.1402 10.5353C51.4622 11.0533 51.7982 11.7533 51.9242 12.1873L52.8762 11.9073C52.7362 11.4733 52.3722 10.7873 52.0502 10.2973L51.1402 10.5353ZM57.0762 10.5493C57.5242 11.0533 58.0002 11.7673 58.1962 12.2153L59.1482 11.9073C58.9382 11.4453 58.4342 10.7593 58.0002 10.2693L57.0762 10.5493Z" fill="black"/>
<rect width="66" height="67" transform="translate(0.333984 146.822)" fill="url(#paint0_linear_203_4249)"/>
<path d="M19.382 168.71H20.854V170.246H19.382V168.71ZM18.47 167.878V171.094H21.798V167.878H18.47ZM23.462 168.71H24.982V170.246H23.462V168.71ZM22.55 167.878V171.094H25.926V167.878H22.55ZM25.974 172.214L26.118 173.334L32.774 172.486L32.63 171.398L25.974 172.214ZM29.622 168.166C30.358 168.998 31.158 170.15 31.478 170.918L32.454 170.342C32.118 169.59 31.286 168.47 30.534 167.67L29.622 168.166ZM19.638 175.11H24.726V176.454H19.638V175.11ZM19.638 172.886H24.726V174.214H19.638V172.886ZM18.598 171.942V177.398H25.782V171.942H18.598ZM17.942 178.534V179.622H26.294V178.534H17.942ZM21.622 172.278V176.998H21.558V182.118H22.726V176.998H22.662V172.278H21.622ZM27.51 167.494C27.798 175.702 28.678 182.038 31.398 182.15C32.054 182.182 32.662 181.462 32.982 178.918C32.774 178.806 32.294 178.518 32.07 178.278C31.958 179.878 31.718 180.758 31.398 180.742C29.814 180.646 28.822 174.63 28.646 167.494H27.51ZM31.254 173.366C30.214 176.63 27.894 179.75 25.03 181.11C25.334 181.334 25.702 181.686 25.91 181.974C28.726 180.454 31.062 177.238 32.182 173.894L31.254 173.366ZM35.19 168.326V169.382H38.902V177.718H35.19V178.774H39.846V168.326H35.19ZM34.55 168.326V180.214H35.494V168.326H34.55ZM35.094 172.87V173.894H39.398V172.87H35.094ZM41.75 180.422V181.478H47.27V180.422H41.75ZM42.486 169.094V170.118H47.062V169.094H42.486ZM36.758 168.87V178.23H37.574V168.87H36.758ZM41.03 176.246V182.038H42.166V177.318H46.614V182.006H47.798V176.246H41.03ZM46.79 169.094V169.318C45.574 172.374 42.47 174.918 39.574 176.006C39.814 176.23 40.118 176.662 40.278 176.95C43.366 175.654 46.566 173.046 47.99 169.43L47.206 169.03L46.982 169.094H46.79ZM43.078 167.334C42.342 169.174 41.03 170.902 39.558 172.006C39.83 172.198 40.278 172.614 40.47 172.822C41.942 171.606 43.366 169.702 44.23 167.638L43.078 167.334ZM42.47 169.926L41.638 170.518C42.742 172.742 45.11 175.446 48.31 176.758C48.486 176.454 48.838 175.99 49.078 175.766C45.878 174.598 43.51 172.054 42.47 169.926ZM18.294 191.846V192.998H32.39V191.846H18.294ZM25.478 193.782V204.118H26.694V193.782H25.478ZM20.886 195.926V202.614H22.07V197.078H30.822V195.926H20.886ZM30.294 195.926V201.094C30.294 201.302 30.214 201.366 29.942 201.382C29.686 201.398 28.758 201.398 27.734 201.366C27.91 201.686 28.086 202.134 28.15 202.454C29.51 202.47 30.358 202.454 30.854 202.278C31.366 202.086 31.51 201.734 31.51 201.11V195.926H30.294ZM23.718 189.382C22.774 192.758 20.838 196.358 17.814 198.422C18.054 198.678 18.374 199.158 18.534 199.446C21.798 197.158 23.798 193.398 24.95 189.67L23.718 189.382ZM36.486 190.23V191.27H45.622V193.302H36.486V194.342H46.822V190.23H36.486ZM35.766 190.23V194.054C35.766 196.646 35.59 200.326 33.766 202.934C34.038 203.062 34.55 203.462 34.742 203.702C36.662 200.934 36.95 196.822 36.95 194.054V190.23H35.766ZM36.502 195.734V196.806H47.126V195.734H36.502ZM38.902 198.054V199.062H43.238V201.206H38.902V202.198H44.374V198.054H38.902ZM38.262 198.054V203.142H39.366V198.054H38.262ZM46.726 195.734V195.958C46.566 200.678 46.342 202.39 45.99 202.79C45.846 202.966 45.686 203.014 45.382 203.014C45.094 203.014 44.31 202.998 43.446 202.918C43.638 203.238 43.766 203.718 43.798 204.054C44.646 204.102 45.478 204.102 45.942 204.07C46.422 204.022 46.742 203.91 47.03 203.542C47.526 202.966 47.702 201.19 47.926 196.278C47.926 196.118 47.926 195.734 47.926 195.734H46.726Z" fill="black"/>
<path d="M0.333984 213.822H66.334" stroke="url(#paint1_linear_203_4249)" stroke-width="1.21108" stroke-miterlimit="10"/>
<path d="M9.33398 73.7026V146.597L33.4345 160.501L57.5229 146.597V73.7026L33.4345 59.7994L9.33398 73.7026Z" fill="url(#paint2_linear_203_4249)"/>
<path d="M57.5229 73.7026L33.4345 87.6179L9.33398 73.7026L33.4345 59.7994L57.5229 73.7026Z" fill="url(#paint3_linear_203_4249)"/>
<path opacity="0.08" d="M57.5229 146.597L33.4345 160.501L9.33398 146.597L33.4345 132.682L57.5229 146.597Z" fill="url(#paint4_linear_203_4249)"/>
<path opacity="0.27" d="M57.5239 73.7026V146.598L33.4355 160.501V87.618L57.5239 73.7026Z" fill="url(#paint5_linear_203_4249)"/>
<path d="M9.33398 64.2763V67.1757L33.4236 81.078L57.5132 67.1757V64.2763L33.4236 50.3741L9.33398 64.2763Z" fill="url(#paint6_linear_203_4249)"/>
<path d="M57.5101 64.2763L33.4205 78.1911L9.33398 64.2763L33.4236 50.3741L57.5132 64.2763H57.5101Z" fill="url(#paint7_linear_203_4249)"/>
<g clip-path="url(#clip0_203_4249)">
<path d="M25.4199 65.1728C25.4199 63.7873 26.5431 62.6642 27.9286 62.6642H39.2177C40.6032 62.6642 41.7263 63.7873 41.7263 65.1728H25.4199Z" stroke="#005CAF" stroke-width="1.25926" stroke-miterlimit="10"/>
<path d="M27.9297 62.6641V60.1554H39.2188V62.6641" stroke="#005CAF" stroke-width="1.25926" stroke-miterlimit="10"/>
<path d="M36.0822 52.5458H31.0649C30.3721 52.5458 29.8105 53.1074 29.8105 53.8001C29.8105 54.4929 30.3721 55.0545 31.0649 55.0545H36.0822C36.775 55.0545 37.3366 54.4929 37.3366 53.8001C37.3366 53.1074 36.775 52.5458 36.0822 52.5458Z" stroke="#005CAF" stroke-width="1.25926" stroke-miterlimit="10"/>
<path d="M33.5736 52.5458C35.6518 52.5458 37.3366 50.861 37.3366 48.7828C37.3366 46.7045 35.6518 45.0197 33.5736 45.0197C31.4953 45.0197 29.8105 46.7045 29.8105 48.7828C29.8105 50.861 31.4953 52.5458 33.5736 52.5458Z" stroke="#005CAF" stroke-width="1.25926" stroke-miterlimit="10"/>
<path d="M31.0649 55.0544L29.8105 60.1554" stroke="#005CAF" stroke-width="1.25926" stroke-miterlimit="10"/>
<path d="M36.082 55.0544L37.3364 60.1554" stroke="#005CAF" stroke-width="1.25926" stroke-miterlimit="10"/>
</g>
<defs>
<linearGradient id="paint0_linear_203_4249" x1="33" y1="0" x2="33" y2="67" gradientUnits="userSpaceOnUse">
<stop stop-color="#E8E8E8"/>
<stop offset="1" stop-color="white" stop-opacity="0"/>
</linearGradient>
<linearGradient id="paint1_linear_203_4249" x1="37.936" y1="214.822" x2="37.936" y2="213.207" gradientUnits="userSpaceOnUse">
<stop stop-color="#1F5099"/>
<stop offset="1" stop-color="#3B72C4"/>
</linearGradient>
<linearGradient id="paint2_linear_203_4249" x1="36.7885" y1="160.501" x2="36.7884" y2="-2.19589" gradientUnits="userSpaceOnUse">
<stop stop-color="#1F5099"/>
<stop offset="1" stop-color="#3B72C4"/>
</linearGradient>
<linearGradient id="paint3_linear_203_4249" x1="23.3762" y1="65.4793" x2="43.7516" y2="81.2239" gradientUnits="userSpaceOnUse">
<stop stop-color="#1F5099"/>
<stop offset="1" stop-color="#3B72C4"/>
</linearGradient>
<linearGradient id="paint4_linear_203_4249" x1="33.4345" y1="35.5777" x2="33.4345" y2="35.5777" gradientUnits="userSpaceOnUse">
<stop stop-color="#4918D1"/>
<stop offset="0.19" stop-color="#493ADE"/>
<stop offset="0.42" stop-color="#495DEC"/>
<stop offset="0.64" stop-color="#4976F6"/>
<stop offset="0.84" stop-color="#4985FC"/>
<stop offset="1" stop-color="#4A8BFF"/>
</linearGradient>
<linearGradient id="paint5_linear_203_4249" x1="57.5125" y1="104.378" x2="33.4324" y2="117.079" gradientUnits="userSpaceOnUse">
<stop stop-color="#1F5099"/>
<stop offset="1" stop-color="#3B72C4"/>
</linearGradient>
<linearGradient id="paint6_linear_203_4249" x1="33.4236" y1="81.078" x2="33.4236" y2="31.4695" gradientUnits="userSpaceOnUse">
<stop offset="0.36" stop-color="#E9F2FF"/>
<stop offset="1" stop-color="white" stop-opacity="0"/>
</linearGradient>
<linearGradient id="paint7_linear_203_4249" x1="33.5747" y1="41.087" x2="33.5747" y2="111.92" gradientUnits="userSpaceOnUse">
<stop stop-color="white"/>
<stop offset="1" stop-color="white" stop-opacity="0"/>
</linearGradient>
<clipPath id="clip0_203_4249">
<rect width="21.4074" height="21.4074" fill="white" transform="translate(22.8672 44.3926)"/>
</clipPath>
</defs>
</svg>
