<svg width="264" height="612" viewBox="0 0 264 612" fill="none" xmlns="http://www.w3.org/2000/svg">
<rect x="0.0898438" y="473" width="263" height="122" fill="url(#paint0_linear_118_356)"/>
<path d="M87.1618 539.625H89.3698V541.929H87.1618V539.625ZM85.7938 538.377V543.201H90.7858V538.377H85.7938ZM93.2818 539.625H95.5618V541.929H93.2818V539.625ZM91.9138 538.377V543.201H96.9778V538.377H91.9138ZM97.0498 544.881L97.2658 546.561L107.25 545.289L107.034 543.657L97.0498 544.881ZM102.522 538.809C103.626 540.057 104.826 541.785 105.306 542.937L106.77 542.073C106.266 540.945 105.018 539.265 103.89 538.065L102.522 538.809ZM87.5458 549.225H95.1778V551.241H87.5458V549.225ZM87.5458 545.889H95.1778V547.881H87.5458V545.889ZM85.9858 544.473V552.657H96.7618V544.473H85.9858ZM85.0018 554.361V555.993H97.5298V554.361H85.0018ZM90.5218 544.977V552.057H90.4258V559.737H92.1778V552.057H92.0818V544.977H90.5218ZM99.3538 537.801C99.7858 550.113 101.106 559.617 105.186 559.785C106.17 559.833 107.082 558.753 107.562 554.937C107.25 554.769 106.53 554.337 106.194 553.977C106.026 556.377 105.666 557.697 105.186 557.673C102.81 557.529 101.322 548.505 101.058 537.801H99.3538ZM104.97 546.609C103.41 551.505 99.9298 556.185 95.6338 558.225C96.0898 558.561 96.6418 559.089 96.9538 559.521C101.178 557.241 104.682 552.417 106.362 547.401L104.97 546.609ZM110.874 539.049V540.633H116.442V553.137H110.874V554.721H117.858V539.049H110.874ZM109.914 539.049V556.881H111.33V539.049H109.914ZM110.73 545.865V547.401H117.186V545.865H110.73ZM120.714 557.193V558.777H128.994V557.193H120.714ZM121.818 540.201V541.737H128.682V540.201H121.818ZM113.226 539.865V553.905H114.45V539.865H113.226ZM119.634 550.929V559.617H121.338V552.537H128.01V559.569H129.786V550.929H119.634ZM128.274 540.201V540.537C126.45 545.121 121.794 548.937 117.45 550.569C117.81 550.905 118.266 551.553 118.506 551.985C123.138 550.041 127.938 546.129 130.074 540.705L128.898 540.105L128.562 540.201H128.274ZM122.706 537.561C121.602 540.321 119.634 542.913 117.426 544.569C117.834 544.857 118.506 545.481 118.794 545.793C121.002 543.969 123.138 541.113 124.434 538.017L122.706 537.561ZM121.794 541.449L120.546 542.337C122.202 545.673 125.754 549.729 130.554 551.697C130.818 551.241 131.346 550.545 131.706 550.209C126.906 548.457 123.354 544.641 121.794 541.449ZM133.53 541.329V543.057H154.674V541.329H133.53ZM144.306 544.233V559.737H146.13V544.233H144.306ZM137.418 547.449V557.481H139.194V549.177H152.322V547.449H137.418ZM151.53 547.449V555.201C151.53 555.513 151.41 555.609 151.002 555.633C150.618 555.657 149.226 555.657 147.69 555.609C147.954 556.089 148.218 556.761 148.314 557.241C150.354 557.265 151.626 557.241 152.37 556.977C153.138 556.689 153.354 556.161 153.354 555.225V547.449H151.53ZM141.666 537.633C140.25 542.697 137.346 548.097 132.81 551.193C133.17 551.577 133.65 552.297 133.89 552.729C138.786 549.297 141.786 543.657 143.514 538.065L141.666 537.633ZM160.818 538.905V540.465H174.522V543.513H160.818V545.073H176.322V538.905H160.818ZM159.738 538.905V544.641C159.738 548.529 159.474 554.049 156.738 557.961C157.146 558.153 157.914 558.753 158.202 559.113C161.082 554.961 161.514 548.793 161.514 544.641V538.905H159.738ZM160.842 547.161V548.769H176.778V547.161H160.842ZM164.442 550.641V552.153H170.946V555.369H164.442V556.857H172.65V550.641H164.442ZM163.482 550.641V558.273H165.138V550.641H163.482ZM176.178 547.161V547.497C175.938 554.577 175.602 557.145 175.074 557.745C174.858 558.009 174.618 558.081 174.162 558.081C173.73 558.081 172.554 558.057 171.258 557.937C171.546 558.417 171.738 559.137 171.786 559.641C173.058 559.713 174.306 559.713 175.002 559.665C175.722 559.593 176.202 559.425 176.634 558.873C177.378 558.009 177.642 555.345 177.978 547.977C177.978 547.737 177.978 547.161 177.978 547.161H176.178Z" fill="black"/>
<path d="M55.0898 241.102V472.651L131.644 516.814L208.16 472.651V241.102L131.644 196.939L55.0898 241.102Z" fill="url(#paint1_linear_118_356)"/>
<path d="M208.16 241.102L131.644 285.304L55.0898 241.102L131.644 196.939L208.16 241.102Z" fill="url(#paint2_linear_118_356)"/>
<path opacity="0.08" d="M208.16 472.651L131.644 516.814L55.0898 472.651L131.644 428.449L208.16 472.651Z" fill="url(#paint3_linear_118_356)"/>
<path opacity="0.27" d="M208.161 241.103V472.651L131.645 516.814V285.304L208.161 241.103Z" fill="url(#paint4_linear_118_356)"/>
<path d="M55.0898 211.16V220.37L131.61 264.53L208.13 220.37V211.16L131.61 167L55.0898 211.16Z" fill="url(#paint5_linear_118_356)"/>
<path d="M208.12 211.16L131.6 255.36L55.0898 211.16L131.61 167L208.13 211.16H208.12Z" fill="url(#paint6_linear_118_356)"/>
<g clip-path="url(#clip0_118_356)">
<path d="M209.243 1.24922H54.3398V96.1899H106.257L131.791 118.351L157.325 96.1899H209.243V1.24922Z" fill="white" stroke="#F5F3F3" stroke-width="2.49844" stroke-miterlimit="10"/>
<path d="M195.726 15.9151H67.8555V83.9725H114.826L131.791 98.6883L148.755 83.9725H195.726V15.9151Z" fill="white" stroke="url(#paint7_linear_118_356)" stroke-width="2.49844" stroke-miterlimit="10"/>
</g>
<path d="M87.1778 42.8V54.968H90.0818V45.632H104.002V54.848H107.026V42.8H87.1778ZM88.6898 50.792V53.624H105.682V50.792H88.6898ZM95.5058 38.624V61.16H98.5538V38.624H95.5058ZM120.106 41.48V43.736H124.45V41.48H120.106ZM120.61 54.344V56.528H129.274V54.344H120.61ZM120.514 58.016V60.368H129.85V58.016H120.514ZM118.834 38.936V47.456H121.402V38.936H118.834ZM117.37 46.952L118.042 49.328C120.01 48.896 122.434 48.32 124.738 47.768L124.522 45.608C121.906 46.136 119.218 46.664 117.37 46.952ZM125.194 38.936V45.896C125.194 48.296 125.674 49.04 127.882 49.04C128.314 49.04 129.514 49.04 129.946 49.04C131.602 49.04 132.298 48.296 132.562 45.584C131.842 45.416 130.786 45.008 130.258 44.6C130.21 46.376 130.09 46.664 129.658 46.664C129.418 46.664 128.53 46.664 128.314 46.664C127.858 46.664 127.786 46.592 127.786 45.896V38.936H125.194ZM130.354 40.208C129.37 41.024 127.69 41.936 126.202 42.56C126.49 43.064 126.85 43.88 126.97 44.408C128.674 43.832 130.642 43.04 132.202 42.104L130.354 40.208ZM123.082 48.368C122.962 49.304 122.602 50.672 122.314 51.56L124.81 52.064C125.146 51.272 125.554 50.096 125.986 48.872L123.082 48.368ZM119.194 50.6V61.112H121.858V52.976H128.482V61.016H131.266V50.6H119.194ZM110.842 39.656V61.184H113.362V42.224H116.41V39.656H110.842ZM115.522 39.656V40.472C115.186 42.008 114.442 45.32 113.818 47.48C115.138 49.088 115.426 50.576 115.45 51.68C115.45 52.376 115.306 52.88 115.042 53.096C114.874 53.216 114.634 53.264 114.37 53.264C114.106 53.264 113.794 53.264 113.386 53.24C113.77 53.936 113.986 55.016 114.01 55.688C114.562 55.712 115.114 55.688 115.522 55.64C116.05 55.544 116.506 55.4 116.866 55.136C117.634 54.608 117.946 53.576 117.922 52.04C117.922 50.672 117.658 49.04 116.218 47.168C116.89 45.272 117.682 42.68 118.282 40.616L116.386 39.536L116.002 39.656H115.522ZM135.346 43.16V45.968H154.738V43.16H135.346ZM136.618 50.144V52.928H153.586V50.144H136.618ZM134.314 57.584V60.416H155.914V57.584H134.314ZM143.506 45.608V59.096H146.674V45.608H143.506ZM141.37 40.232C142.954 41.36 144.922 42.992 145.834 44.096L148.378 42.248C147.346 41.12 145.282 39.56 143.746 38.576L141.37 40.232ZM164.17 58.424V60.536H175.882V58.424H164.17ZM167.602 43.664V46.544H170.386V43.664H167.602ZM158.746 45.32V50.096H161.458V47.48H176.818V50.096H179.626V45.32H158.746ZM164.074 48.488V50.552H172.954V51.8H164.074V53.864H175.834V48.488H164.074ZM164.194 54.944V57.056H174.778V61.184H177.658V54.944H164.194ZM162.49 48.488V61.208H165.226V48.488H162.49ZM161.17 40.304V42.56H168.73V40.304H161.17ZM170.89 40.304V42.56H180.202V40.304H170.89ZM161.266 38.432C160.522 40.256 159.154 42.128 157.714 43.328C158.362 43.664 159.514 44.432 160.066 44.864C161.482 43.496 163.018 41.312 163.954 39.152L161.266 38.432ZM171.034 38.432C170.338 40.184 168.994 41.936 167.458 43.04C168.178 43.352 169.402 43.976 169.978 44.408C171.418 43.16 172.906 41.168 173.77 39.104L171.034 38.432ZM162.058 42.056C162.634 42.92 163.258 44.144 163.474 44.888L166.066 44.144C165.778 43.376 165.106 42.224 164.506 41.408L162.058 42.056ZM172.786 42.128C173.458 42.968 174.25 44.192 174.562 44.912L177.226 44.168C176.842 43.4 176.002 42.248 175.306 41.456L172.786 42.128Z" fill="black"/>
<g clip-path="url(#clip1_118_356)">
<path d="M106.191 214.008C106.191 209.607 109.759 206.039 114.16 206.039H150.02C154.421 206.039 157.988 209.607 157.988 214.008H106.191Z" stroke="#005CAF" stroke-width="4" stroke-miterlimit="10"/>
<path d="M114.16 206.039V198.07H150.02V206.039" stroke="#005CAF" stroke-width="4" stroke-miterlimit="10"/>
<path d="M140.059 173.898H124.121C121.921 173.898 120.137 175.682 120.137 177.883C120.137 180.083 121.921 181.867 124.121 181.867H140.059C142.259 181.867 144.043 180.083 144.043 177.883C144.043 175.682 142.259 173.898 140.059 173.898Z" stroke="#005CAF" stroke-width="4" stroke-miterlimit="10"/>
<path d="M132.09 173.898C138.691 173.898 144.043 168.547 144.043 161.945C144.043 155.344 138.691 149.992 132.09 149.992C125.488 149.992 120.137 155.344 120.137 161.945C120.137 168.547 125.488 173.898 132.09 173.898Z" stroke="#005CAF" stroke-width="4" stroke-miterlimit="10"/>
<path d="M124.121 181.867L120.137 198.07" stroke="#005CAF" stroke-width="4" stroke-miterlimit="10"/>
<path d="M140.059 181.867L144.043 198.07" stroke="#005CAF" stroke-width="4" stroke-miterlimit="10"/>
</g>
<path d="M0.0898438 609.542H263.18" stroke="url(#paint8_linear_118_356)" stroke-width="3.84696" stroke-miterlimit="10"/>
<defs>
<linearGradient id="paint0_linear_118_356" x1="131.59" y1="473" x2="131.59" y2="595" gradientUnits="userSpaceOnUse">
<stop stop-color="#D9D9D9" stop-opacity="0.49"/>
<stop offset="1" stop-color="#D9D9D9" stop-opacity="0"/>
</linearGradient>
<linearGradient id="paint1_linear_118_356" x1="142.298" y1="516.814" x2="142.298" y2="0.0130452" gradientUnits="userSpaceOnUse">
<stop stop-color="#1F5099"/>
<stop offset="1" stop-color="#3B72C4"/>
</linearGradient>
<linearGradient id="paint2_linear_118_356" x1="99.6945" y1="214.981" x2="164.416" y2="264.994" gradientUnits="userSpaceOnUse">
<stop stop-color="#1F5099"/>
<stop offset="1" stop-color="#3B72C4"/>
</linearGradient>
<linearGradient id="paint3_linear_118_356" x1="131.644" y1="120" x2="131.644" y2="120" gradientUnits="userSpaceOnUse">
<stop stop-color="#4918D1"/>
<stop offset="0.19" stop-color="#493ADE"/>
<stop offset="0.42" stop-color="#495DEC"/>
<stop offset="0.64" stop-color="#4976F6"/>
<stop offset="0.84" stop-color="#4985FC"/>
<stop offset="1" stop-color="#4A8BFF"/>
</linearGradient>
<linearGradient id="paint4_linear_118_356" x1="208.124" y1="338.541" x2="131.635" y2="378.888" gradientUnits="userSpaceOnUse">
<stop stop-color="#1F5099"/>
<stop offset="1" stop-color="#3B72C4"/>
</linearGradient>
<linearGradient id="paint5_linear_118_356" x1="131.61" y1="264.53" x2="131.61" y2="106.95" gradientUnits="userSpaceOnUse">
<stop offset="0.36" stop-color="#E9F2FF"/>
<stop offset="1" stop-color="white" stop-opacity="0"/>
</linearGradient>
<linearGradient id="paint6_linear_118_356" x1="132.09" y1="137.5" x2="132.09" y2="362.5" gradientUnits="userSpaceOnUse">
<stop stop-color="white"/>
<stop offset="1" stop-color="white" stop-opacity="0"/>
</linearGradient>
<linearGradient id="paint7_linear_118_356" x1="140.707" y1="98.6883" x2="140.707" y2="-35.0431" gradientUnits="userSpaceOnUse">
<stop stop-color="#1F5099"/>
<stop offset="1" stop-color="#3B72C4"/>
</linearGradient>
<linearGradient id="paint8_linear_118_356" x1="149.98" y1="610.542" x2="149.98" y2="608.927" gradientUnits="userSpaceOnUse">
<stop stop-color="#1F5099"/>
<stop offset="1" stop-color="#3B72C4"/>
</linearGradient>
<clipPath id="clip0_118_356">
<rect width="157.402" height="120" fill="white" transform="translate(53.0898)"/>
</clipPath>
<clipPath id="clip1_118_356">
<rect width="68" height="68" fill="white" transform="translate(98.0898 148)"/>
</clipPath>
</defs>
</svg>
