<svg width="96" height="110" viewBox="0 0 96 110" fill="none" xmlns="http://www.w3.org/2000/svg">
<g clip-path="url(#clip0_134_2576)">
<path d="M47.9067 54.9857L0.273438 27.4928L47.592 0L95.2253 27.4928L47.9067 54.9857Z" fill="url(#paint0_linear_134_2576)"/>
<path d="M95.2268 27.4928L47.9082 54.9856V110L95.2268 82.5071V27.4928Z" fill="url(#paint1_linear_134_2576)"/>
<path d="M0.273438 27.4928V82.5071L47.9067 110V54.9856L0.273438 27.4928Z" fill="url(#paint2_linear_134_2576)"/>
</g>
<g clip-path="url(#clip1_134_2576)">
<path d="M22 79.4766H74" stroke="#005CAF" stroke-width="3" stroke-miterlimit="10"/>
<path d="M32.7656 73.3828H26.6719V60.9922H32.7656V73.3828Z" stroke="#005CAF" stroke-width="3" stroke-miterlimit="10"/>
<path d="M44.9531 73.3828H38.8594V54.8984H44.9531V73.3828Z" stroke="#005CAF" stroke-width="3" stroke-miterlimit="10"/>
<path d="M57.1406 73.3828H51.0469V60.9922H57.1406V73.3828Z" stroke="#005CAF" stroke-width="3" stroke-miterlimit="10"/>
<path d="M69.3281 73.3828H63.2344V48.8047H69.3281V73.3828Z" stroke="#005CAF" stroke-width="3" stroke-miterlimit="10"/>
<path d="M32.7656 51.8516C32.7656 53.5345 31.4016 54.8984 29.7188 54.8984C28.0359 54.8984 26.6719 53.5345 26.6719 51.8516C26.6719 50.1687 28.0359 48.8047 29.7188 48.8047C31.4016 48.8047 32.7656 50.1687 32.7656 51.8516Z" stroke="#005CAF" stroke-width="3" stroke-miterlimit="10"/>
<path d="M44.9531 39.6641C44.9531 41.347 43.5891 42.7109 41.9062 42.7109C40.2234 42.7109 38.8594 41.347 38.8594 39.6641C38.8594 37.9812 40.2234 36.6172 41.9062 36.6172C43.5891 36.6172 44.9531 37.9812 44.9531 39.6641Z" stroke="#005CAF" stroke-width="3" stroke-miterlimit="10"/>
<path d="M57.1406 51.8516C57.1406 53.5345 55.7766 54.8984 54.0938 54.8984C52.4109 54.8984 51.0469 53.5345 51.0469 51.8516C51.0469 50.1687 52.4109 48.8047 54.0938 48.8047C55.7766 48.8047 57.1406 50.1687 57.1406 51.8516Z" stroke="#005CAF" stroke-width="3" stroke-miterlimit="10"/>
<path d="M69.3281 33.5703C69.3281 35.2532 67.9641 36.6172 66.2812 36.6172C64.5984 36.6172 63.2344 35.2532 63.2344 33.5703C63.2344 31.8874 64.5984 30.5234 66.2812 30.5234C67.9641 30.5234 69.3281 31.8874 69.3281 33.5703Z" stroke="#005CAF" stroke-width="3" stroke-miterlimit="10"/>
<path d="M31.873 49.6974L39.7513 41.8192" stroke="#005CAF" stroke-width="3" stroke-miterlimit="10"/>
<path d="M44.0605 41.8182L51.9387 49.6964" stroke="#005CAF" stroke-width="3" stroke-miterlimit="10"/>
<path d="M55.7832 49.3166L64.5897 36.1063" stroke="#005CAF" stroke-width="3" stroke-miterlimit="10"/>
</g>
<defs>
<linearGradient id="paint0_linear_134_2576" x1="0.273438" y1="27.4928" x2="95.2253" y2="27.4928" gradientUnits="userSpaceOnUse">
<stop stop-color="#F5F9FF"/>
<stop offset="0.5" stop-color="#F0F5FF"/>
<stop offset="1" stop-color="#E8F0FF"/>
</linearGradient>
<linearGradient id="paint1_linear_134_2576" x1="47.9082" y1="68.7464" x2="95.2268" y2="68.7464" gradientUnits="userSpaceOnUse">
<stop stop-color="#F5F9FF"/>
<stop offset="0.5" stop-color="#F0F5FF"/>
<stop offset="1" stop-color="#E8F0FF"/>
</linearGradient>
<linearGradient id="paint2_linear_134_2576" x1="0.273438" y1="68.7464" x2="47.9067" y2="68.7464" gradientUnits="userSpaceOnUse">
<stop stop-color="#F5F9FF"/>
<stop offset="0.5" stop-color="#F0F5FF"/>
<stop offset="1" stop-color="#E8F0FF"/>
</linearGradient>
<clipPath id="clip0_134_2576">
<rect width="94.9519" height="110" fill="white" transform="translate(0.273438)"/>
</clipPath>
<clipPath id="clip1_134_2576">
<rect width="52" height="52" fill="white" transform="translate(21.75 29)"/>
</clipPath>
</defs>
</svg>
