<svg width="68" height="281" viewBox="0 0 68 281" fill="none" xmlns="http://www.w3.org/2000/svg">
<path d="M67 1.70605H1V69.0106H28.5664L34 75.7061L39.4336 69.0106H67V1.70605Z" fill="white" stroke="#F06214" stroke-width="1.5" stroke-miterlimit="10"/>
<path d="M6.91 10.584V11.494H19.076V10.584H6.91ZM12.384 9.24V11.018H13.462V9.24H12.384ZM7.526 16.058V22.134H8.548V16.954H17.928V16.058H7.526ZM17.494 16.058V20.846C17.494 21.042 17.438 21.112 17.2 21.112C16.962 21.14 16.178 21.14 15.254 21.112C15.408 21.392 15.562 21.812 15.604 22.106C16.766 22.106 17.522 22.092 17.97 21.938C18.418 21.756 18.544 21.448 18.544 20.874V16.058H17.494ZM10.326 17.864V21.532H11.264V17.864H10.326ZM10.83 17.864V18.62H14.722V20.062H10.83V20.818H15.674V17.864H10.83ZM10.242 13.048H15.716V14.406H10.242V13.048ZM9.234 12.278V15.176H16.78V12.278H9.234ZM26.146 11.116V11.984H28.806V11.116H26.146ZM26.426 18.438V19.278H32.054V18.438H26.426ZM26.398 20.692V21.574H32.222V20.692H26.398ZM25.656 9.422V14.588H26.608V9.422H25.656ZM24.746 14.448L25.04 15.33C26.174 15.064 27.616 14.686 29.002 14.336L28.918 13.51C27.392 13.874 25.824 14.238 24.746 14.448ZM29.394 9.422V13.804C29.394 14.84 29.646 15.12 30.696 15.12C30.92 15.12 32.068 15.12 32.292 15.12C33.132 15.12 33.398 14.728 33.51 13.272C33.23 13.202 32.838 13.048 32.628 12.88C32.6 14.042 32.53 14.21 32.18 14.21C31.956 14.21 31.004 14.21 30.822 14.21C30.43 14.21 30.36 14.154 30.36 13.804V9.422H29.394ZM32.474 10.29C31.858 10.78 30.752 11.34 29.772 11.746C29.884 11.942 30.038 12.236 30.08 12.432C31.13 12.054 32.334 11.55 33.202 10.99L32.474 10.29ZM28.456 14.798C28.344 15.316 28.078 16.1 27.868 16.59L28.778 16.8C29.002 16.352 29.254 15.68 29.506 15.022L28.456 14.798ZM25.908 16.226V22.092H26.888V17.122H31.704V22.05H32.712V16.226H25.908ZM21.148 9.842V22.12H22.1V10.794H24.298V9.842H21.148ZM23.976 9.842V10.136C23.71 11.088 23.22 12.754 22.758 14.042C23.696 15.134 23.92 16.086 23.934 16.828C23.934 17.262 23.85 17.654 23.654 17.808C23.556 17.878 23.402 17.92 23.234 17.92C23.038 17.934 22.786 17.92 22.506 17.906C22.646 18.172 22.744 18.578 22.758 18.83C23.052 18.844 23.374 18.83 23.626 18.802C23.906 18.76 24.144 18.69 24.326 18.564C24.704 18.284 24.872 17.682 24.858 16.94C24.858 16.086 24.648 15.092 23.696 13.916C24.13 12.782 24.62 11.354 24.998 10.206L24.298 9.8L24.158 9.842H23.976ZM37.78 20.846V21.658H45.186V20.846H37.78ZM40.454 12.082V13.636H41.476V12.082H40.454ZM35.134 13.174V15.806H36.142V14.014H45.928V15.806H46.964V13.174H35.134ZM37.724 14.882V15.68H43.87V16.884H37.724V17.696H44.906V14.882H37.724ZM37.766 18.662V19.488H44.766V22.106H45.802V18.662H37.766ZM37.164 14.882V22.134H38.172V14.882H37.164ZM36.282 10.318V11.186H40.804V10.318H36.282ZM41.742 10.318V11.186H47.398V10.318H41.742ZM36.548 9.184C36.114 10.276 35.358 11.382 34.518 12.11C34.77 12.236 35.19 12.53 35.386 12.684C36.198 11.886 37.024 10.668 37.542 9.436L36.548 9.184ZM42.064 9.184C41.616 10.262 40.804 11.298 39.88 11.97C40.146 12.096 40.58 12.348 40.79 12.502C41.672 11.774 42.554 10.64 43.058 9.422L42.064 9.184ZM37.066 10.976C37.388 11.494 37.724 12.194 37.85 12.628L38.802 12.348C38.662 11.914 38.298 11.228 37.976 10.738L37.066 10.976ZM43.002 10.99C43.45 11.494 43.926 12.208 44.122 12.656L45.074 12.348C44.864 11.886 44.36 11.2 43.926 10.71L43.002 10.99ZM54.65 13.454H59.858V15.26H54.65V13.454ZM54.65 10.808H59.858V12.586H54.65V10.808ZM53.698 9.898V16.17H60.866V9.898H53.698ZM53.516 17.808V18.774H61.062V17.808H53.516ZM52.438 20.706V21.658H61.524V20.706H52.438ZM48.63 10.192V11.186H52.998V10.192H48.63ZM48.784 14.238V15.232H52.802V14.238H48.784ZM48.49 19.6L48.742 20.678C49.988 20.258 51.584 19.726 53.11 19.208L52.928 18.2C51.304 18.746 49.624 19.292 48.49 19.6ZM50.38 10.584V19.46L51.388 19.264V10.584H50.38ZM56.792 10.332V15.722H56.722V21.14H57.786V15.722H57.716V10.332H56.792ZM23.15 29.24V33.244H24.158V29.24H23.15ZM23.15 36.926V42.12H24.158V36.926H23.15ZM22.128 35.568H25.222V36.66H22.128V35.568ZM22.128 33.692H25.222V34.756H22.128V33.692ZM21.176 32.838V37.5H26.202V32.838H21.176ZM20.728 30.724V31.676H26.622V30.724H20.728ZM29.408 34.238V42.106H30.444V34.238H29.408ZM27.406 33.874V34.854H32.502V33.874H27.406ZM26.72 36.814V37.794H33.272V36.814H26.72ZM20.574 38.69V39.642H26.748V38.69H20.574ZM29.94 30.346C30.64 31.69 31.886 33.3 33.062 34.322C33.216 34.014 33.468 33.622 33.664 33.37C32.474 32.474 31.186 30.822 30.388 29.31H29.408C28.82 30.78 27.56 32.6 26.244 33.636C26.454 33.86 26.692 34.238 26.818 34.504C28.134 33.412 29.324 31.704 29.94 30.346ZM42.4 30.08V42.134H43.422V31.074H46.6V30.08H42.4ZM34.938 30.794V31.732H41.63V30.794H34.938ZM34.574 34.672V35.638H41.812V34.672H34.574ZM37.752 29.296V31.368H38.774V29.296H37.752ZM35.806 32.222C36.1 32.936 36.338 33.888 36.408 34.504L37.346 34.28C37.262 33.664 36.996 32.726 36.688 32.026L35.806 32.222ZM39.824 31.928C39.656 32.642 39.32 33.678 39.04 34.322L39.88 34.546C40.188 33.93 40.524 32.992 40.832 32.166L39.824 31.928ZM35.89 40.384V41.322H40.496V40.384H35.89ZM35.512 36.856V42.134H36.492V37.794H40.02V42.064H41.028V36.856H35.512ZM46.32 30.08V30.416C45.9 31.522 45.144 33.454 44.43 34.896C45.844 36.128 46.25 37.178 46.264 38.06C46.264 38.578 46.166 38.984 45.858 39.166C45.69 39.264 45.494 39.32 45.256 39.334C44.976 39.348 44.57 39.334 44.164 39.306C44.346 39.6 44.444 40.048 44.458 40.342C44.864 40.356 45.326 40.37 45.676 40.328C46.04 40.272 46.348 40.174 46.6 40.02C47.09 39.684 47.286 39.026 47.286 38.172C47.272 37.164 46.936 36.058 45.522 34.756C46.166 33.468 46.894 31.844 47.468 30.528L46.698 30.038L46.53 30.08H46.32ZM10.284 49.87V50.71H13.476V49.87H10.284ZM14.176 50.99V51.858H17.536V50.99H14.176ZM13.854 53.496V54.378H19.468V53.496H13.854ZM9.738 51.732V52.558H13.952V51.732H9.738ZM10.228 53.552V54.392H13.532V53.552H10.228ZM10.228 55.428V56.268H13.532V55.428H10.228ZM10.144 57.332V62.036H10.998V57.332H10.144ZM10.634 57.332V58.172H12.818V60.384H10.634V61.238H13.686V57.332H10.634ZM15.394 49.254V54.154H16.318V49.254H15.394ZM18.418 49.576C17.438 52.656 15.702 55.218 13.364 56.772C13.574 56.94 13.924 57.276 14.064 57.458C16.416 55.75 18.222 53.076 19.314 49.786L18.418 49.576ZM14.988 56.142V62.106H15.898V57.024H18.026V62.05H18.978V56.142H14.988ZM15.422 58.424V59.25H18.516V58.424H15.422ZM15.422 60.692V61.574H18.516V60.692H15.422ZM17.018 54.938C17.48 55.246 17.984 55.722 18.222 56.058L18.838 55.582C18.586 55.246 18.068 54.798 17.62 54.504L17.018 54.938ZM9.038 49.324C8.436 51.382 7.428 53.398 6.28 54.728C6.448 54.994 6.714 55.568 6.812 55.806C8.1 54.252 9.262 51.9 9.99 49.59L9.038 49.324ZM8.044 52.74V62.106H8.982V51.83L8.968 51.816L8.044 52.74ZM26.58 49.366V52.642H27.574V49.366H26.58ZM30.192 49.366V52.642H31.2V49.366H30.192ZM29.254 55.386V62.05H30.122V55.386H29.254ZM24.312 50.556V51.48H33.398V50.556H24.312ZM26.902 57.108V57.864H32.474V57.108H26.902ZM26.902 59.068V59.81H32.474V59.068H26.902ZM25.012 53.132V54.056H33.454V53.132H25.012ZM24.55 53.132V56.142C24.55 57.724 24.452 59.908 23.444 61.476C23.668 61.602 24.074 61.938 24.228 62.12C25.334 60.426 25.53 57.906 25.53 56.156V53.132H24.55ZM26.37 55.092V62.12H27.28V55.89H32.614V55.092H26.37ZM32.18 55.092V61.098C32.18 61.252 32.138 61.294 31.97 61.308C31.816 61.322 31.326 61.322 30.724 61.308C30.85 61.546 30.948 61.896 30.99 62.134C31.816 62.134 32.348 62.12 32.684 61.98C33.02 61.826 33.104 61.574 33.104 61.098V55.092H32.18ZM23.248 49.324C22.576 51.48 21.47 53.636 20.238 55.036C20.42 55.302 20.7 55.862 20.798 56.114C22.184 54.476 23.43 52.012 24.228 49.59L23.248 49.324ZM22.128 52.754V62.12H23.122V51.816L23.094 51.788L22.128 52.754ZM40.272 49.674C40.174 51.536 40.174 58.27 34.462 61.182C34.784 61.42 35.134 61.742 35.316 62.008C41.112 58.858 41.322 51.872 41.434 49.674H40.272ZM41.392 49.954L40.384 50.052C40.482 51.34 40.874 59.166 46.81 62.008C46.978 61.714 47.3 61.364 47.608 61.126C41.84 58.48 41.434 51.046 41.392 49.954ZM54.734 49.24L54.804 60.65C54.818 60.944 54.706 61.028 54.412 61.042C54.118 61.042 53.082 61.056 52.032 61.042C52.2 61.336 52.396 61.84 52.452 62.148C53.796 62.134 54.706 62.106 55.196 61.938C55.714 61.742 55.91 61.42 55.896 60.636L55.826 49.226L54.734 49.24ZM48.924 51.97V53.006H61.118V51.97H48.924ZM58.878 53.72C56.722 55.974 52.466 57.99 48.462 59.012C48.644 59.25 48.924 59.712 49.05 59.964C53.166 58.844 57.31 56.814 59.886 54.35L58.878 53.72Z" fill="black"/>
<rect width="66" height="67" transform="translate(1 212.822)" fill="url(#paint0_linear_203_4277)"/>
<path d="M27.776 233.382V235.574H28.992V233.382H27.776ZM23.984 235.094V236.134H32.88V235.094H23.984ZM23.344 238.838V239.894H33.328V238.838H23.344ZM25.488 236.278C25.824 237.158 26.112 238.31 26.16 239.014L27.248 238.742C27.184 238.054 26.88 236.934 26.528 236.07L25.488 236.278ZM30.24 236.038C30.048 236.838 29.664 238.038 29.344 238.79L30.368 238.966C30.704 238.246 31.088 237.158 31.424 236.214L30.24 236.038ZM23.424 241.478V242.518H33.264V241.478H23.424ZM27.088 239.606C26.384 241.35 25.28 243.718 24.48 245.142L25.52 245.494C26.336 244.022 27.472 241.686 28.288 239.846L27.088 239.606ZM25.296 244.934C27.744 245.67 30.736 247.03 32.208 248.118L32.976 247.206C31.424 246.086 28.416 244.806 26 244.118L25.296 244.934ZM30.24 242.15C29.552 245.27 27.632 246.63 23.024 247.094C23.216 247.35 23.424 247.766 23.504 248.102C28.448 247.446 30.64 245.894 31.408 242.326L30.24 242.15ZM18.432 241.894L18.704 243.078C20.128 242.646 21.968 242.07 23.712 241.526L23.568 240.454C21.68 240.998 19.728 241.574 18.432 241.894ZM18.704 236.614V237.734H23.584V236.614H18.704ZM20.88 233.398V246.646C20.88 246.886 20.784 246.95 20.576 246.95C20.384 246.966 19.712 246.966 18.992 246.934C19.152 247.27 19.312 247.798 19.36 248.102C20.4 248.102 21.056 248.07 21.472 247.862C21.888 247.67 22.032 247.334 22.032 246.646V233.398H20.88ZM39.712 235.206V242.502H40.736V235.206H39.712ZM43.776 234.342V235.446H49.056V234.342H43.776ZM42.688 246.438V247.558H49.392V246.438H42.688ZM43.904 240.214V241.302H48.96V240.214H43.904ZM45.792 234.774V247.03H46.928V234.774H45.792ZM42.304 233.382V240.214C42.304 243.094 41.952 245.558 39.168 247.254C39.408 247.462 39.776 247.862 39.92 248.118C42.992 246.23 43.408 243.462 43.408 240.23V233.382H42.304ZM34.672 234.422V235.526H39.408V234.422H34.672ZM34.832 239.574V240.662H39.12V239.574H34.832ZM34.432 245.526L34.688 246.662C36.112 246.23 37.952 245.686 39.728 245.158L39.584 244.086C37.68 244.63 35.76 245.206 34.432 245.526ZM36.464 234.902V245.478L37.584 245.238V234.902H36.464ZM24.976 263.846V264.886H32.384V263.846H24.976ZM25.552 255.798C25.968 256.55 26.368 257.526 26.512 258.15L27.552 257.734C27.408 257.142 26.976 256.182 26.56 255.462L25.552 255.798ZM30.832 255.398C30.624 256.086 30.16 257.11 29.808 257.734L30.784 258.086C31.168 257.494 31.648 256.598 32.08 255.782L30.832 255.398ZM28.064 258.358V270.102H29.184V258.358H28.064ZM24.976 261.03C24.784 262.406 24.448 264.198 24.16 265.334L25.28 265.462C25.552 264.31 25.888 262.486 26.128 261.03H24.976ZM32.032 263.846V264.006C31.904 266.486 31.776 267.382 31.552 267.638C31.472 267.766 31.328 267.782 31.104 267.782C30.912 267.782 30.4 267.766 29.824 267.718C29.984 268.006 30.096 268.454 30.112 268.79C30.736 268.822 31.344 268.822 31.68 268.79C32.048 268.742 32.272 268.646 32.512 268.39C32.864 268.006 32.992 266.934 33.136 264.326C33.152 264.166 33.168 263.846 33.168 263.846H32.032ZM28 264.358C27.024 266.022 25.152 267.702 23.392 268.486C23.664 268.71 24 269.142 24.192 269.414C25.984 268.47 27.888 266.63 28.944 264.71L28 264.358ZM25.536 261.03V262.102H32.688V258.022H24.576V259.094H31.552V261.03H25.536ZM18.816 258.854V259.99H24.224V258.854H18.816ZM21.184 255.382V270.086H22.304V255.382H21.184ZM21.152 259.526C20.688 261.83 19.584 264.598 18.496 266.038C18.688 266.31 18.992 266.758 19.12 267.078C20.288 265.478 21.392 262.326 21.904 259.782L21.152 259.526ZM22.224 260.918L21.664 261.446C22.096 262.054 23.184 263.83 23.552 264.614L24.256 263.718C23.936 263.254 22.592 261.35 22.224 260.918ZM48.48 260.326C47.792 261.126 46.592 262.246 45.76 262.902L46.416 263.574C47.28 262.934 48.416 261.958 49.28 261.094L48.48 260.326ZM40.976 255.814C41.44 256.566 41.888 257.59 42.048 258.262L43.104 257.862C42.912 257.19 42.448 256.214 41.952 255.462L40.976 255.814ZM39.76 258.086V259.158H49.2V258.086H39.76ZM41.872 260.966C44.752 263.334 44.88 267.702 43.952 268.646C43.712 268.966 43.424 269.014 43.072 269.014C42.768 269.014 42.336 268.982 41.872 268.934C42.08 269.254 42.16 269.75 42.176 270.038C42.592 270.07 42.992 270.086 43.296 270.086C43.952 270.086 44.384 269.942 44.832 269.478C46.176 268.246 46.048 263.094 42.8 260.47L41.872 260.966ZM43.952 258.486C42.864 259.798 41.008 261.03 39.296 261.782C39.52 261.99 39.888 262.422 40.032 262.646C41.76 261.75 43.728 260.374 44.96 258.87L43.952 258.486ZM45.408 258.694L44.448 258.87C45.104 262.998 46.368 266.502 48.688 268.326C48.88 268.022 49.264 267.606 49.52 267.398C47.296 265.83 46.016 262.47 45.408 258.694ZM43.28 261.958C42.464 262.87 40.816 263.99 39.616 264.55C39.872 264.758 40.16 265.142 40.304 265.414C41.536 264.678 43.184 263.462 44.08 262.47L43.28 261.958ZM44.24 264.022C43.088 265.574 40.688 267.27 38.688 268.038C38.96 268.262 39.264 268.646 39.424 268.918C41.424 268.006 43.808 266.198 45.056 264.55L44.24 264.022ZM46.72 255.398C46.448 256.134 45.92 257.19 45.504 257.878L46.464 258.198C46.896 257.574 47.424 256.614 47.872 255.766L46.72 255.398ZM35.28 256.086V270.118H36.368V257.174H39.056V256.086H35.28ZM38.688 256.086V256.406C38.352 257.51 37.76 259.414 37.184 260.87C38.336 262.118 38.624 263.206 38.624 264.07C38.624 264.55 38.544 264.982 38.288 265.158C38.16 265.254 37.984 265.302 37.792 265.302C37.536 265.334 37.232 265.318 36.864 265.286C37.04 265.59 37.136 266.054 37.152 266.342C37.52 266.358 37.92 266.358 38.24 266.326C38.56 266.278 38.848 266.182 39.072 266.038C39.52 265.718 39.696 265.046 39.696 264.182C39.696 263.19 39.44 262.07 38.256 260.742C38.8 259.462 39.392 257.814 39.856 256.502L39.088 256.038L38.896 256.086H38.688Z" fill="black"/>
<path d="M1 279.822H67" stroke="#F06214" stroke-width="1.21108" stroke-miterlimit="10"/>
<path opacity="0.16" d="M58.1768 212.67L34.0884 226.573L10 212.67L34.0884 198.755L58.1768 212.67Z" fill="url(#paint1_linear_203_4277)"/>
<path d="M10 115.554V212.67L34.0884 226.573L58.1768 212.67V115.554L34.0884 101.65L10 115.554Z" fill="url(#paint2_linear_203_4277)"/>
<path d="M58.1768 115.554L34.0884 129.469L10 115.554L34.0884 101.65L58.1768 115.554Z" fill="url(#paint3_linear_203_4277)"/>
<path opacity="0.39" d="M58.1782 115.554V212.67L34.0898 226.573V129.469L58.1782 115.554Z" fill="url(#paint4_linear_203_4277)"/>
<path d="M10 105.478V108.378L34.0896 122.28L58.1793 108.378V105.478L34.0896 91.5762L10 105.478Z" fill="url(#paint5_linear_203_4277)"/>
<path d="M58.1761 105.478L34.0865 119.393L10 105.478L34.0896 91.5762L58.1793 105.478H58.1761Z" fill="url(#paint6_linear_203_4277)"/>
<g clip-path="url(#clip0_203_4277)">
<path d="M26.6727 88.4487H24.1641V98.6506H26.6727V88.4487Z" stroke="#F06214" stroke-width="1.27279" stroke-miterlimit="10"/>
</g>
<path d="M44.3192 88.4487H41.8105V98.6506H44.3192V88.4487Z" stroke="#F06214" stroke-width="1.27279" stroke-miterlimit="10"/>
<path d="M35.3012 94.5726L38.6723 97.9553C39.1621 98.4452 39.1621 99.2394 38.6723 99.7292C38.1824 100.219 37.3882 100.219 36.8984 99.7292L33.5215 96.3523" stroke="#F06214" stroke-width="1.27279" stroke-miterlimit="10"/>
<path d="M33.516 96.3582L35.7431 98.5853C36.233 99.0752 36.233 99.8694 35.7431 100.359C35.2532 100.849 34.459 100.849 33.9692 100.359L32.3926 98.7826" stroke="#F06214" stroke-width="1.27279" stroke-miterlimit="10"/>
<path d="M26.7578 89.4103H30.8858" stroke="#F06214" stroke-width="1.27279" stroke-miterlimit="10"/>
<path d="M32.4022 98.7708L32.5718 98.9404C33.0616 99.4303 33.0616 100.224 32.5718 100.714C32.0819 101.204 31.2877 101.204 30.7979 100.714L27.4944 97.4108H26.5898" stroke="#F06214" stroke-width="1.27279" stroke-miterlimit="10"/>
<path d="M35.3005 94.5726L39.6688 98.9409C40.1587 99.4308 40.9529 99.4308 41.4427 98.9409C41.9326 98.4511 41.9326 97.6569 41.4427 97.1671L35.5666 91.2909H33.8547L33.8153 91.3218C32.4919 92.3621 30.6067 92.2783 29.3809 91.1246L32.5167 87.7379H37.2414L39.8337 89.9957H41.5061" stroke="#F06214" stroke-width="1.27279" stroke-miterlimit="10"/>
<defs>
<linearGradient id="paint0_linear_203_4277" x1="33" y1="0" x2="33" y2="67" gradientUnits="userSpaceOnUse">
<stop stop-color="#E8E8E8"/>
<stop offset="1" stop-color="white" stop-opacity="0"/>
</linearGradient>
<linearGradient id="paint1_linear_203_4277" x1="34.2407" y1="245.049" x2="34.2407" y2="212.78" gradientUnits="userSpaceOnUse">
<stop stop-color="#F06214"/>
<stop offset="1" stop-color="#F1B594"/>
</linearGradient>
<linearGradient id="paint2_linear_203_4277" x1="-3.39746" y1="67.0029" x2="82.0879" y2="220.287" gradientUnits="userSpaceOnUse">
<stop stop-color="#F06214"/>
<stop offset="1" stop-color="#FFAE2B"/>
</linearGradient>
<linearGradient id="paint3_linear_203_4277" x1="-3.39746" y1="93.9349" x2="2.0757" y2="138.006" gradientUnits="userSpaceOnUse">
<stop stop-color="#F06214"/>
<stop offset="1" stop-color="#FFAE2B"/>
</linearGradient>
<linearGradient id="paint4_linear_203_4277" x1="38.4917" y1="128.252" x2="99.7928" y2="196.745" gradientUnits="userSpaceOnUse">
<stop stop-color="#F06214"/>
<stop offset="0.848945" stop-color="#FFAE2B"/>
</linearGradient>
<linearGradient id="paint5_linear_203_4277" x1="34.0896" y1="122.28" x2="34.0896" y2="72.6715" gradientUnits="userSpaceOnUse">
<stop offset="0.8125" stop-color="#FFE8B4"/>
<stop offset="1" stop-color="white" stop-opacity="0"/>
</linearGradient>
<linearGradient id="paint6_linear_203_4277" x1="34.2407" y1="82.2891" x2="34.2407" y2="153.122" gradientUnits="userSpaceOnUse">
<stop stop-color="white"/>
<stop offset="1" stop-color="white" stop-opacity="0"/>
</linearGradient>
<clipPath id="clip0_203_4277">
<rect width="21.4074" height="21.4074" fill="white" transform="translate(23.5391 83.7061)"/>
</clipPath>
</defs>
</svg>
