<svg width="265" height="704" viewBox="0 0 265 704" fill="none" xmlns="http://www.w3.org/2000/svg">
<rect x="0.179688" y="565" width="264" height="122" fill="url(#paint0_linear_118_357)"/>
<path d="M55.1797 256.163V564.651L131.696 608.814L208.212 564.651V256.163L131.696 212L55.1797 256.163Z" fill="url(#paint1_linear_118_357)"/>
<path d="M208.212 256.163L131.696 300.365L55.1797 256.163L131.696 212L208.212 256.163Z" fill="url(#paint2_linear_118_357)"/>
<path opacity="0.16" d="M208.212 564.651L131.696 608.814L55.1797 564.651L131.696 520.449L208.212 564.651Z" fill="url(#paint3_linear_118_357)"/>
<path opacity="0.39" d="M208.213 256.163V564.651L131.697 608.814V300.365L208.213 256.163Z" fill="url(#paint4_linear_118_357)"/>
<path d="M55.1797 224.16V233.37L131.7 277.53L208.22 233.37V224.16L131.7 180L55.1797 224.16Z" fill="url(#paint5_linear_118_357)"/>
<path d="M208.21 224.16L131.69 268.36L55.1797 224.16L131.7 180L208.22 224.16H208.21Z" fill="url(#paint6_linear_118_357)"/>
<g clip-path="url(#clip0_118_357)">
<path d="M164.188 170.065H156.219V202.471H164.188V170.065Z" stroke="#F06214" stroke-width="4.04297" stroke-miterlimit="10"/>
<path d="M135.542 189.517L146.25 200.262C147.806 201.818 147.806 204.341 146.25 205.897C144.694 207.453 142.171 207.453 140.615 205.897L129.889 195.17" stroke="#F06214" stroke-width="4.04297" stroke-miterlimit="10"/>
<path d="M129.869 195.189L136.944 202.263C138.5 203.819 138.5 206.342 136.944 207.898C135.388 209.454 132.865 209.454 131.309 207.898L126.301 202.89" stroke="#F06214" stroke-width="4.04297" stroke-miterlimit="10"/>
<path d="M108.406 173.119H121.519" stroke="#F06214" stroke-width="4.04297" stroke-miterlimit="10"/>
<path d="M126.338 202.853L126.876 203.391C128.432 204.947 128.432 207.47 126.876 209.026C125.32 210.582 122.798 210.582 121.242 209.026L110.748 198.533H107.875" stroke="#F06214" stroke-width="4.04297" stroke-miterlimit="10"/>
<path d="M135.542 189.517L149.418 203.393C150.974 204.949 153.497 204.949 155.052 203.393C156.608 201.837 156.608 199.314 155.052 197.758L136.387 179.093H130.949L130.824 179.191C126.62 182.496 120.632 182.229 116.738 178.565L126.699 167.807H141.707L149.941 174.979H155.254" stroke="#F06214" stroke-width="4.04297" stroke-miterlimit="10"/>
<path d="M108.141 170.065H100.172V202.471H108.141V170.065Z" stroke="#F06214" stroke-width="4.04297" stroke-miterlimit="10"/>
</g>
<path d="M0.179688 701.542H263.27" stroke="url(#paint7_linear_118_357)" stroke-width="3.84696" stroke-miterlimit="10"/>
<path d="M98.8437 629.633V632.921H100.668V629.633H98.8437ZM93.1557 632.201V633.761H106.5V632.201H93.1557ZM92.1957 637.817V639.401H107.172V637.817H92.1957ZM95.4117 633.977C95.9157 635.297 96.3477 637.025 96.4197 638.081L98.0517 637.673C97.9557 636.641 97.4997 634.961 96.9717 633.665L95.4117 633.977ZM102.54 633.617C102.252 634.817 101.676 636.617 101.196 637.745L102.732 638.009C103.236 636.929 103.812 635.297 104.316 633.881L102.54 633.617ZM92.3157 641.777V643.337H107.076V641.777H92.3157ZM97.8117 638.969C96.7557 641.585 95.0997 645.137 93.8997 647.273L95.4597 647.801C96.6837 645.593 98.3877 642.089 99.6117 639.329L97.8117 638.969ZM95.1237 646.961C98.7957 648.065 103.284 650.105 105.492 651.737L106.644 650.369C104.316 648.689 99.8037 646.769 96.1797 645.737L95.1237 646.961ZM102.54 642.785C101.508 647.465 98.6277 649.505 91.7157 650.201C92.0037 650.585 92.3157 651.209 92.4357 651.713C99.8517 650.729 103.14 648.401 104.292 643.049L102.54 642.785ZM84.8277 642.401L85.2357 644.177C87.3717 643.529 90.1317 642.665 92.7477 641.849L92.5317 640.241C89.6997 641.057 86.7717 641.921 84.8277 642.401ZM85.2357 634.481V636.161H92.5557V634.481H85.2357ZM88.4997 629.657V649.529C88.4997 649.889 88.3557 649.985 88.0437 649.985C87.7557 650.009 86.7477 650.009 85.6677 649.961C85.9077 650.465 86.1477 651.257 86.2197 651.713C87.7797 651.713 88.7637 651.665 89.3877 651.353C90.0117 651.065 90.2277 650.561 90.2277 649.529V629.657H88.4997ZM116.748 632.369V643.313H118.284V632.369H116.748ZM122.844 631.073V632.729H130.764V631.073H122.844ZM121.212 649.217V650.897H131.268V649.217H121.212ZM123.036 639.881V641.513H130.62V639.881H123.036ZM125.868 631.721V650.105H127.572V631.721H125.868ZM120.636 629.633V639.881C120.636 644.201 120.108 647.897 115.932 650.441C116.292 650.753 116.844 651.353 117.06 651.737C121.668 648.905 122.292 644.753 122.292 639.905V629.633H120.636ZM109.188 631.193V632.849H116.292V631.193H109.188ZM109.428 638.921V640.553H115.86V638.921H109.428ZM108.828 647.849L109.212 649.553C111.348 648.905 114.108 648.089 116.772 647.297L116.556 645.689C113.7 646.505 110.82 647.369 108.828 647.849ZM111.876 631.913V647.777L113.556 647.417V631.913H111.876ZM142.644 642.329V643.889H153.756V642.329H142.644ZM143.508 630.257C144.132 631.385 144.732 632.849 144.948 633.785L146.508 633.161C146.292 632.273 145.644 630.833 145.02 629.753L143.508 630.257ZM151.428 629.657C151.116 630.689 150.42 632.225 149.892 633.161L151.356 633.689C151.932 632.801 152.652 631.457 153.3 630.233L151.428 629.657ZM147.276 634.097V651.713H148.956V634.097H147.276ZM142.644 638.105C142.356 640.169 141.852 642.857 141.42 644.561L143.1 644.753C143.508 643.025 144.012 640.289 144.372 638.105H142.644ZM153.228 642.329V642.569C153.036 646.289 152.844 647.633 152.508 648.017C152.388 648.209 152.172 648.233 151.836 648.233C151.548 648.233 150.78 648.209 149.916 648.137C150.156 648.569 150.324 649.241 150.348 649.745C151.284 649.793 152.196 649.793 152.7 649.745C153.252 649.673 153.588 649.529 153.948 649.145C154.476 648.569 154.668 646.961 154.884 643.049C154.908 642.809 154.932 642.329 154.932 642.329H153.228ZM147.18 643.097C145.716 645.593 142.908 648.113 140.268 649.289C140.676 649.625 141.18 650.273 141.468 650.681C144.156 649.265 147.012 646.505 148.596 643.625L147.18 643.097ZM143.484 638.105V639.713H154.212V633.593H142.044V635.201H152.508V638.105H143.484ZM133.404 634.841V636.545H141.516V634.841H133.404ZM136.956 629.633V651.689H138.636V629.633H136.956ZM136.908 635.849C136.212 639.305 134.556 643.457 132.924 645.617C133.212 646.025 133.668 646.697 133.86 647.177C135.612 644.777 137.268 640.049 138.036 636.233L136.908 635.849ZM138.516 637.937L137.676 638.729C138.324 639.641 139.956 642.305 140.508 643.481L141.564 642.137C141.084 641.441 139.068 638.585 138.516 637.937ZM177.9 637.049C176.868 638.249 175.068 639.929 173.82 640.913L174.804 641.921C176.1 640.961 177.804 639.497 179.1 638.201L177.9 637.049ZM166.644 630.281C167.34 631.409 168.012 632.945 168.252 633.953L169.836 633.353C169.548 632.345 168.852 630.881 168.108 629.753L166.644 630.281ZM164.82 633.689V635.297H178.98V633.689H164.82ZM167.988 638.009C172.308 641.561 172.5 648.113 171.108 649.529C170.748 650.009 170.316 650.081 169.788 650.081C169.332 650.081 168.684 650.033 167.988 649.961C168.3 650.441 168.42 651.185 168.444 651.617C169.068 651.665 169.668 651.689 170.124 651.689C171.108 651.689 171.756 651.473 172.428 650.777C174.444 648.929 174.252 641.201 169.38 637.265L167.988 638.009ZM171.108 634.289C169.476 636.257 166.692 638.105 164.124 639.233C164.46 639.545 165.012 640.193 165.228 640.529C167.82 639.185 170.772 637.121 172.62 634.865L171.108 634.289ZM173.292 634.601L171.852 634.865C172.836 641.057 174.732 646.313 178.212 649.049C178.5 648.593 179.076 647.969 179.46 647.657C176.124 645.305 174.204 640.265 173.292 634.601ZM170.1 639.497C168.876 640.865 166.404 642.545 164.604 643.385C164.988 643.697 165.42 644.273 165.636 644.681C167.484 643.577 169.956 641.753 171.3 640.265L170.1 639.497ZM171.54 642.593C169.812 644.921 166.212 647.465 163.212 648.617C163.62 648.953 164.076 649.529 164.316 649.937C167.316 648.569 170.892 645.857 172.764 643.385L171.54 642.593ZM175.26 629.657C174.852 630.761 174.06 632.345 173.436 633.377L174.876 633.857C175.524 632.921 176.316 631.481 176.988 630.209L175.26 629.657ZM158.1 630.689V651.737H159.732V632.321H163.764V630.689H158.1ZM163.212 630.689V631.169C162.708 632.825 161.82 635.681 160.956 637.865C162.684 639.737 163.116 641.369 163.116 642.665C163.116 643.385 162.996 644.033 162.612 644.297C162.42 644.441 162.156 644.513 161.868 644.513C161.484 644.561 161.028 644.537 160.476 644.489C160.74 644.945 160.884 645.641 160.908 646.073C161.46 646.097 162.06 646.097 162.54 646.049C163.02 645.977 163.452 645.833 163.788 645.617C164.46 645.137 164.724 644.129 164.724 642.833C164.724 641.345 164.34 639.665 162.564 637.673C163.38 635.753 164.268 633.281 164.964 631.313L163.812 630.617L163.524 630.689H163.212Z" fill="black"/>
<g clip-path="url(#clip1_118_357)">
<path d="M222.359 1.45743H41.6387V112.222H102.209L131.999 138.076L161.789 112.222H222.359V1.45743Z" fill="white" stroke="#F5F3F3" stroke-width="2.91485" stroke-miterlimit="10"/>
<path d="M206.588 18.5676H57.4062V97.968H112.205L131.997 115.136L151.789 97.968H206.588V18.5676Z" fill="white" stroke="url(#paint8_linear_118_357)" stroke-width="2.91485" stroke-miterlimit="10"/>
</g>
<path d="M89.988 34.5382V36.7303H108.857V34.5382H89.988ZM97.961 32.7115V35.6342H100.626V32.7115H97.961ZM90.8476 43.2204V52.9556H93.362V45.348H106.557V43.2204H90.8476ZM105.59 43.2204V50.1619C105.59 50.4198 105.504 50.5057 105.182 50.5057C104.881 50.5272 103.785 50.5272 102.818 50.4842C103.162 51.1504 103.527 52.182 103.613 52.9127C105.16 52.9127 106.299 52.8697 107.116 52.4828C107.954 52.096 108.19 51.4083 108.19 50.2263V43.2204H105.59ZM95.2962 46.3365V52.139H97.5312V46.3365H95.2962ZM96.4137 46.3365V48.0558H101.271V49.4312H96.4137V51.1504H103.549V46.3365H96.4137ZM95.9624 39.2876H102.732V40.5771H95.9624V39.2876ZM93.5124 37.5684V42.3178H105.332V37.5684H93.5124ZM120.053 35.3119V37.332H123.943V35.3119H120.053ZM120.505 46.8308V48.7865H128.263V46.8308H120.505ZM120.419 50.1189V52.225H128.778V50.1189H120.419ZM118.914 33.0339V40.663H121.214V33.0339H118.914ZM117.603 40.2117L118.205 42.3393C119.967 41.9525 122.138 41.4367 124.201 40.9424L124.008 39.0083C121.665 39.4811 119.258 39.9538 117.603 40.2117ZM124.609 33.0339V39.2661C124.609 41.4152 125.039 42.0814 127.016 42.0814C127.403 42.0814 128.478 42.0814 128.864 42.0814C130.347 42.0814 130.97 41.4152 131.207 38.9868C130.562 38.8363 129.617 38.471 129.144 38.1057C129.101 39.696 128.993 39.9538 128.607 39.9538C128.392 39.9538 127.596 39.9538 127.403 39.9538C126.995 39.9538 126.93 39.8894 126.93 39.2661V33.0339H124.609ZM129.23 34.1729C128.349 34.9036 126.844 35.7202 125.512 36.279C125.77 36.7303 126.092 37.4609 126.2 37.9337C127.725 37.418 129.488 36.7088 130.885 35.8706L129.23 34.1729ZM122.718 41.4797C122.611 42.3178 122.288 43.5428 122.03 44.3379L124.265 44.7892C124.566 44.08 124.932 43.027 125.318 41.931L122.718 41.4797ZM119.237 43.4783V52.8912H121.622V45.6059H127.553V52.8052H130.046V43.4783H119.237ZM111.758 33.6786V52.9556H114.014V35.9781H116.744V33.6786H111.758ZM115.949 33.6786V34.4093C115.648 35.7847 114.982 38.7504 114.423 40.6845C115.605 42.1244 115.863 43.4568 115.884 44.4454C115.884 45.0686 115.755 45.5199 115.519 45.7133C115.368 45.8208 115.153 45.8638 114.917 45.8638C114.681 45.8638 114.401 45.8638 114.036 45.8423C114.38 46.4655 114.573 47.4326 114.595 48.0343C115.089 48.0558 115.583 48.0343 115.949 47.9913C116.421 47.9054 116.83 47.7764 117.152 47.54C117.84 47.0672 118.119 46.1431 118.098 44.7677C118.098 43.5428 117.861 42.0814 116.572 40.4051C117.174 38.7074 117.883 36.3864 118.42 34.5382L116.722 33.5711L116.378 33.6786H115.949ZM138.019 50.4842V52.3754H148.507V50.4842H138.019ZM141.093 37.2675V39.8464H143.585V37.2675H141.093ZM133.163 38.7504V43.027H135.591V40.6845H149.345V43.027H151.859V38.7504H133.163ZM137.933 41.5871V43.4353H145.885V44.5528H137.933V46.401H148.464V41.5871H137.933ZM138.041 47.3681V49.2593H147.518V52.9556H150.097V47.3681H138.041ZM136.515 41.5871V52.9771H138.965V41.5871H136.515ZM135.333 34.2588V36.279H142.103V34.2588H135.333ZM144.037 34.2588V36.279H152.375V34.2588H144.037ZM135.419 32.5826C134.753 34.2159 133.528 35.8921 132.238 36.9667C132.819 37.2675 133.85 37.9552 134.345 38.3421C135.612 37.1171 136.988 35.1615 137.826 33.2273L135.419 32.5826ZM144.166 32.5826C143.542 34.1514 142.339 35.7202 140.964 36.7088C141.608 36.9881 142.704 37.5469 143.22 37.9337C144.51 36.8162 145.842 35.0325 146.616 33.1843L144.166 32.5826ZM136.128 35.8277C136.644 36.6013 137.203 37.6973 137.396 38.3635L139.717 37.6973C139.459 37.0096 138.858 35.9781 138.32 35.2474L136.128 35.8277ZM145.735 35.8921C146.336 36.6443 147.045 37.7403 147.325 38.385L149.71 37.7188C149.366 37.0311 148.614 35.9996 147.991 35.2904L145.735 35.8921ZM164.195 39.6745H170.707V41.5227H164.195V39.6745ZM164.195 35.8491H170.707V37.6544H164.195V35.8491ZM161.874 33.6571V43.6932H173.156V33.6571H161.874ZM161.724 45.5414V47.8624H173.393V45.5414H161.724ZM160.219 49.9255V52.2465H174.102V49.9255H160.219ZM153.922 33.9795V36.3864H161.057V33.9795H153.922ZM154.137 40.1688V42.5542H160.692V40.1688H154.137ZM153.686 48.3352L154.266 50.957C156.329 50.2908 158.908 49.4527 161.315 48.636L160.864 46.1646C158.285 47.0028 155.534 47.8624 153.686 48.3352ZM156.308 34.9251V48.5286L158.758 48.1418V34.9251H156.308ZM166.408 34.5812V42.6831H166.172V51.0215H168.815V42.6831H168.579V34.5812H166.408ZM71.4416 62.7545V69.0512H73.9345V62.7545H71.4416ZM71.4416 74.5528V82.9342H73.9345V74.5528H71.4416ZM70.9688 72.9625H74.4718V73.9296H70.9688V72.9625ZM70.9688 70.1688H74.4718V71.1143H70.9688V70.1688ZM68.6908 68.2131V75.8852H76.8358V68.2131H68.6908ZM68.1106 64.7316V66.9881H77.373V64.7316H68.1106ZM81.2413 70.706V82.9127H83.7987V70.706H81.2413ZM78.5765 69.8034V72.1674H86.4206V69.8034H78.5765ZM77.5664 74.4669V76.8308H87.6885V74.4669H77.5664ZM67.8957 77.1102V79.4097H77.5664V77.1102H67.8957ZM82.5093 65.3549C83.4763 67.2031 85.2601 69.5455 86.9793 70.8994C87.3446 70.1258 87.9034 69.1587 88.3762 68.5355C86.5925 67.3965 84.7658 65.011 83.5838 62.862H81.2413C80.4032 64.8821 78.5765 67.5899 76.6423 68.9868C77.1151 69.5455 77.6524 70.4911 77.9318 71.1788C79.8874 69.6745 81.5852 67.2245 82.5093 65.3549ZM101.206 63.9795V82.9342H103.72V66.4079H107.46V63.9795H101.206ZM89.8805 64.8176V67.0526H100.282V64.8176H89.8805ZM89.4292 70.835V73.1559H100.54V70.835H89.4292ZM93.8348 62.9049V66.2145H96.3277V62.9049H93.8348ZM91.127 67.6544C91.4923 68.6644 91.8147 69.9968 91.8792 70.8779L94.1357 70.3407C94.0067 69.4811 93.6844 68.1701 93.2546 67.2031L91.127 67.6544ZM96.8865 67.1171C96.7145 68.1057 96.3277 69.4811 95.9839 70.3837L98.004 70.8779C98.3908 70.0613 98.8206 68.8363 99.2934 67.6329L96.8865 67.1171ZM91.5353 79.6461V81.8811H98.1759V79.6461H91.5353ZM90.6542 74.5743V82.9556H93.0396V76.8093H97.0799V82.8697H99.5728V74.5743H90.6542ZM106.794 63.9795V64.8821C106.321 66.3864 105.332 69.7175 104.473 71.7805C106.213 73.4568 106.665 75.0256 106.686 76.1861C106.686 76.9383 106.536 77.4111 106.17 77.6475C105.955 77.7764 105.676 77.8409 105.375 77.8409C105.053 77.8624 104.623 77.8409 104.15 77.8194C104.559 78.5286 104.773 79.6246 104.795 80.3338C105.418 80.3553 106.02 80.3553 106.514 80.2908C107.073 80.2048 107.567 80.0329 107.997 79.7321C108.814 79.1733 109.179 78.1203 109.179 76.53C109.158 75.0901 108.814 73.3923 107.03 71.4797C107.868 69.6315 108.814 67.1601 109.587 65.0755L107.696 63.8935L107.288 63.9795H106.794ZM116.765 63.5282V65.4623H121.622V63.5282H116.765ZM122.632 65.14V67.1816H127.725V65.14H122.632ZM122.245 69.0727V71.1358H131.056V69.0727H122.245ZM115.97 66.4294V68.3635H122.288V66.4294H115.97ZM116.636 69.3091V71.2433H121.751V69.3091H116.636ZM116.636 72.2533V74.209H121.751V72.2533H116.636ZM116.443 75.262V82.6978H118.441V75.262H116.443ZM117.646 75.262V77.2177H120.096V79.6031H117.646V81.5588H122.138V75.262H117.646ZM124.029 62.776V70.6201H126.243V62.776H124.029ZM128.843 63.1628C127.511 67.9767 124.932 71.888 121.257 74.166C121.73 74.5743 122.546 75.4125 122.847 75.8423C126.629 73.1989 129.38 68.9438 130.971 63.6356L128.843 63.1628ZM123.728 73.2634V82.8912H125.92V75.3695H127.962V82.8052H130.24V73.2634H123.728ZM124.738 76.8093V78.679H129.122V76.8093H124.738ZM124.738 80.1404V82.225H129.122V80.1404H124.738ZM127.21 71.888C127.833 72.3608 128.542 73.0915 128.843 73.5643L130.326 72.4897C129.982 71.9955 129.251 71.3292 128.628 70.8994L127.21 71.888ZM114.272 62.819C113.434 65.7847 112.016 68.7074 110.426 70.6415C110.791 71.3078 111.393 72.8121 111.565 73.4138C113.606 70.9424 115.454 67.0741 116.572 63.5067L114.272 62.819ZM112.811 68.9653V82.9127H115.067V66.7732L115.024 66.7518L112.811 68.9653ZM141.522 62.9049V68.1271H143.908V62.9049H141.522ZM147.088 62.9049V68.1271H149.517V62.9049H147.088ZM145.735 72.7261V82.8482H147.755V72.7261H145.735ZM138.449 64.4523V66.6658H152.397V64.4523H138.449ZM142.962 75.0686V76.7449H150.57V75.0686H142.962ZM142.962 77.9483V79.6031H150.57V77.9483H142.962ZM139.61 68.6859V70.8994H152.526V68.6859H139.61ZM138.557 68.6859V73.3923C138.557 75.8208 138.428 79.1088 136.859 81.4298C137.375 81.7092 138.363 82.5473 138.75 82.9986C140.577 80.3768 140.899 76.2506 140.899 73.4353V68.6859H138.557ZM141.673 71.9955V82.9127H143.822V73.8436H150.849V71.9955H141.673ZM149.818 71.9955V80.7206C149.818 80.9355 149.775 81 149.56 81C149.366 81.0215 148.829 81.0215 148.249 81C148.507 81.5373 148.743 82.3754 148.808 82.9342C149.904 82.9556 150.677 82.9127 151.279 82.5903C151.881 82.2465 152.01 81.7092 152.01 80.7636V71.9955H149.818ZM136.171 62.7975C135.247 65.9351 133.657 69.0942 131.916 71.1143C132.324 71.802 132.948 73.2634 133.163 73.9081C135.355 71.3292 137.332 67.246 138.557 63.4852L136.171 62.7975ZM134.473 68.6859V82.9127H136.923V66.3649L136.859 66.3219L134.473 68.6859ZM162.11 63.2703C161.96 66.0855 162.261 75.9067 153.622 80.6991C154.503 81.3009 155.341 82.096 155.792 82.7622C164.582 77.3681 164.861 66.8807 165.055 63.2703H162.11ZM164.969 63.829L162.476 64.0869C162.648 66.3005 163.056 78.1418 172.318 82.7407C172.705 82.0315 173.479 81.1719 174.295 80.5487C165.484 76.4225 165.033 65.6987 164.969 63.829ZM184.332 62.733L184.439 79.7321C184.461 80.1619 184.289 80.2908 183.816 80.3123C183.365 80.3123 181.796 80.3338 180.356 80.2908C180.764 81 181.215 82.2035 181.344 82.9771C183.45 82.9556 184.955 82.8912 185.9 82.4614C186.867 82.0101 187.19 81.3009 187.168 79.7106L187.061 62.7115L184.332 62.733ZM175.972 66.6013V69.1372H194.905V66.6013H175.972ZM190.65 69.61C187.598 72.7261 181.237 75.6703 175.198 77.0457C175.628 77.6475 176.294 78.7865 176.616 79.4742C182.913 77.8409 189.145 74.8322 193.207 71.1788L190.65 69.61Z" fill="black"/>
<defs>
<linearGradient id="paint0_linear_118_357" x1="132.18" y1="565" x2="132.18" y2="687" gradientUnits="userSpaceOnUse">
<stop stop-color="#D9D9D9" stop-opacity="0.49"/>
<stop offset="1" stop-color="#D9D9D9" stop-opacity="0"/>
</linearGradient>
<linearGradient id="paint1_linear_118_357" x1="12.623" y1="101.943" x2="284.165" y2="588.845" gradientUnits="userSpaceOnUse">
<stop stop-color="#F06214"/>
<stop offset="1" stop-color="#FFAE2B"/>
</linearGradient>
<linearGradient id="paint2_linear_118_357" x1="12.623" y1="187.492" x2="30.0084" y2="327.482" gradientUnits="userSpaceOnUse">
<stop stop-color="#F06214"/>
<stop offset="1" stop-color="#FFAE2B"/>
</linearGradient>
<linearGradient id="paint3_linear_118_357" x1="132.18" y1="667.5" x2="132.18" y2="565" gradientUnits="userSpaceOnUse">
<stop stop-color="#F06214"/>
<stop offset="1" stop-color="#F1B594"/>
</linearGradient>
<linearGradient id="paint4_linear_118_357" x1="145.68" y1="296.5" x2="340.401" y2="514.066" gradientUnits="userSpaceOnUse">
<stop stop-color="#F06214"/>
<stop offset="0.848945" stop-color="#FFAE2B"/>
</linearGradient>
<linearGradient id="paint5_linear_118_357" x1="131.7" y1="277.53" x2="131.7" y2="119.95" gradientUnits="userSpaceOnUse">
<stop offset="0.8125" stop-color="#FFE8B4"/>
<stop offset="1" stop-color="white" stop-opacity="0"/>
</linearGradient>
<linearGradient id="paint6_linear_118_357" x1="132.18" y1="150.5" x2="132.18" y2="375.5" gradientUnits="userSpaceOnUse">
<stop stop-color="white"/>
<stop offset="1" stop-color="white" stop-opacity="0"/>
</linearGradient>
<linearGradient id="paint7_linear_118_357" x1="0.179688" y1="702.042" x2="263.27" y2="702.042" gradientUnits="userSpaceOnUse">
<stop stop-color="#F16315"/>
<stop offset="1" stop-color="#F97830"/>
</linearGradient>
<linearGradient id="paint8_linear_118_357" x1="131.997" y1="18.5676" x2="131.997" y2="198.293" gradientUnits="userSpaceOnUse">
<stop stop-color="#F06214"/>
<stop offset="1" stop-color="#F1B594"/>
</linearGradient>
<clipPath id="clip0_118_357">
<rect width="68" height="68" fill="white" transform="translate(98.1797 155)"/>
</clipPath>
<clipPath id="clip1_118_357">
<rect width="183.635" height="140" fill="white" transform="translate(40.1797)"/>
</clipPath>
</defs>
</svg>
