<svg width="96" height="110" viewBox="0 0 96 110" fill="none" xmlns="http://www.w3.org/2000/svg">
<g clip-path="url(#clip0_134_1936)">
<path d="M47.9067 54.9857L0.273438 27.4928L47.592 0L95.2253 27.4928L47.9067 54.9857Z" fill="url(#paint0_linear_134_1936)"/>
<path d="M95.2268 27.4928L47.9082 54.9856V110L95.2268 82.5071V27.4928Z" fill="url(#paint1_linear_134_1936)"/>
<path d="M0.273438 27.4928V82.5071L47.9067 110V54.9856L0.273438 27.4928Z" fill="url(#paint2_linear_134_1936)"/>
</g>
<g clip-path="url(#clip1_134_1936)">
<path d="M48.2176 79.4157C61.7188 79.4157 72.6637 68.4709 72.6637 54.9697C72.6637 41.4684 61.7188 30.5236 48.2176 30.5236C34.7164 30.5236 23.7715 41.4684 23.7715 54.9697C23.7715 68.4709 34.7164 79.4157 48.2176 79.4157Z" stroke="#005CAF" stroke-width="3" stroke-miterlimit="10"/>
<path d="M35.7441 49.1836C37.1081 38.4749 42.1761 30.5236 48.2191 30.5236C54.262 30.5236 59.329 38.4749 60.694 49.1836" stroke="#005CAF" stroke-width="3" stroke-miterlimit="10"/>
<path d="M60.4445 62.4354C58.787 72.285 53.9394 79.4146 48.2173 79.4146C42.4953 79.4146 37.6477 72.285 35.9902 62.4354" stroke="#005CAF" stroke-width="3" stroke-miterlimit="10"/>
<path d="M26.1074 44.53H36.608" stroke="#005CAF" stroke-width="3" stroke-miterlimit="10"/>
<path d="M23.7715 55.0488H34.2162" stroke="#005CAF" stroke-width="3" stroke-miterlimit="10"/>
<path d="M59.7891 65.5687H70.3099" stroke="#005CAF" stroke-width="3" stroke-miterlimit="10"/>
<path d="M26.2578 65.5687H36.6182" stroke="#005CAF" stroke-width="3" stroke-miterlimit="10"/>
<path d="M48.2197 69.5937C55.9597 69.5937 62.2343 63.3191 62.2343 55.5791C62.2343 47.839 55.9597 41.5645 48.2197 41.5645C40.4796 41.5645 34.2051 47.839 34.2051 55.5791C34.2051 63.3191 40.4796 69.5937 48.2197 69.5937Z" stroke="#005CAF" stroke-width="3" stroke-miterlimit="10"/>
<path d="M48.2188 69.5936V79.4147" stroke="#005CAF" stroke-width="3" stroke-miterlimit="10"/>
<path d="M62.2324 55.0488H72.6629" stroke="#005CAF" stroke-width="3" stroke-miterlimit="10"/>
<path d="M59.8281 44.53H70.3094" stroke="#005CAF" stroke-width="3" stroke-miterlimit="10"/>
<path d="M73.172 79.9226L69.5137 76.2643" stroke="#005CAF" stroke-width="3" stroke-miterlimit="10"/>
<path d="M27.007 33.7583L23.3477 30.099" stroke="#005CAF" stroke-width="3" stroke-miterlimit="10"/>
<path d="M23.3477 79.9226L27.007 76.2643" stroke="#005CAF" stroke-width="3" stroke-miterlimit="10"/>
<path d="M69.5137 33.7583L73.172 30.099" stroke="#005CAF" stroke-width="3" stroke-miterlimit="10"/>
<path d="M48.2188 30.5236V41.5664" stroke="#005CAF" stroke-width="3" stroke-miterlimit="10"/>
<path d="M49.6277 46.1924H47.0765V47.9098C46.5088 48.0927 45.9938 48.4065 45.5693 48.831C44.8441 49.5562 44.444 50.5413 44.444 51.6047C44.444 52.7503 44.8106 53.6095 45.6038 54.3144C46.2985 54.9126 46.8459 55.2477 47.9387 55.7444C49.5719 56.5223 50.1223 57.0484 50.1223 57.8295C50.1223 58.3291 49.9913 58.7425 49.7395 59.0502C49.709 59.0858 49.6785 59.1193 49.646 59.1508C49.3271 59.4697 48.9158 59.618 48.3511 59.618C47.1862 59.618 46.5372 58.9284 46.0334 57.1591L45.8455 56.499L43.5137 57.9107L43.5878 58.2723C43.9839 60.1928 45.3012 61.6187 47.0745 62.0859V63.7851H49.6257V62.0717C50.3519 61.8848 50.9897 61.5192 51.527 60.982C51.5757 60.9332 51.6234 60.8824 51.6681 60.8337C52.4339 60.0039 52.8219 58.9802 52.8219 57.7898V57.7675C52.762 56.3659 52.2765 55.4265 51.204 54.6272C50.5367 54.1224 50.1457 53.9183 49.3992 53.5455L48.3887 53.0215C48.214 52.926 47.9966 52.7767 47.7224 52.5878L47.7001 52.5726C47.2329 52.207 47.1435 51.9033 47.1435 51.4716C47.1435 51.1588 47.2674 50.8562 47.4827 50.6409C47.6198 50.5037 47.8555 50.3402 48.1998 50.3402C48.8416 50.3402 49.2916 50.522 49.8309 51.4828L50.1041 51.9693L52.3029 50.5454L52.0896 50.1249C51.5087 48.9823 50.682 48.243 49.6267 47.922V46.1914L49.6277 46.1924Z" fill="#005CAF"/>
</g>
<defs>
<linearGradient id="paint0_linear_134_1936" x1="0.273438" y1="27.4928" x2="95.2253" y2="27.4928" gradientUnits="userSpaceOnUse">
<stop stop-color="#F5F9FF"/>
<stop offset="0.5" stop-color="#F0F5FF"/>
<stop offset="1" stop-color="#E8F0FF"/>
</linearGradient>
<linearGradient id="paint1_linear_134_1936" x1="47.9082" y1="68.7464" x2="95.2268" y2="68.7464" gradientUnits="userSpaceOnUse">
<stop stop-color="#F5F9FF"/>
<stop offset="0.5" stop-color="#F0F5FF"/>
<stop offset="1" stop-color="#E8F0FF"/>
</linearGradient>
<linearGradient id="paint2_linear_134_1936" x1="0.273438" y1="68.7464" x2="47.9067" y2="68.7464" gradientUnits="userSpaceOnUse">
<stop stop-color="#F5F9FF"/>
<stop offset="0.5" stop-color="#F0F5FF"/>
<stop offset="1" stop-color="#E8F0FF"/>
</linearGradient>
<clipPath id="clip0_134_1936">
<rect width="94.9519" height="110" fill="white" transform="translate(0.273438)"/>
</clipPath>
<clipPath id="clip1_134_1936">
<rect width="52" height="52" fill="white" transform="translate(22 29)"/>
</clipPath>
</defs>
</svg>
