<svg width="96" height="110" viewBox="0 0 96 110" fill="none" xmlns="http://www.w3.org/2000/svg">
<g clip-path="url(#clip0_134_1285)">
<path d="M47.9067 54.9857L0.273438 27.4928L47.592 0L95.2253 27.4928L47.9067 54.9857Z" fill="url(#paint0_linear_134_1285)"/>
<path d="M95.2268 27.4928L47.9082 54.9856V110L95.2268 82.5071V27.4928Z" fill="url(#paint1_linear_134_1285)"/>
<path d="M0.273438 27.4928V82.5071L47.9067 110V54.9856L0.273438 27.4928Z" fill="url(#paint2_linear_134_1285)"/>
</g>
<g clip-path="url(#clip1_134_1285)">
<path d="M72.7265 79.4766H54.4453V55.1017H72.7265V79.4766Z" stroke="#005CAF" stroke-width="3" stroke-miterlimit="13.33"/>
<path d="M68.1562 61.1954H59.0156" stroke="#005CAF" stroke-width="3" stroke-miterlimit="13.33"/>
<path d="M59.0156 73.3828H62.0625" stroke="#005CAF" stroke-width="3" stroke-miterlimit="13.33"/>
<path d="M59.0156 67.2892H62.0625" stroke="#005CAF" stroke-width="3" stroke-miterlimit="13.33"/>
<path d="M65.1094 73.3828H68.1562" stroke="#005CAF" stroke-width="3" stroke-miterlimit="13.33"/>
<path d="M65.1094 67.2892H68.1562" stroke="#005CAF" stroke-width="3" stroke-miterlimit="13.33"/>
<path d="M54.4454 79.4766H23.7734V30.5234H51.3986L60.5391 39.664V55.1017" stroke="#005CAF" stroke-width="3" stroke-miterlimit="13.33"/>
<path d="M48.3515 49.008C48.3515 54.0559 44.2588 58.1486 39.2109 58.1486C34.163 58.1486 30.0703 54.0559 30.0703 49.008C30.0703 43.9601 34.163 39.8674 39.2109 39.8674C44.2588 39.8674 48.3515 43.9601 48.3515 49.008Z" stroke="#005CAF" stroke-width="3" stroke-miterlimit="13.33"/>
<path d="M30.0703 73.3828H48.3515" stroke="#005CAF" stroke-width="3" stroke-miterlimit="13.33" stroke-linecap="square"/>
<path d="M30.0703 68.7532H48.3515" stroke="#005CAF" stroke-width="3" stroke-miterlimit="13.33" stroke-linecap="square"/>
<path d="M30.0703 63.9543H48.3515" stroke="#005CAF" stroke-width="3" stroke-miterlimit="13.33" stroke-linecap="square"/>
<path d="M60.539 39.664H51.3984V30.5234" stroke="#005CAF" stroke-width="3" stroke-miterlimit="13.33"/>
<path d="M40.0198 43.9964V44.0964V44.1002V44.9811C40.5973 45.1779 41.0492 45.5982 41.3664 46.2228L41.3664 46.2229L41.4837 46.4545L41.5244 46.5347L41.4489 46.5836L40.237 47.3682L40.1475 47.4261L40.0954 47.333L39.9454 47.065C39.8006 46.807 39.6741 46.6656 39.5506 46.5869C39.4295 46.5098 39.3005 46.4862 39.1338 46.4862C38.9786 46.4862 38.8723 46.559 38.8091 46.6222C38.7097 46.7216 38.6518 46.8627 38.6518 47.0092C38.6518 47.121 38.6636 47.2057 38.6996 47.2837C38.7352 47.3611 38.7989 47.4411 38.9181 47.535L38.9276 47.5415L38.9279 47.5417C39.0795 47.6466 39.1949 47.7253 39.2852 47.7749L39.8403 48.0627C40.2531 48.2691 40.475 48.3851 40.8498 48.6683C41.1548 48.8955 41.3804 49.1461 41.5333 49.4432C41.6862 49.7402 41.7636 50.0777 41.7808 50.4745L41.781 50.4788H41.7809V50.491C41.7809 51.1712 41.5585 51.7602 41.1186 52.2367M40.0198 43.9964L37.7017 48.573C38.0841 48.9029 38.3865 49.0872 38.989 49.3614L38.946 49.4517C38.9463 49.4518 38.9465 49.4519 38.9468 49.452C39.3952 49.6657 39.6834 49.8396 39.8594 50.0076C40.0299 50.1705 40.0925 50.3252 40.0925 50.5108C40.0925 50.7687 40.0252 50.9722 39.9046 51.1203C39.8897 51.1379 39.875 51.1539 39.8598 51.1691C39.7071 51.3218 39.5089 51.3973 39.2168 51.3973C38.9188 51.3973 38.6967 51.3106 38.514 51.1167C38.3263 50.9175 38.1728 50.5975 38.0356 50.1148L38.0356 50.1147L37.932 49.7514L37.8961 49.6255L37.784 49.6933L36.499 50.471L36.4386 50.5076L36.4528 50.5767L36.494 50.7763L36.494 50.7763C36.7142 51.8429 37.4352 52.6463 38.4137 52.9343V53.7954V53.8954H38.5137H39.9198H40.0198V53.7954V52.9271C40.4064 52.8145 40.7485 52.6107 41.0379 52.3213C41.0658 52.2934 41.0935 52.2642 41.1186 52.2367M40.0198 43.9964H39.9198H38.5137H38.4137V44.0964V44.9716L40.0198 43.9964ZM41.1186 52.2367C41.1185 52.2368 41.1184 52.2369 41.1184 52.2369L41.0449 52.1691L41.1187 52.2366C41.1187 52.2366 41.1186 52.2367 41.1186 52.2367Z" fill="#005CAF" stroke="#005CAF" stroke-width="0.2"/>
</g>
<defs>
<linearGradient id="paint0_linear_134_1285" x1="0.273438" y1="27.4928" x2="95.2253" y2="27.4928" gradientUnits="userSpaceOnUse">
<stop stop-color="#F5F9FF"/>
<stop offset="0.5" stop-color="#F0F5FF"/>
<stop offset="1" stop-color="#E8F0FF"/>
</linearGradient>
<linearGradient id="paint1_linear_134_1285" x1="47.9082" y1="68.7464" x2="95.2268" y2="68.7464" gradientUnits="userSpaceOnUse">
<stop stop-color="#F5F9FF"/>
<stop offset="0.5" stop-color="#F0F5FF"/>
<stop offset="1" stop-color="#E8F0FF"/>
</linearGradient>
<linearGradient id="paint2_linear_134_1285" x1="0.273438" y1="68.7464" x2="47.9067" y2="68.7464" gradientUnits="userSpaceOnUse">
<stop stop-color="#F5F9FF"/>
<stop offset="0.5" stop-color="#F0F5FF"/>
<stop offset="1" stop-color="#E8F0FF"/>
</linearGradient>
<clipPath id="clip0_134_1285">
<rect width="94.9519" height="110" fill="white" transform="translate(0.273438)"/>
</clipPath>
<clipPath id="clip1_134_1285">
<rect width="52" height="52" fill="white" transform="translate(22 29)"/>
</clipPath>
</defs>
</svg>
