<svg width="55" height="46" viewBox="0 0 55 46" fill="none" xmlns="http://www.w3.org/2000/svg">
<path d="M0.599995 45.6001C7.64 43.8401 13.08 40.3201 17.24 35.0401C21.4 29.9201 23.32 23.6801 23.32 16.4801C23.32 12.0001 22.36 8.16009 20.28 5.28009C18.04 2.40009 15.16 0.800087 11.48 0.800087C8.44 0.800087 6.04 1.76009 4.12 3.5201C2.2 5.44009 1.08 7.8401 1.08 10.7201C1.08 13.6001 2.04 15.8401 3.8 17.7601C5.72 19.6801 8.12 20.4801 10.84 20.4801C12.44 20.4801 13.72 20.3201 14.36 20.0001C14.36 23.8401 13.24 27.3601 10.84 30.4001C8.28 33.9201 4.92 36.3201 0.599995 37.6001V45.6001ZM32.28 45.6001C39.32 43.8401 44.76 40.3201 48.76 35.0401C52.92 29.9201 55 23.6801 55 16.4801C55 11.8401 54.04 8.16009 51.8 5.28009C49.72 2.40009 46.84 0.800087 43.16 0.800087C39.96 0.800087 37.4 1.76009 35.48 3.5201C33.72 5.44009 32.76 7.8401 32.76 10.7201C32.76 13.6001 33.72 15.8401 35.64 17.7601C37.56 19.6801 39.8 20.4801 42.36 20.4801C44.12 20.4801 45.4 20.3201 46.04 20.0001C46.04 23.8401 44.92 27.3601 42.36 30.5601C39.96 33.9201 36.6 36.3201 32.28 37.6001V45.6001Z" fill="white"/>
</svg>
