<svg width="55" height="45" viewBox="0 0 55 45" fill="none" xmlns="http://www.w3.org/2000/svg">
<path d="M54.4 0C47.36 1.76001 41.92 5.28 37.76 10.56C33.6 15.68 31.68 21.92 31.68 29.12C31.68 33.6 32.64 37.44 34.72 40.32C36.96 43.2 39.84 44.8 43.52 44.8C46.56 44.8 48.96 43.84 50.88 42.08C52.8 40.16 53.92 37.76 53.92 34.88C53.92 32 52.96 29.76 51.2 27.84C49.28 25.92 46.88 25.12 44.16 25.12C42.56 25.12 41.28 25.28 40.64 25.6C40.64 21.76 41.76 18.24 44.16 15.2C46.72 11.68 50.08 9.28001 54.4 8V0ZM22.72 0C15.68 1.76001 10.24 5.28 6.24 10.56C2.08 15.68 0 21.92 0 29.12C0 33.76 0.960001 37.44 3.2 40.32C5.28 43.2 8.16 44.8 11.84 44.8C15.04 44.8 17.6 43.84 19.52 42.08C21.28 40.16 22.24 37.76 22.24 34.88C22.24 32 21.28 29.76 19.36 27.84C17.44 25.92 15.2 25.12 12.64 25.12C10.88 25.12 9.6 25.28 8.96 25.6C8.96 21.76 10.08 18.24 12.64 15.04C15.04 11.68 18.4 9.28001 22.72 8V0Z" fill="white"/>
</svg>
