<svg width="96" height="110" viewBox="0 0 96 110" fill="none" xmlns="http://www.w3.org/2000/svg">
<g clip-path="url(#clip0_134_634)">
<path d="M47.9067 54.9857L0.273438 27.4928L47.592 0L95.2253 27.4928L47.9067 54.9857Z" fill="url(#paint0_linear_134_634)"/>
<path d="M95.2268 27.4928L47.9082 54.9856V110L95.2268 82.5071V27.4928Z" fill="url(#paint1_linear_134_634)"/>
<path d="M0.273438 27.4928V82.5071L47.9067 110V54.9856L0.273438 27.4928Z" fill="url(#paint2_linear_134_634)"/>
</g>
<g clip-path="url(#clip1_134_634)">
<path d="M21.75 33.7736H73.75" stroke="#005CAF" stroke-width="3" stroke-miterlimit="10"/>
<path d="M21.75 67.2891H73.75" stroke="#005CAF" stroke-width="3" stroke-miterlimit="10"/>
<path d="M69.0781 33.7736V67.2892" stroke="#005CAF" stroke-width="3" stroke-miterlimit="10"/>
<path d="M26.4219 67.2892V33.7736" stroke="#005CAF" stroke-width="3" stroke-miterlimit="10"/>
<path d="M56.8906 45.9611V61.1954H32.5156V55.1017L44.7031 45.9611L50.7969 52.0548L62.9844 39.8673" stroke="#005CAF" stroke-width="3" stroke-miterlimit="10"/>
<path d="M55.3672 39.8673H62.9844V47.4845" stroke="#005CAF" stroke-width="3" stroke-miterlimit="10"/>
<path d="M38.6094 61.1954V50.5314" stroke="#005CAF" stroke-width="3" stroke-miterlimit="10"/>
<path d="M44.7031 45.9611V61.1954" stroke="#005CAF" stroke-width="3" stroke-miterlimit="10"/>
<path d="M50.7969 52.0548V61.1954" stroke="#005CAF" stroke-width="3" stroke-miterlimit="10"/>
<path d="M47.752 29.0002V33.7737" stroke="#005CAF" stroke-width="3" stroke-miterlimit="10"/>
<path d="M47.75 67.2892V73.3829" stroke="#005CAF" stroke-width="3" stroke-miterlimit="10"/>
<path d="M44.7051 76.4299C44.7051 78.1126 46.0693 79.4768 47.752 79.4768C49.4346 79.4768 50.7988 78.1126 50.7988 76.4299C50.7988 74.7472 49.4346 73.3831 47.752 73.3831C46.0693 73.3831 44.7051 74.7472 44.7051 76.4299Z" stroke="#005CAF" stroke-width="3" stroke-miterlimit="10"/>
</g>
<defs>
<linearGradient id="paint0_linear_134_634" x1="0.273438" y1="27.4928" x2="95.2253" y2="27.4928" gradientUnits="userSpaceOnUse">
<stop stop-color="#F5F9FF"/>
<stop offset="0.5" stop-color="#F0F5FF"/>
<stop offset="1" stop-color="#E8F0FF"/>
</linearGradient>
<linearGradient id="paint1_linear_134_634" x1="47.9082" y1="68.7464" x2="95.2268" y2="68.7464" gradientUnits="userSpaceOnUse">
<stop stop-color="#F5F9FF"/>
<stop offset="0.5" stop-color="#F0F5FF"/>
<stop offset="1" stop-color="#E8F0FF"/>
</linearGradient>
<linearGradient id="paint2_linear_134_634" x1="0.273438" y1="68.7464" x2="47.9067" y2="68.7464" gradientUnits="userSpaceOnUse">
<stop stop-color="#F5F9FF"/>
<stop offset="0.5" stop-color="#F0F5FF"/>
<stop offset="1" stop-color="#E8F0FF"/>
</linearGradient>
<clipPath id="clip0_134_634">
<rect width="94.9519" height="110" fill="white" transform="translate(0.273438)"/>
</clipPath>
<clipPath id="clip1_134_634">
<rect width="52" height="52" fill="white" transform="translate(21.75 29)"/>
</clipPath>
</defs>
</svg>
