<svg width="66" height="172" viewBox="0 0 66 172" fill="none" xmlns="http://www.w3.org/2000/svg">
<path d="M64.5 1.52118H1.5V30.2438H25.569L33 36.9483L40.431 30.2438H64.5V1.52118Z" fill="white" stroke="#005CAF" stroke-width="1.5" stroke-miterlimit="10"/>
<path d="M9.784 9.98493V10.8249H12.976V9.98493H9.784ZM13.676 11.1049V11.9729H17.036V11.1049H13.676ZM13.354 13.6109V14.4929H18.968V13.6109H13.354ZM9.238 11.8469V12.6729H13.452V11.8469H9.238ZM9.728 13.6669V14.5069H13.032V13.6669H9.728ZM9.728 15.5429V16.3829H13.032V15.5429H9.728ZM9.644 17.4469V22.1509H10.498V17.4469H9.644ZM10.134 17.4469V18.2869H12.318V20.4989H10.134V21.3529H13.186V17.4469H10.134ZM14.894 9.36893V14.2689H15.818V9.36893H14.894ZM17.918 9.69093C16.938 12.7709 15.202 15.3329 12.864 16.8869C13.074 17.0549 13.424 17.3909 13.564 17.5729C15.916 15.8649 17.722 13.1909 18.814 9.90093L17.918 9.69093ZM14.488 16.2569V22.2209H15.398V17.1389H17.526V22.1649H18.478V16.2569H14.488ZM14.922 18.5389V19.3649H18.016V18.5389H14.922ZM14.922 20.8069V21.6889H18.016V20.8069H14.922ZM16.518 15.0529C16.98 15.3609 17.484 15.8369 17.722 16.1729L18.338 15.6969C18.086 15.3609 17.568 14.9129 17.12 14.6189L16.518 15.0529ZM8.538 9.43893C7.936 11.4969 6.928 13.5129 5.78 14.8429C5.948 15.1089 6.214 15.6829 6.312 15.9209C7.6 14.3669 8.762 12.0149 9.49 9.70493L8.538 9.43893ZM7.544 12.8549V22.2209H8.482V11.9449L8.468 11.9309L7.544 12.8549ZM26.08 9.48093V12.7569H27.074V9.48093H26.08ZM29.692 9.48093V12.7569H30.7V9.48093H29.692ZM28.754 15.5009V22.1649H29.622V15.5009H28.754ZM23.812 10.6709V11.5949H32.898V10.6709H23.812ZM26.402 17.2229V17.9789H31.974V17.2229H26.402ZM26.402 19.1829V19.9249H31.974V19.1829H26.402ZM24.512 13.2469V14.1709H32.954V13.2469H24.512ZM24.05 13.2469V16.2569C24.05 17.8389 23.952 20.0229 22.944 21.5909C23.168 21.7169 23.574 22.0529 23.728 22.2349C24.834 20.5409 25.03 18.0209 25.03 16.2709V13.2469H24.05ZM25.87 15.2069V22.2349H26.78V16.0049H32.114V15.2069H25.87ZM31.68 15.2069V21.2129C31.68 21.3669 31.638 21.4089 31.47 21.4229C31.316 21.4369 30.826 21.4369 30.224 21.4229C30.35 21.6609 30.448 22.0109 30.49 22.2489C31.316 22.2489 31.848 22.2349 32.184 22.0949C32.52 21.9409 32.604 21.6889 32.604 21.2129V15.2069H31.68ZM22.748 9.43893C22.076 11.5949 20.97 13.7509 19.738 15.1509C19.92 15.4169 20.2 15.9769 20.298 16.2289C21.684 14.5909 22.93 12.1269 23.728 9.70493L22.748 9.43893ZM21.628 12.8689V22.2349H22.622V11.9309L22.594 11.9029L21.628 12.8689ZM36.65 9.35493V13.3589H37.658V9.35493H36.65ZM36.65 17.0409V22.2349H37.658V17.0409H36.65ZM35.628 15.6829H38.722V16.7749H35.628V15.6829ZM35.628 13.8069H38.722V14.8709H35.628V13.8069ZM34.676 12.9529V17.6149H39.702V12.9529H34.676ZM34.228 10.8389V11.7909H40.122V10.8389H34.228ZM42.908 14.3529V22.2209H43.944V14.3529H42.908ZM40.906 13.9889V14.9689H46.002V13.9889H40.906ZM40.22 16.9289V17.9089H46.772V16.9289H40.22ZM34.074 18.8049V19.7569H40.248V18.8049H34.074ZM43.44 10.4609C44.14 11.8049 45.386 13.4149 46.562 14.4369C46.716 14.1289 46.968 13.7369 47.164 13.4849C45.974 12.5889 44.686 10.9369 43.888 9.42493H42.908C42.32 10.8949 41.06 12.7149 39.744 13.7509C39.954 13.9749 40.192 14.3529 40.318 14.6189C41.634 13.5269 42.824 11.8189 43.44 10.4609ZM55.9 10.1949V22.2489H56.922V11.1889H60.1V10.1949H55.9ZM48.438 10.9089V11.8469H55.13V10.9089H48.438ZM48.074 14.7869V15.7529H55.312V14.7869H48.074ZM51.252 9.41093V11.4829H52.274V9.41093H51.252ZM49.306 12.3369C49.6 13.0509 49.838 14.0029 49.908 14.6189L50.846 14.3949C50.762 13.7789 50.496 12.8409 50.188 12.1409L49.306 12.3369ZM53.324 12.0429C53.156 12.7569 52.82 13.7929 52.54 14.4369L53.38 14.6609C53.688 14.0449 54.024 13.1069 54.332 12.2809L53.324 12.0429ZM49.39 20.4989V21.4369H53.996V20.4989H49.39ZM49.012 16.9709V22.2489H49.992V17.9089H53.52V22.1789H54.528V16.9709H49.012ZM59.82 10.1949V10.5309C59.4 11.6369 58.644 13.5689 57.93 15.0109C59.344 16.2429 59.75 17.2929 59.764 18.1749C59.764 18.6929 59.666 19.0989 59.358 19.2809C59.19 19.3789 58.994 19.4349 58.756 19.4489C58.476 19.4629 58.07 19.4489 57.664 19.4209C57.846 19.7149 57.944 20.1629 57.958 20.4569C58.364 20.4709 58.826 20.4849 59.176 20.4429C59.54 20.3869 59.848 20.2889 60.1 20.1349C60.59 19.7989 60.786 19.1409 60.786 18.2869C60.772 17.2789 60.436 16.1729 59.022 14.8709C59.666 13.5829 60.394 11.9589 60.968 10.6429L60.198 10.1529L60.03 10.1949H59.82Z" fill="black"/>
<rect width="66" height="67" transform="translate(0 103.822)" fill="url(#paint0_linear_203_4180)"/>
<path d="M18.872 127.79V128.654H31.256V127.79H18.872ZM19.416 129.534V130.366H30.76V129.534H19.416ZM20.472 135.406V136.334H29.608V135.406H20.472ZM17.88 131.294V132.19H32.136V131.294H17.88ZM24.344 127.102V131.694H25.544V127.102H24.344ZM24.36 133.294V135.806H25.512V133.294H24.36ZM19.848 132.942V139.134H21.032V133.838H29.544V132.942H19.848ZM29.032 132.942V137.918C29.032 138.126 28.952 138.19 28.712 138.206C28.488 138.222 27.624 138.222 26.712 138.19C26.872 138.462 27.032 138.846 27.096 139.134C28.36 139.134 29.128 139.134 29.608 138.974C30.072 138.814 30.216 138.526 30.216 137.934V132.942H29.032ZM21.544 124.398V127.422H22.712V124.398H21.544ZM27.176 124.398V127.422H28.36V124.398H27.176ZM17.976 125.342V126.334H32.056V125.342H17.976ZM33.896 133.39V134.51H48.104V133.39H33.896ZM35.56 129.63V133.838H36.712V130.702H45.32V133.838H46.536V129.63H35.56ZM40.296 127.79V132.222C40.296 134.478 39.704 136.782 33.608 138.142C33.864 138.398 34.184 138.878 34.328 139.15C40.664 137.63 41.544 134.958 41.544 132.238V127.79H40.296ZM41.736 133.79L40.664 134.062C41.848 136.942 44.152 138.51 47.72 139.15C47.896 138.814 48.216 138.318 48.488 138.046C45.048 137.582 42.76 136.222 41.736 133.79ZM34.088 125.87V126.958H47.832V125.87H34.088ZM37.48 124.398V128.638H38.664V124.398H37.48ZM43.24 124.398V128.638H44.424V124.398H43.24ZM18.792 148.03V148.974H31.16V148.03H18.792ZM19.672 149.886V150.782H30.28V149.886H19.672ZM17.896 151.71V152.638H32.072V151.71H17.896ZM21.544 155.598V156.334H28.264V155.598H21.544ZM24.36 148.478V152.174H25.592V148.478H24.36ZM24.392 153.038V154.462H25.544V153.038H24.392ZM20.968 146.734C21.416 147.246 21.88 147.966 22.056 148.446L23.176 147.982C22.952 147.518 22.488 146.83 22.008 146.35L20.968 146.734ZM27.816 146.366C27.576 146.83 27.16 147.566 26.808 148.03L27.816 148.35C28.2 147.934 28.664 147.31 29.08 146.686L27.816 146.366ZM27.736 151.966L26.776 152.318C27.816 153.934 29.736 155.374 31.656 156.03C31.832 155.742 32.184 155.326 32.424 155.086C30.536 154.558 28.664 153.342 27.736 151.966ZM25.144 157.502L24.2 157.758C25.592 159.662 28.28 160.734 31.48 161.134C31.624 160.814 31.912 160.35 32.152 160.11C29.064 159.854 26.392 159.006 25.144 157.502ZM21.672 153.934V154.75H27.912V157.214H21.672V158.03H29.112V153.934H21.672ZM20.888 153.934V160.222H22.072V153.934H20.888ZM19.032 159.902L19.176 160.974C21.032 160.798 23.672 160.558 26.2 160.318V159.342C23.544 159.566 20.792 159.774 19.032 159.902ZM30.12 157.71C29.384 158.206 28.104 158.894 27.176 159.294L27.864 159.79C28.84 159.422 30.072 158.862 31.016 158.27L30.12 157.71ZM22.2 151.966C21.208 153.422 19.384 154.622 17.496 155.358C17.768 155.582 18.184 156.014 18.344 156.238C20.216 155.374 22.184 153.998 23.304 152.302L22.2 151.966ZM35.72 152.382V153.502H39.704V152.382H35.72ZM39.224 152.382V152.59C39.176 156.046 39.096 157.246 38.856 157.534C38.744 157.678 38.584 157.694 38.36 157.694C38.088 157.694 37.384 157.694 36.664 157.63C36.84 157.934 36.968 158.398 37 158.75C37.784 158.782 38.504 158.798 38.92 158.75C39.368 158.702 39.624 158.59 39.88 158.302C40.216 157.854 40.312 156.51 40.392 152.894C40.392 152.734 40.392 152.382 40.392 152.382H39.224ZM43.736 147.198C44.744 147.726 45.976 148.542 46.584 149.102L47.336 148.286C46.712 147.726 45.448 146.958 44.456 146.446L43.736 147.198ZM46.024 151.534C44.824 155.39 42.568 158.318 39.32 160.046C39.576 160.286 40.024 160.782 40.2 161.022C43.48 159.086 45.864 155.998 47.224 151.822L46.024 151.534ZM35.816 149.102V150.286H48.2V149.102H35.816ZM35.048 149.102V153.598C35.048 155.694 34.904 158.446 33.576 160.414C33.864 160.558 34.376 160.974 34.584 161.214C36.04 159.118 36.296 155.886 36.296 153.614V149.102H35.048ZM41.688 146.414C41.752 154.078 43.192 160.99 46.456 160.99C47.672 160.99 48.12 160.206 48.344 157.47C48.024 157.358 47.576 157.086 47.304 156.814C47.208 158.942 47 159.774 46.552 159.774C44.472 159.774 42.904 153.774 42.936 146.414H41.688Z" fill="black"/>
<path d="M0 170.822H66" stroke="url(#paint1_linear_203_4180)" stroke-width="1.21108" stroke-miterlimit="10"/>
<path d="M9.14844 75.6238V103.709L33.2368 117.612L57.3252 103.709V75.6238L33.2368 61.7206L9.14844 75.6238Z" fill="url(#paint2_linear_203_4180)"/>
<path d="M57.3252 75.6238L33.2368 89.5391L9.14844 75.6238L33.2368 61.7206L57.3252 75.6238Z" fill="url(#paint3_linear_203_4180)"/>
<path opacity="0.27" d="M57.3267 75.6238V103.709L33.2383 117.612V89.5391L57.3267 75.6238Z" fill="url(#paint4_linear_203_4180)"/>
<path d="M9 66.406V69.3055L33.0896 83.2077L57.1793 69.3055V66.406L33.0896 52.5038L9 66.406Z" fill="url(#paint5_linear_203_4180)"/>
<path d="M57.1761 66.406L33.0865 80.3209L9 66.406L33.0896 52.5038L57.1793 66.406H57.1761Z" fill="url(#paint6_linear_203_4180)"/>
<path opacity="0.08" d="M57.3252 103.709L33.2368 117.612L9.14844 103.709L33.2368 89.7934L57.3252 103.709Z" fill="url(#paint7_linear_203_4180)"/>
<g clip-path="url(#clip0_203_4180)">
<path d="M34.7891 58.0701L34.2493 60.2286H31.9828L31.4434 58.0701" stroke="#005CAF" stroke-width="1.25926" stroke-miterlimit="10"/>
<path d="M31.9844 57.962H34.2509" stroke="#005CAF" stroke-width="1.25926" stroke-miterlimit="10"/>
<path d="M31.418 64.7994L31.9846 60.2286H34.2511L34.8177 64.7994" stroke="#005CAF" stroke-width="1.25926" stroke-miterlimit="10"/>
<path d="M35.9492 62.4951H38.2157" stroke="#005CAF" stroke-width="1.25926" stroke-miterlimit="10"/>
<path d="M36.5157 51.1625C37.1417 51.1625 37.649 51.6699 37.649 52.2958C37.649 52.9217 37.1417 53.4291 36.5157 53.4291C36.5157 54.9072 35.5668 56.1523 34.2492 56.6207V57.9621L39.9155 60.2286V64.7994H26.3164V60.2286L31.9827 57.9621V56.6207C30.6651 56.1523 29.7162 54.9072 29.7162 53.4291C29.0902 53.4291 28.5829 52.9217 28.5829 52.2958C28.5829 51.6699 29.0902 51.1625 29.7162 51.1625V49.9915H30.8494C31.4754 49.9915 31.9827 49.4842 31.9827 48.8582H34.2492C34.2492 49.4842 34.7565 49.9915 35.3825 49.9915H36.5157V51.1625Z" stroke="#005CAF" stroke-width="1.25926" stroke-miterlimit="10"/>
<path d="M34.2509 53.4291C34.2509 54.055 33.7436 54.5623 33.1176 54.5623C32.4917 54.5623 31.9844 54.055 31.9844 53.4291" stroke="#005CAF" stroke-width="1.25926" stroke-miterlimit="10"/>
<path d="M29.7168 49.9915V48.8583C29.7168 47.6064 30.7314 46.5917 31.9833 46.5917H34.2498C35.5017 46.5917 36.5163 47.6064 36.5163 48.8583V49.9915" stroke="#005CAF" stroke-width="1.25926" stroke-miterlimit="10"/>
</g>
<defs>
<linearGradient id="paint0_linear_203_4180" x1="33" y1="0" x2="33" y2="67" gradientUnits="userSpaceOnUse">
<stop stop-color="#E8E8E8"/>
<stop offset="1" stop-color="white" stop-opacity="0"/>
</linearGradient>
<linearGradient id="paint1_linear_203_4180" x1="37.602" y1="171.822" x2="37.602" y2="170.207" gradientUnits="userSpaceOnUse">
<stop stop-color="#1F5099"/>
<stop offset="1" stop-color="#3B72C4"/>
</linearGradient>
<linearGradient id="paint2_linear_203_4180" x1="36.5961" y1="117.612" x2="36.596" y2="27.3119" gradientUnits="userSpaceOnUse">
<stop stop-color="#1F5099"/>
<stop offset="1" stop-color="#3B72C4"/>
</linearGradient>
<linearGradient id="paint3_linear_203_4180" x1="33.3029" y1="64.2675" x2="33.3029" y2="89.5383" gradientUnits="userSpaceOnUse">
<stop stop-color="#1F5099"/>
<stop offset="1" stop-color="#3B72C4"/>
</linearGradient>
<linearGradient id="paint4_linear_203_4180" x1="57.3839" y1="88.8768" x2="33.3039" y2="101.843" gradientUnits="userSpaceOnUse">
<stop stop-color="#1F5099"/>
<stop offset="1" stop-color="#3B72C4"/>
</linearGradient>
<linearGradient id="paint5_linear_203_4180" x1="33.0896" y1="83.2077" x2="33.0896" y2="33.5992" gradientUnits="userSpaceOnUse">
<stop offset="0.36" stop-color="#E9F2FF"/>
<stop offset="1" stop-color="white" stop-opacity="0"/>
</linearGradient>
<linearGradient id="paint6_linear_203_4180" x1="33.2407" y1="-2.43137" x2="33.2407" y2="114.05" gradientUnits="userSpaceOnUse">
<stop stop-color="white"/>
<stop offset="1" stop-color="white" stop-opacity="0"/>
</linearGradient>
<linearGradient id="paint7_linear_203_4180" x1="36.5961" y1="117.612" x2="36.5961" y2="97.9945" gradientUnits="userSpaceOnUse">
<stop stop-color="#1F5099"/>
<stop offset="1" stop-color="#3B72C4"/>
</linearGradient>
<clipPath id="clip0_203_4180">
<rect width="14.7323" height="19.3409" fill="white" transform="translate(25.75 46.0251)"/>
</clipPath>
</defs>
</svg>
