<svg width="264" height="464" viewBox="0 0 264 464" fill="none" xmlns="http://www.w3.org/2000/svg">
<g clip-path="url(#clip0_118_354)">
<path d="M209.153 1.24922H54.25V96.1899H106.168L131.702 118.351L157.236 96.1899H209.153V1.24922Z" fill="white" stroke="#F5F3F3" stroke-width="2.49844" stroke-miterlimit="10"/>
<path d="M195.636 15.9151H67.7656V83.9725H114.736L131.701 98.6883L148.665 83.9725H195.636V15.9151Z" fill="white" stroke="url(#paint0_linear_118_354)" stroke-width="2.49844" stroke-miterlimit="10"/>
</g>
<rect y="325" width="263" height="122" fill="url(#paint1_linear_118_354)"/>
<path d="M55.4746 235.44V324.651L131.991 368.814L208.507 324.651V235.44L131.991 191.277L55.4746 235.44Z" fill="url(#paint2_linear_118_354)"/>
<path d="M208.507 235.44L131.991 279.642L55.4746 235.44L131.991 191.277L208.507 235.44Z" fill="url(#paint3_linear_118_354)"/>
<path opacity="0.27" d="M208.508 235.44V324.651L131.992 368.814V279.642L208.508 235.44Z" fill="url(#paint4_linear_118_354)"/>
<path d="M55 206.16V215.37L131.52 259.53L208.04 215.37V206.16L131.52 162L55 206.16Z" fill="url(#paint5_linear_118_354)"/>
<path d="M208.03 206.16L131.51 250.36L55 206.16L131.52 162L208.04 206.16H208.03Z" fill="url(#paint6_linear_118_354)"/>
<path opacity="0.08" d="M208.507 324.651L131.991 368.814L55.4746 324.651L131.991 280.449L208.507 324.651Z" fill="url(#paint7_linear_118_354)"/>
<path d="M0 461.542H263.09" stroke="url(#paint8_linear_118_354)" stroke-width="3.84696" stroke-miterlimit="10"/>
<path d="M86.808 394.745V396.041H105.384V394.745H86.808ZM87.624 397.361V398.609H104.64V397.361H87.624ZM89.208 406.169V407.561H102.912V406.169H89.208ZM85.32 400.001V401.345H106.704V400.001H85.32ZM95.016 393.713V400.601H96.816V393.713H95.016ZM95.04 403.001V406.769H96.768V403.001H95.04ZM88.272 402.473V411.761H90.048V403.817H102.816V402.473H88.272ZM102.048 402.473V409.937C102.048 410.249 101.928 410.345 101.568 410.369C101.232 410.393 99.936 410.393 98.568 410.345C98.808 410.753 99.048 411.329 99.144 411.761C101.04 411.761 102.192 411.761 102.912 411.521C103.608 411.281 103.824 410.849 103.824 409.961V402.473H102.048ZM90.816 389.657V394.193H92.568V389.657H90.816ZM99.264 389.657V394.193H101.04V389.657H99.264ZM85.464 391.073V392.561H106.584V391.073H85.464ZM109.344 403.145V404.825H130.656V403.145H109.344ZM111.84 397.505V403.817H113.568V399.113H126.48V403.817H128.304V397.505H111.84ZM118.944 394.745V401.393C118.944 404.777 118.056 408.233 108.912 410.273C109.296 410.657 109.776 411.377 109.992 411.785C119.496 409.505 120.816 405.497 120.816 401.417V394.745H118.944ZM121.104 403.745L119.496 404.153C121.272 408.473 124.728 410.825 130.08 411.785C130.344 411.281 130.824 410.537 131.232 410.129C126.072 409.433 122.64 407.393 121.104 403.745ZM109.632 391.865V393.497H130.248V391.865H109.632ZM114.72 389.657V396.017H116.496V389.657H114.72ZM123.36 389.657V396.017H125.136V389.657H123.36ZM134.688 392.105V393.521H153.24V392.105H134.688ZM136.008 394.889V396.233H151.92V394.889H136.008ZM133.344 397.625V399.017H154.608V397.625H133.344ZM138.816 403.457V404.561H148.896V403.457H138.816ZM143.04 392.777V398.321H144.888V392.777H143.04ZM143.088 399.617V401.753H144.816V399.617H143.088ZM137.952 390.161C138.624 390.929 139.32 392.009 139.584 392.729L141.264 392.033C140.928 391.337 140.232 390.305 139.512 389.585L137.952 390.161ZM148.224 389.609C147.864 390.305 147.24 391.409 146.712 392.105L148.224 392.585C148.8 391.961 149.496 391.025 150.12 390.089L148.224 389.609ZM148.104 398.009L146.664 398.537C148.224 400.961 151.104 403.121 153.984 404.105C154.248 403.673 154.776 403.049 155.136 402.689C152.304 401.897 149.496 400.073 148.104 398.009ZM144.216 406.313L142.8 406.697C144.888 409.553 148.92 411.161 153.72 411.761C153.936 411.281 154.368 410.585 154.728 410.225C150.096 409.841 146.088 408.569 144.216 406.313ZM139.008 400.961V402.185H148.368V405.881H139.008V407.105H150.168V400.961H139.008ZM137.832 400.961V410.393H139.608V400.961H137.832ZM135.048 409.913L135.264 411.521C138.048 411.257 142.008 410.897 145.8 410.537V409.073C141.816 409.409 137.688 409.721 135.048 409.913ZM151.68 406.625C150.576 407.369 148.656 408.401 147.264 409.001L148.296 409.745C149.76 409.193 151.608 408.353 153.024 407.465L151.68 406.625ZM139.8 398.009C138.312 400.193 135.576 401.993 132.744 403.097C133.152 403.433 133.776 404.081 134.016 404.417C136.824 403.121 139.776 401.057 141.456 398.513L139.8 398.009ZM160.08 398.633V400.313H166.056V398.633H160.08ZM165.336 398.633V398.945C165.264 404.129 165.144 405.929 164.784 406.361C164.616 406.577 164.376 406.601 164.04 406.601C163.632 406.601 162.576 406.601 161.496 406.505C161.76 406.961 161.952 407.657 162 408.185C163.176 408.233 164.256 408.257 164.88 408.185C165.552 408.113 165.936 407.945 166.32 407.513C166.824 406.841 166.968 404.825 167.088 399.401C167.088 399.161 167.088 398.633 167.088 398.633H165.336ZM172.104 390.857C173.616 391.649 175.464 392.873 176.376 393.713L177.504 392.489C176.568 391.649 174.672 390.497 173.184 389.729L172.104 390.857ZM175.536 397.361C173.736 403.145 170.352 407.537 165.48 410.129C165.864 410.489 166.536 411.233 166.8 411.593C171.72 408.689 175.296 404.057 177.336 397.793L175.536 397.361ZM160.224 393.713V395.489H178.8V393.713H160.224ZM159.072 393.713V400.457C159.072 403.601 158.856 407.729 156.864 410.681C157.296 410.897 158.064 411.521 158.376 411.881C160.56 408.737 160.944 403.889 160.944 400.481V393.713H159.072ZM169.032 389.681C169.128 401.177 171.288 411.545 176.184 411.545C178.008 411.545 178.68 410.369 179.016 406.265C178.536 406.097 177.864 405.689 177.456 405.281C177.312 408.473 177 409.721 176.328 409.721C173.208 409.721 170.856 400.721 170.904 389.681H169.032Z" fill="black"/>
<path d="M91.344 39.488V41.648H96.768V39.488H91.344ZM97.896 41.288V43.568H103.584V41.288H97.896ZM97.464 45.68V47.984H107.304V45.68H97.464ZM90.456 42.728V44.888H97.512V42.728H90.456ZM91.2 45.944V48.104H96.912V45.944H91.2ZM91.2 49.232V51.416H96.912V49.232H91.2ZM90.984 52.592V60.896H93.216V52.592H90.984ZM92.328 52.592V54.776H95.064V57.44H92.328V59.624H97.344V52.592H92.328ZM99.456 38.648V47.408H101.928V38.648H99.456ZM104.832 39.08C103.344 44.456 100.464 48.824 96.36 51.368C96.888 51.824 97.8 52.76 98.136 53.24C102.36 50.288 105.432 45.536 107.208 39.608L104.832 39.08ZM99.12 50.36V61.112H101.568V52.712H103.848V61.016H106.392V50.36H99.12ZM100.248 54.32V56.408H105.144V54.32H100.248ZM100.248 58.04V60.368H105.144V58.04H100.248ZM103.008 48.824C103.704 49.352 104.496 50.168 104.832 50.696L106.488 49.496C106.104 48.944 105.288 48.2 104.592 47.72L103.008 48.824ZM88.56 38.696C87.624 42.008 86.04 45.272 84.264 47.432C84.672 48.176 85.344 49.856 85.536 50.528C87.816 47.768 89.88 43.448 91.128 39.464L88.56 38.696ZM86.928 45.56V61.136H89.448V43.112L89.4 43.088L86.928 45.56ZM118.992 38.792V44.624H121.656V38.792H118.992ZM125.208 38.792V44.624H127.92V38.792H125.208ZM123.696 49.76V61.064H125.952V49.76H123.696ZM115.56 40.52V42.992H131.136V40.52H115.56ZM120.6 52.376V54.248H129.096V52.376H120.6ZM120.6 55.592V57.44H129.096V55.592H120.6ZM116.856 45.248V47.72H131.28V45.248H116.856ZM115.68 45.248V50.504C115.68 53.216 115.536 56.888 113.784 59.48C114.36 59.792 115.464 60.728 115.896 61.232C117.936 58.304 118.296 53.696 118.296 50.552V45.248H115.68ZM119.16 48.944V61.136H121.56V51.008H129.408V48.944H119.16ZM128.256 48.944V58.688C128.256 58.928 128.208 59 127.968 59C127.752 59.024 127.152 59.024 126.504 59C126.792 59.6 127.056 60.536 127.128 61.16C128.352 61.184 129.216 61.136 129.888 60.776C130.56 60.392 130.704 59.792 130.704 58.736V48.944H128.256ZM113.016 38.672C111.984 42.176 110.208 45.704 108.264 47.96C108.72 48.728 109.416 50.36 109.656 51.08C112.104 48.2 114.312 43.64 115.68 39.44L113.016 38.672ZM111.12 45.248V61.136H113.856V42.656L113.784 42.608L111.12 45.248ZM136.728 38.624V45.656H139.512V38.624H136.728ZM136.728 51.8V61.16H139.512V51.8H136.728ZM136.2 50.024H140.112V51.104H136.2V50.024ZM136.2 46.904H140.112V47.96H136.2V46.904ZM133.656 44.72V53.288H142.752V44.72H133.656ZM133.008 40.832V43.352H143.352V40.832H133.008ZM147.672 47.504V61.136H150.528V47.504H147.672ZM144.696 46.496V49.136H153.456V46.496H144.696ZM143.568 51.704V54.344H154.872V51.704H143.568ZM132.768 54.656V57.224H143.568V54.656H132.768ZM149.088 41.528C150.168 43.592 152.16 46.208 154.08 47.72C154.488 46.856 155.112 45.776 155.64 45.08C153.648 43.808 151.608 41.144 150.288 38.744H147.672C146.736 41 144.696 44.024 142.536 45.584C143.064 46.208 143.664 47.264 143.976 48.032C146.16 46.352 148.056 43.616 149.088 41.528ZM169.968 39.992V61.16H172.776V42.704H176.952V39.992H169.968ZM157.32 40.928V43.424H168.936V40.928H157.32ZM156.816 47.648V50.24H169.224V47.648H156.816ZM161.736 38.792V42.488H164.52V38.792H161.736ZM158.712 44.096C159.12 45.224 159.48 46.712 159.552 47.696L162.072 47.096C161.928 46.136 161.568 44.672 161.088 43.592L158.712 44.096ZM165.144 43.496C164.952 44.6 164.52 46.136 164.136 47.144L166.392 47.696C166.824 46.784 167.304 45.416 167.832 44.072L165.144 43.496ZM159.168 57.488V59.984H166.584V57.488H159.168ZM158.184 51.824V61.184H160.848V54.32H165.36V61.088H168.144V51.824H158.184ZM176.208 39.992V41C175.68 42.68 174.576 46.4 173.616 48.704C175.56 50.576 176.064 52.328 176.088 53.624C176.088 54.464 175.92 54.992 175.512 55.256C175.272 55.4 174.96 55.472 174.624 55.472C174.264 55.496 173.784 55.472 173.256 55.448C173.712 56.24 173.952 57.464 173.976 58.256C174.672 58.28 175.344 58.28 175.896 58.208C176.52 58.112 177.072 57.92 177.552 57.584C178.464 56.96 178.872 55.784 178.872 54.008C178.848 52.4 178.464 50.504 176.472 48.368C177.408 46.304 178.464 43.544 179.328 41.216L177.216 39.896L176.76 39.992H176.208Z" fill="black"/>
<g clip-path="url(#clip1_118_354)">
<path d="M136.919 179.681L135.204 186.538H128.005L126.291 179.681" stroke="#005CAF" stroke-width="4" stroke-miterlimit="10"/>
<path d="M128.004 179.338H135.203" stroke="#005CAF" stroke-width="4" stroke-miterlimit="10"/>
<path d="M126.201 201.057L128.001 186.537H135.201L137 201.057" stroke="#005CAF" stroke-width="4" stroke-miterlimit="10"/>
<path d="M140.6 193.737H147.799" stroke="#005CAF" stroke-width="4" stroke-miterlimit="10"/>
<path d="M142.4 157.739C144.388 157.739 146 159.351 146 161.339C146 163.327 144.388 164.939 142.4 164.939C142.4 169.634 139.386 173.589 135.2 175.077V179.338L153.199 186.537V201.057H110.002V186.537L128.001 179.338V175.077C123.815 173.589 120.801 169.634 120.801 164.939C118.813 164.939 117.201 163.327 117.201 161.339C117.201 159.351 118.813 157.739 120.801 157.739V154.02H124.401C126.389 154.02 128.001 152.408 128.001 150.42H135.2C135.2 152.408 136.812 154.02 138.8 154.02H142.4V157.739Z" stroke="#005CAF" stroke-width="4" stroke-miterlimit="10"/>
<path d="M135.201 164.939C135.201 166.927 133.59 168.539 131.602 168.539C129.613 168.539 128.002 166.927 128.002 164.939" stroke="#005CAF" stroke-width="4" stroke-miterlimit="10"/>
<path d="M120.801 154.02V150.42C120.801 146.443 124.024 143.22 128 143.22H135.2C139.176 143.22 142.399 146.443 142.399 150.42V154.02" stroke="#005CAF" stroke-width="4" stroke-miterlimit="10"/>
</g>
<defs>
<linearGradient id="paint0_linear_118_354" x1="140.617" y1="98.6883" x2="140.617" y2="-35.0431" gradientUnits="userSpaceOnUse">
<stop stop-color="#1F5099"/>
<stop offset="1" stop-color="#3B72C4"/>
</linearGradient>
<linearGradient id="paint1_linear_118_354" x1="131.5" y1="325" x2="131.5" y2="447" gradientUnits="userSpaceOnUse">
<stop stop-color="#D9D9D9" stop-opacity="0.49"/>
<stop offset="1" stop-color="#D9D9D9" stop-opacity="0"/>
</linearGradient>
<linearGradient id="paint2_linear_118_354" x1="142.661" y1="368.814" x2="142.661" y2="81.9787" gradientUnits="userSpaceOnUse">
<stop stop-color="#1F5099"/>
<stop offset="1" stop-color="#3B72C4"/>
</linearGradient>
<linearGradient id="paint3_linear_118_354" x1="132.2" y1="199.367" x2="132.2" y2="279.639" gradientUnits="userSpaceOnUse">
<stop stop-color="#1F5099"/>
<stop offset="1" stop-color="#3B72C4"/>
</linearGradient>
<linearGradient id="paint4_linear_118_354" x1="208.69" y1="277.538" x2="132.201" y2="318.724" gradientUnits="userSpaceOnUse">
<stop stop-color="#1F5099"/>
<stop offset="1" stop-color="#3B72C4"/>
</linearGradient>
<linearGradient id="paint5_linear_118_354" x1="131.52" y1="259.53" x2="131.52" y2="101.95" gradientUnits="userSpaceOnUse">
<stop offset="0.36" stop-color="#E9F2FF"/>
<stop offset="1" stop-color="white" stop-opacity="0"/>
</linearGradient>
<linearGradient id="paint6_linear_118_354" x1="132" y1="-12.5" x2="132" y2="357.5" gradientUnits="userSpaceOnUse">
<stop stop-color="white"/>
<stop offset="1" stop-color="white" stop-opacity="0"/>
</linearGradient>
<linearGradient id="paint7_linear_118_354" x1="142.661" y1="368.814" x2="142.661" y2="306.5" gradientUnits="userSpaceOnUse">
<stop stop-color="#1F5099"/>
<stop offset="1" stop-color="#3B72C4"/>
</linearGradient>
<linearGradient id="paint8_linear_118_354" x1="149.89" y1="462.542" x2="149.89" y2="460.927" gradientUnits="userSpaceOnUse">
<stop stop-color="#1F5099"/>
<stop offset="1" stop-color="#3B72C4"/>
</linearGradient>
<clipPath id="clip0_118_354">
<rect width="157.402" height="120" fill="white" transform="translate(53)"/>
</clipPath>
<clipPath id="clip1_118_354">
<rect width="46.7969" height="61.4359" fill="white" transform="translate(108.203 141.421)"/>
</clipPath>
</defs>
</svg>
