<svg width="265" height="535" viewBox="0 0 265 535" fill="none" xmlns="http://www.w3.org/2000/svg">
<rect x="0.0898438" y="396" width="264" height="122" fill="url(#paint0_linear_118_355)"/>
<path d="M55.0898 241.042V395.651L131.606 439.814L208.122 395.651V241.042L131.606 196.878L55.0898 241.042Z" fill="url(#paint1_linear_118_355)"/>
<path d="M208.122 241.042L131.606 285.243L55.0898 241.042L131.606 196.878L208.122 241.042Z" fill="url(#paint2_linear_118_355)"/>
<path opacity="0.16" d="M208.122 395.651L131.606 439.814L55.0898 395.651L131.606 351.449L208.122 395.651Z" fill="url(#paint3_linear_118_355)"/>
<path opacity="0.39" d="M208.123 241.042V395.651L131.607 439.814V285.243L208.123 241.042Z" fill="url(#paint4_linear_118_355)"/>
<g clip-path="url(#clip0_118_355)">
<path d="M209.243 1.24922H54.3398V96.1899H106.257L131.791 118.351L157.325 96.1899H209.243V1.24922Z" fill="white" stroke="#F5F3F3" stroke-width="2.49844" stroke-miterlimit="10"/>
<path d="M195.726 15.9151H67.8555V83.9725H114.826L131.791 98.6883L148.755 83.9725H195.726V15.9151Z" fill="white" stroke="url(#paint5_linear_118_355)" stroke-width="2.49844" stroke-miterlimit="10"/>
</g>
<path d="M87.1298 40.448V42.776H107.146V40.448H87.1298ZM88.0178 58.136V60.488H106.378V58.136H88.0178ZM92.1458 43.808V45.824H101.938V43.808H92.1458ZM92.1458 46.88V48.896H101.938V46.88H92.1458ZM85.8578 49.952V52.304H108.298V49.952H85.8578ZM91.3058 54.32V56.576H102.898V54.32H91.3058ZM90.4418 38.624V51.248H93.3458V38.624H90.4418ZM100.906 38.648V51.248H103.834V38.648H100.906ZM95.5538 52.808V59.504H98.5058V52.808H95.5538ZM91.9298 50.624C90.6578 52.568 88.1378 54.416 85.6418 55.328C86.2418 55.856 87.0578 56.864 87.4658 57.536C90.2018 56.312 92.7938 54.056 94.3298 51.512L91.9298 50.624ZM102.346 50.624L100.066 51.488C101.578 53.888 104.074 56.168 106.666 57.32C107.098 56.648 107.938 55.616 108.562 55.088C106.09 54.2 103.618 52.472 102.346 50.624ZM112.258 39.632V46.712C112.258 50.552 112.066 55.952 109.666 59.624C110.41 59.912 111.658 60.632 112.21 61.088C114.754 57.152 115.138 50.912 115.138 46.712V39.632H112.258ZM113.914 39.632V41.816H127.858V43.088H113.914V45.296H130.738V39.632H113.914ZM117.826 45.44C118.306 45.992 118.786 46.808 118.93 47.336L121.234 46.568C121.042 46.016 120.538 45.248 120.01 44.72L117.826 45.44ZM126.106 44.696C125.794 45.248 125.242 46.064 124.786 46.64L126.826 47.24C127.33 46.76 127.954 46.112 128.602 45.344L126.106 44.696ZM116.818 53.768V61.184H119.602V55.52H126.97V61.16H129.898V53.768H116.818ZM118.522 50.528H127.93V51.464H118.522V50.528ZM118.522 48.104H127.93V49.04H118.522V48.104ZM115.858 46.544V53.048H130.714V46.544H115.858ZM121.834 47.168V52.088H124.474V47.168H121.834ZM118.642 56.384V57.896H128.026V56.384H118.642ZM118.642 58.808V60.56H128.026V58.808H118.642ZM135.346 43.16V45.968H154.738V43.16H135.346ZM136.618 50.144V52.928H153.586V50.144H136.618ZM134.314 57.584V60.416H155.914V57.584H134.314ZM143.506 45.608V59.096H146.674V45.608H143.506ZM141.37 40.232C142.954 41.36 144.922 42.992 145.834 44.096L148.378 42.248C147.346 41.12 145.282 39.56 143.746 38.576L141.37 40.232ZM164.17 58.424V60.536H175.882V58.424H164.17ZM167.602 43.664V46.544H170.386V43.664H167.602ZM158.746 45.32V50.096H161.458V47.48H176.818V50.096H179.626V45.32H158.746ZM164.074 48.488V50.552H172.954V51.8H164.074V53.864H175.834V48.488H164.074ZM164.194 54.944V57.056H174.778V61.184H177.658V54.944H164.194ZM162.49 48.488V61.208H165.226V48.488H162.49ZM161.17 40.304V42.56H168.73V40.304H161.17ZM170.89 40.304V42.56H180.202V40.304H170.89ZM161.266 38.432C160.522 40.256 159.154 42.128 157.714 43.328C158.362 43.664 159.514 44.432 160.066 44.864C161.482 43.496 163.018 41.312 163.954 39.152L161.266 38.432ZM171.034 38.432C170.338 40.184 168.994 41.936 167.458 43.04C168.178 43.352 169.402 43.976 169.978 44.408C171.418 43.16 172.906 41.168 173.77 39.104L171.034 38.432ZM162.058 42.056C162.634 42.92 163.258 44.144 163.474 44.888L166.066 44.144C165.778 43.376 165.106 42.224 164.506 41.408L162.058 42.056ZM172.786 42.128C173.458 42.968 174.25 44.192 174.562 44.912L177.226 44.168C176.842 43.4 176.002 42.248 175.306 41.456L172.786 42.128Z" fill="black"/>
<path d="M0.0898438 532.542H263.18" stroke="url(#paint6_linear_118_355)" stroke-width="3.84696" stroke-miterlimit="10"/>
<path d="M55.0898 215.16V224.37L131.61 268.53L208.13 224.37V215.16L131.61 171L55.0898 215.16Z" fill="url(#paint7_linear_118_355)"/>
<path d="M208.12 215.16L131.6 259.36L55.0898 215.16L131.61 171L208.13 215.16H208.12Z" fill="url(#paint8_linear_118_355)"/>
<path d="M85.5058 470.665V472.273H93.5458V470.665H85.5058ZM87.3538 466.801V468.361H93.3298V466.801H87.3538ZM88.0738 471.505V482.689H89.7058V471.505H88.0738ZM92.7298 470.665V477.769C92.7298 477.985 92.6818 478.057 92.4418 478.081C92.1778 478.105 91.4338 478.105 90.4738 478.081C90.6898 478.513 90.8818 479.161 90.9058 479.641C92.2018 479.641 93.0658 479.617 93.6418 479.353C94.2178 479.065 94.3378 478.585 94.3378 477.793V470.665H92.7298ZM94.7938 461.761V463.321H106.914V461.761H94.7938ZM97.3858 470.689H104.418V473.041H97.3858V470.689ZM97.3858 474.361H104.418V476.737H97.3858V474.361ZM97.3858 467.017H104.418V469.345H97.3858V467.017ZM95.7058 465.625V478.153H106.17V465.625H95.7058ZM99.9538 462.529C99.8098 463.633 99.4738 465.289 99.1858 466.369L100.77 466.681C101.154 465.673 101.586 464.161 101.994 462.769L99.9538 462.529ZM98.1058 478.585C97.0738 479.641 94.9138 480.889 92.9938 481.585C93.3538 481.897 93.9298 482.449 94.1938 482.809C96.1138 482.089 98.3698 480.793 99.6898 479.521L98.1058 478.585ZM101.826 479.617C103.314 480.529 105.162 481.897 106.05 482.785L107.49 481.753C106.506 480.841 104.658 479.545 103.194 478.705L101.826 479.617ZM89.2978 460.657C88.4578 462.745 86.8738 465.433 84.5698 467.425C84.9058 467.689 85.3858 468.337 85.6258 468.721C88.2178 466.369 89.8498 463.561 90.8338 461.521V461.041H90.2818V460.657H89.2978ZM89.5138 460.657V462.001H89.8738C91.4578 463.321 93.3298 465.577 94.2418 466.921L95.4178 465.409C94.4818 464.065 92.4898 462.025 90.8818 460.657H89.5138ZM109.194 476.401V477.865H130.986V476.401H109.194ZM115.194 462.841V464.161H130.866V462.841H115.194ZM123.978 474.745V480.769C123.978 481.081 123.882 481.177 123.474 481.177C123.09 481.201 121.722 481.225 120.21 481.177C120.426 481.633 120.714 482.257 120.786 482.713C122.778 482.737 124.002 482.713 124.77 482.473C125.514 482.209 125.73 481.753 125.73 480.793V474.745H123.978ZM113.322 478.897C114.594 479.689 116.13 480.913 116.826 481.777L118.146 480.625C117.378 479.785 115.818 478.609 114.522 477.865L113.322 478.897ZM110.01 462.097C111.21 462.985 112.626 464.305 113.25 465.217L114.498 464.113C113.874 463.177 112.434 461.953 111.21 461.113L110.01 462.097ZM118.146 461.017C118.698 461.737 119.25 462.721 119.49 463.393L121.05 462.961C120.81 462.289 120.21 461.329 119.634 460.657L118.146 461.017ZM118.818 468.337H127.122V469.417H118.818V468.337ZM118.818 470.377H127.122V471.457H118.818V470.377ZM118.818 466.345H127.122V467.377H118.818V466.345ZM117.138 465.361V472.465H128.874V465.361H117.138ZM114.138 466.897H109.29V468.361H112.482V472.081H114.138V466.897ZM121.986 463.297C121.89 463.945 121.65 464.953 121.458 465.649L122.874 465.889C123.138 465.265 123.45 464.401 123.762 463.489L121.986 463.297ZM126.378 460.609C126.066 461.257 125.418 462.241 124.962 462.937L126.354 463.297C126.882 462.673 127.506 461.857 128.082 460.993L126.378 460.609ZM114.138 471.457H112.89C111.666 472.273 110.274 473.089 109.146 473.665L109.866 475.177C111.138 474.337 112.338 473.545 113.514 472.729C114.762 474.217 116.562 474.841 119.106 474.913C121.914 475.009 127.77 474.985 130.674 474.865C130.746 474.409 130.986 473.737 131.154 473.401C128.082 473.569 121.842 473.641 119.058 473.545C116.85 473.473 115.074 472.849 114.138 471.457ZM143.154 460.633V463.465H144.954V460.633H143.154ZM134.034 462.385V466.225H135.69V463.849H152.466V466.225H154.17V462.385H134.034ZM143.298 465.457C143.202 466.945 143.01 468.817 142.818 470.041H144.378C144.546 468.865 144.714 466.993 144.834 465.457H143.298ZM138.162 474.841H150.114V475.945H138.162V474.841ZM138.162 477.001H150.114V478.129H138.162V477.001ZM138.162 472.705H150.114V473.761H138.162V472.705ZM136.41 471.601V479.233H151.938V471.601H136.41ZM145.626 480.265C148.626 481.081 151.53 482.065 153.282 482.737L154.842 481.681C152.898 480.985 149.754 480.001 146.85 479.233L145.626 480.265ZM139.002 466.081H149.514L149.25 469.489H138.57L139.002 466.081ZM137.538 465.001L136.794 470.569H150.81L151.29 465.001H137.538ZM140.898 479.209C139.434 480.169 136.026 481.105 133.218 481.537C133.554 481.873 134.058 482.425 134.298 482.785C137.13 482.305 140.514 481.321 142.386 480.145L140.898 479.209ZM133.482 467.065V468.433H138.498V468.313H149.562V468.433H154.746V467.065H149.562V467.185H138.498V467.065H133.482ZM158.058 465.889V467.713H176.682V465.889H158.058ZM175.986 465.889V466.273C175.506 475.801 174.978 479.545 174.066 480.433C173.754 480.721 173.466 480.793 172.938 480.793C172.338 480.793 170.802 480.769 169.17 480.625C169.506 481.153 169.746 481.945 169.77 482.473C171.258 482.569 172.794 482.617 173.634 482.521C174.546 482.449 175.122 482.257 175.698 481.561C176.754 480.361 177.258 476.785 177.81 466.849C177.834 466.561 177.858 465.889 177.858 465.889H175.986ZM165.906 460.681V464.857C165.906 469.825 165.33 476.641 157.362 481.393C157.794 481.705 158.466 482.377 158.73 482.809C167.13 477.745 167.802 470.329 167.802 464.857V460.681H165.906Z" fill="black"/>
<g clip-path="url(#clip1_118_355)">
<path d="M113.766 154.84C118.928 151.238 125.334 148.992 132.091 148.992C149.666 148.992 164.099 163.425 164.099 181C164.099 188.532 161.34 195.461 156.956 200.922C161.34 195.461 164.099 188.532 164.099 181" stroke="#F06214" stroke-width="4" stroke-miterlimit="10"/>
<path d="M155.996 190.961V200.922H166.09" stroke="#F06214" stroke-width="4" stroke-miterlimit="10"/>
<path d="M150.283 207.161C145.12 210.762 138.847 213.009 132.09 213.009C114.515 213.009 100.082 198.576 100.082 181.001C100.082 173.47 102.708 166.541 107.092 161.079C102.708 166.539 100.082 173.468 100.082 181" stroke="#F06214" stroke-width="4" stroke-miterlimit="10"/>
<path d="M108.051 171.039V161.078H98.0898" stroke="#F06214" stroke-width="4" stroke-miterlimit="10"/>
<path d="M140.059 181C140.059 185.401 136.491 188.969 132.09 188.969C127.688 188.969 123.988 185.401 123.988 181C123.988 176.599 127.688 173.031 132.09 173.031C136.491 173.031 140.059 176.599 140.059 181Z" stroke="#F06214" stroke-width="4" stroke-miterlimit="10"/>
<path d="M152.01 184.984V177.016H147.463C147.087 175.567 146.515 174.209 145.772 172.952L148.993 169.731L143.358 164.096L140.137 167.316C138.879 166.575 137.521 166.001 136.073 165.626V161.078H128.104V165.626C126.655 166 125.165 166.574 123.907 167.316L120.687 164.096L115.053 169.731L118.273 172.952C117.531 174.209 116.959 175.567 116.583 177.016H112.035V184.984H116.583C116.959 186.433 117.531 187.791 118.273 189.048L115.053 192.269L120.688 197.903L123.909 194.682C125.166 195.423 126.658 195.997 128.105 196.373V200.921H136.074V196.373C137.523 195.999 138.881 195.425 140.138 194.682L143.359 197.903L148.993 192.269L145.772 189.048C146.513 187.791 147.087 186.433 147.463 184.984H152.01V184.984Z" stroke="#F06214" stroke-width="4" stroke-miterlimit="10"/>
</g>
<defs>
<linearGradient id="paint0_linear_118_355" x1="132.09" y1="396" x2="132.09" y2="518" gradientUnits="userSpaceOnUse">
<stop stop-color="#D9D9D9" stop-opacity="0.49"/>
<stop offset="1" stop-color="#D9D9D9" stop-opacity="0"/>
</linearGradient>
<linearGradient id="paint1_linear_118_355" x1="12.5332" y1="129.5" x2="132.033" y2="479.5" gradientUnits="userSpaceOnUse">
<stop stop-color="#F06214"/>
<stop offset="1" stop-color="#FFAE2B"/>
</linearGradient>
<linearGradient id="paint2_linear_118_355" x1="12.5332" y1="172.37" x2="29.9186" y2="312.36" gradientUnits="userSpaceOnUse">
<stop stop-color="#F06214"/>
<stop offset="1" stop-color="#FFAE2B"/>
</linearGradient>
<linearGradient id="paint3_linear_118_355" x1="12.5332" y1="326.941" x2="29.9186" y2="466.931" gradientUnits="userSpaceOnUse">
<stop stop-color="#F06214"/>
<stop offset="1" stop-color="#FFAE2B"/>
</linearGradient>
<linearGradient id="paint4_linear_118_355" x1="227.09" y1="317" x2="219.511" y2="474.662" gradientUnits="userSpaceOnUse">
<stop stop-color="#F06214"/>
<stop offset="1" stop-color="#FFAE2B"/>
</linearGradient>
<linearGradient id="paint5_linear_118_355" x1="131.791" y1="15.9151" x2="131.791" y2="169.965" gradientUnits="userSpaceOnUse">
<stop stop-color="#F06214"/>
<stop offset="1" stop-color="#F1B594"/>
</linearGradient>
<linearGradient id="paint6_linear_118_355" x1="131.635" y1="532.542" x2="131.635" y2="534.404" gradientUnits="userSpaceOnUse">
<stop stop-color="#F06214"/>
<stop offset="1" stop-color="#F1B594"/>
</linearGradient>
<linearGradient id="paint7_linear_118_355" x1="131.61" y1="268.53" x2="131.61" y2="110.95" gradientUnits="userSpaceOnUse">
<stop offset="0.658189" stop-color="#FFE8B4"/>
<stop offset="1" stop-color="white" stop-opacity="0"/>
</linearGradient>
<linearGradient id="paint8_linear_118_355" x1="132.09" y1="141.5" x2="132.09" y2="366.5" gradientUnits="userSpaceOnUse">
<stop stop-color="white"/>
<stop offset="1" stop-color="white" stop-opacity="0"/>
</linearGradient>
<clipPath id="clip0_118_355">
<rect width="157.402" height="120" fill="white" transform="translate(53.0898)"/>
</clipPath>
<clipPath id="clip1_118_355">
<rect width="68" height="68" fill="white" transform="translate(98.0898 147)"/>
</clipPath>
</defs>
</svg>
