<svg width="68" height="191" viewBox="0 0 68 191" fill="none" xmlns="http://www.w3.org/2000/svg">
<path d="M66.6667 1.18524H1.40625V29.9079H26.3388L34.0365 36.6123L41.7341 29.9079H66.6667V1.18524Z" fill="white" stroke="#F06214" stroke-width="1.5" stroke-miterlimit="10"/>
<path d="M7.69425 10.377V11.273H19.1603V10.377H7.69425ZM8.14225 20.639V21.521H18.7403V20.639H8.14225ZM10.4523 12.197V12.995H16.3463V12.197H10.4523ZM10.4523 13.961V14.759H16.3463V13.961H10.4523ZM7.03625 15.767V16.649H19.7623V15.767H7.03625ZM9.97625 18.273V19.141H16.8503V18.273H9.97625ZM9.82225 9.03299V16.257H10.8723V9.03299H9.82225ZM15.9823 9.03299V16.257H17.0323V9.03299H15.9823ZM12.8323 17.097V21.129H13.9103V17.097H12.8323ZM10.5643 16.005C9.80825 17.237 8.31025 18.441 6.89625 19.001C7.13425 19.197 7.42825 19.561 7.58225 19.799C9.05225 19.113 10.5923 17.783 11.4463 16.341L10.5643 16.005ZM16.2903 16.005L15.4643 16.327C16.2763 17.699 17.7603 19.001 19.2443 19.631C19.3983 19.379 19.7063 19.015 19.9443 18.819C18.4883 18.301 17.0323 17.195 16.2903 16.005ZM22.3803 9.69099V13.765C22.3803 16.019 22.2542 19.113 20.8543 21.297C21.1203 21.409 21.5823 21.675 21.7783 21.843C23.2203 19.561 23.4303 16.131 23.4303 13.765V9.69099H22.3803ZM22.9543 9.69099V10.531H31.7883V11.693H22.9543V12.547H32.8243V9.69099H22.9543ZM25.3483 12.673C25.6983 13.023 26.0483 13.527 26.1743 13.863L27.0143 13.541C26.8743 13.191 26.5103 12.715 26.1603 12.379L25.3483 12.673ZM30.4583 12.351C30.2483 12.701 29.8563 13.233 29.5483 13.583L30.3043 13.835C30.6263 13.541 31.0183 13.107 31.3823 12.645L30.4583 12.351ZM24.7603 17.783V21.913H25.7683V18.497H31.2143V21.885H32.2643V17.783H24.7603ZM25.1103 15.641H31.7883V16.495H25.1103V15.641ZM25.1103 14.143H31.7883V14.997H25.1103V14.143ZM24.1303 13.485V17.167H32.7963V13.485H24.1303ZM27.9103 13.737V16.789H28.8903V13.737H27.9103ZM25.3763 19.281V19.925H31.6063V19.281H25.3763ZM25.3763 20.765V21.479H31.6063V20.765H25.3763ZM35.8343 11.819V12.855H46.9643V11.819H35.8343ZM36.4783 15.935V16.957H46.3763V15.935H36.4783ZM35.1903 20.401V21.437H47.6643V20.401H35.1903ZM40.8323 12.645V20.933H41.9663V12.645H40.8323ZM39.6283 9.66299C40.5523 10.349 41.6583 11.343 42.1623 12.001L43.0723 11.343C42.5263 10.671 41.3923 9.71899 40.4823 9.07499L39.6283 9.66299ZM52.1863 20.625V21.437H59.5923V20.625H52.1863ZM54.8603 11.861V13.415H55.8823V11.861H54.8603ZM49.5403 12.953V15.585H50.5483V13.793H60.3343V15.585H61.3703V12.953H49.5403ZM52.1303 14.661V15.459H58.2763V16.663H52.1303V17.475H59.3123V14.661H52.1303ZM52.1723 18.441V19.267H59.1723V21.885H60.2083V18.441H52.1723ZM51.5703 14.661V21.913H52.5783V14.661H51.5703ZM50.6883 10.097V10.965H55.2103V10.097H50.6883ZM56.1483 10.097V10.965H61.8043V10.097H56.1483ZM50.9543 8.96299C50.5203 10.055 49.7643 11.161 48.9243 11.889C49.1763 12.015 49.5963 12.309 49.7923 12.463C50.6043 11.665 51.4303 10.447 51.9483 9.21499L50.9543 8.96299ZM56.4703 8.96299C56.0223 10.041 55.2103 11.077 54.2863 11.749C54.5523 11.875 54.9863 12.127 55.1963 12.281C56.0783 11.553 56.9603 10.419 57.4643 9.20099L56.4703 8.96299ZM51.4723 10.755C51.7943 11.273 52.1303 11.973 52.2563 12.407L53.2083 12.127C53.0683 11.693 52.7043 11.007 52.3823 10.517L51.4723 10.755ZM57.4083 10.769C57.8563 11.273 58.3323 11.987 58.5283 12.435L59.4803 12.127C59.2703 11.665 58.7663 10.979 58.3323 10.489L57.4083 10.769Z" fill="black"/>
<rect width="66" height="67" transform="translate(0.666016 122.822)" fill="url(#paint0_linear_203_4216)"/>
<path d="M18.61 150.07V151.142H23.97V150.07H18.61ZM19.842 147.494V148.534H23.826V147.494H19.842ZM20.322 150.63V158.086H21.41V150.63H20.322ZM23.426 150.07V154.806C23.426 154.95 23.394 154.998 23.234 155.014C23.058 155.03 22.562 155.03 21.922 155.014C22.066 155.302 22.194 155.734 22.21 156.054C23.074 156.054 23.65 156.038 24.034 155.862C24.418 155.67 24.498 155.35 24.498 154.822V150.07H23.426ZM24.802 144.134V145.174H32.882V144.134H24.802ZM26.53 150.086H31.218V151.654H26.53V150.086ZM26.53 152.534H31.218V154.118H26.53V152.534ZM26.53 147.638H31.218V149.19H26.53V147.638ZM25.41 146.71V155.062H32.386V146.71H25.41ZM28.242 144.646C28.146 145.382 27.922 146.486 27.73 147.206L28.786 147.414C29.042 146.742 29.33 145.734 29.602 144.806L28.242 144.646ZM27.01 155.35C26.322 156.054 24.882 156.886 23.602 157.35C23.842 157.558 24.226 157.926 24.402 158.166C25.682 157.686 27.186 156.822 28.066 155.974L27.01 155.35ZM29.49 156.038C30.482 156.646 31.714 157.558 32.306 158.15L33.266 157.462C32.61 156.854 31.378 155.99 30.402 155.43L29.49 156.038ZM21.138 143.398C20.578 144.79 19.522 146.582 17.986 147.91C18.21 148.086 18.53 148.518 18.69 148.774C20.418 147.206 21.506 145.334 22.162 143.974V143.654H21.794V143.398H21.138ZM21.282 143.398V144.294H21.522C22.578 145.174 23.826 146.678 24.434 147.574L25.218 146.566C24.594 145.67 23.266 144.31 22.194 143.398H21.282ZM34.402 153.894V154.87H48.93V153.894H34.402ZM38.402 144.854V145.734H48.85V144.854H38.402ZM44.258 152.79V156.806C44.258 157.014 44.194 157.078 43.922 157.078C43.666 157.094 42.754 157.11 41.746 157.078C41.89 157.382 42.082 157.798 42.13 158.102C43.458 158.118 44.274 158.102 44.786 157.942C45.282 157.766 45.426 157.462 45.426 156.822V152.79H44.258ZM37.154 155.558C38.002 156.086 39.026 156.902 39.49 157.478L40.37 156.71C39.858 156.15 38.818 155.366 37.954 154.87L37.154 155.558ZM34.946 144.358C35.746 144.95 36.69 145.83 37.106 146.438L37.938 145.702C37.522 145.078 36.562 144.262 35.746 143.702L34.946 144.358ZM40.37 143.638C40.738 144.118 41.106 144.774 41.266 145.222L42.306 144.934C42.146 144.486 41.746 143.846 41.362 143.398L40.37 143.638ZM40.818 148.518H46.354V149.238H40.818V148.518ZM40.818 149.878H46.354V150.598H40.818V149.878ZM40.818 147.19H46.354V147.878H40.818V147.19ZM39.698 146.534V151.27H47.522V146.534H39.698ZM37.698 147.558H34.466V148.534H36.594V151.014H37.698V147.558ZM42.93 145.158C42.866 145.59 42.706 146.262 42.578 146.726L43.522 146.886C43.698 146.47 43.906 145.894 44.114 145.286L42.93 145.158ZM45.858 143.366C45.65 143.798 45.218 144.454 44.914 144.918L45.842 145.158C46.194 144.742 46.61 144.198 46.994 143.622L45.858 143.366ZM37.698 150.598H36.866C36.05 151.142 35.122 151.686 34.37 152.07L34.85 153.078C35.698 152.518 36.498 151.99 37.282 151.446C38.114 152.438 39.314 152.854 41.01 152.902C42.882 152.966 46.786 152.95 48.722 152.87C48.77 152.566 48.93 152.118 49.042 151.894C46.994 152.006 42.834 152.054 40.978 151.99C39.506 151.942 38.322 151.526 37.698 150.598ZM25.042 165.382V167.27H26.242V165.382H25.042ZM18.962 166.55V169.11H20.066V167.526H31.25V169.11H32.386V166.55H18.962ZM25.138 168.598C25.074 169.59 24.946 170.838 24.818 171.654H25.858C25.97 170.87 26.082 169.622 26.162 168.598H25.138ZM21.714 174.854H29.682V175.59H21.714V174.854ZM21.714 176.294H29.682V177.046H21.714V176.294ZM21.714 173.43H29.682V174.134H21.714V173.43ZM20.546 172.694V177.782H30.898V172.694H20.546ZM26.69 178.47C28.69 179.014 30.626 179.67 31.794 180.118L32.834 179.414C31.538 178.95 29.442 178.294 27.506 177.782L26.69 178.47ZM22.274 169.014H29.282L29.106 171.286H21.986L22.274 169.014ZM21.298 168.294L20.802 172.006H30.146L30.466 168.294H21.298ZM23.538 177.766C22.562 178.406 20.29 179.03 18.418 179.318C18.642 179.542 18.978 179.91 19.138 180.15C21.026 179.83 23.282 179.174 24.53 178.39L23.538 177.766ZM18.594 169.67V170.582H21.938V170.502H29.314V170.582H32.77V169.67H29.314V169.75H21.938V169.67H18.594ZM34.978 168.886V170.102H47.394V168.886H34.978ZM46.93 168.886V169.142C46.61 175.494 46.258 177.99 45.65 178.582C45.442 178.774 45.25 178.822 44.898 178.822C44.498 178.822 43.474 178.806 42.386 178.71C42.61 179.062 42.77 179.59 42.786 179.942C43.778 180.006 44.802 180.038 45.362 179.974C45.97 179.926 46.354 179.798 46.738 179.334C47.442 178.534 47.778 176.15 48.146 169.526C48.162 169.334 48.178 168.886 48.178 168.886H46.93ZM40.21 165.414V168.198C40.21 171.51 39.826 176.054 34.514 179.222C34.802 179.43 35.25 179.878 35.426 180.166C41.026 176.79 41.474 171.846 41.474 168.198V165.414H40.21Z" fill="black"/>
<path d="M0.666016 189.822H66.666" stroke="#F06214" stroke-width="1.21108" stroke-miterlimit="10"/>
<path d="M9.66602 74.218V122.891L33.7544 136.794L57.8428 122.891V74.218L33.7544 60.3148L9.66602 74.218Z" fill="url(#paint1_linear_203_4216)"/>
<path d="M57.8428 74.218L33.7544 88.1333L9.66602 74.218L33.7544 60.3148L57.8428 74.218Z" fill="url(#paint2_linear_203_4216)"/>
<path opacity="0.16" d="M57.8428 122.891L33.7544 136.794L9.66602 122.891L33.7544 108.976L57.8428 122.891Z" fill="url(#paint3_linear_203_4216)"/>
<path opacity="0.39" d="M57.8442 74.2179V122.891L33.7559 136.794V88.1332L57.8442 74.2179Z" fill="url(#paint4_linear_203_4216)"/>
<path d="M9.66602 66.0701V68.9695L33.7556 82.8717L57.8453 68.9695V66.0701L33.7556 52.1678L9.66602 66.0701Z" fill="url(#paint5_linear_203_4216)"/>
<path d="M57.8421 66.0701L33.7525 79.9849L9.66602 66.0701L33.7556 52.1678L57.8453 66.0701H57.8421Z" fill="url(#paint6_linear_203_4216)"/>
<g clip-path="url(#clip0_203_4216)">
<path d="M28.1348 47.0804C29.76 45.9465 31.7765 45.2394 33.9039 45.2394C39.4368 45.2394 43.9804 49.7831 43.9804 55.316C43.9804 57.6871 43.112 59.8684 41.7318 61.5877C43.112 59.8684 43.9804 57.6871 43.9804 55.316" stroke="#F06214" stroke-width="1.25926" stroke-miterlimit="10"/>
<path d="M41.4297 58.4518V61.5877H44.6073" stroke="#F06214" stroke-width="1.25926" stroke-miterlimit="10"/>
<path d="M39.6339 63.552C38.0087 64.6855 36.034 65.3929 33.9066 65.3929C28.3737 65.3929 23.8301 60.8493 23.8301 55.3164C23.8301 52.9453 24.6567 50.764 26.0369 49.0447C24.6567 50.7635 23.8301 52.9448 23.8301 55.316" stroke="#F06214" stroke-width="1.25926" stroke-miterlimit="10"/>
<path d="M26.337 52.1801V49.0443H23.2012" stroke="#F06214" stroke-width="1.25926" stroke-miterlimit="10"/>
<path d="M36.4127 55.316C36.4127 56.7016 35.2896 57.8247 33.904 57.8247C32.5184 57.8247 31.3535 56.7016 31.3535 55.316C31.3535 53.9304 32.5184 52.8073 33.904 52.8073C35.2896 52.8073 36.4127 53.9304 36.4127 55.316Z" stroke="#F06214" stroke-width="1.25926" stroke-miterlimit="10"/>
<path d="M40.1785 56.5703V54.0616H38.7469C38.6286 53.6055 38.4484 53.1782 38.2147 52.7822L39.2286 51.7683L37.4545 49.9942L36.4406 51.0082C36.0447 50.7749 35.6169 50.5942 35.1612 50.4759V49.0443H32.6525V50.4759C32.1963 50.5938 31.7272 50.7744 31.3313 51.0082L30.3173 49.9942L28.5437 51.7683L29.5576 52.7822C29.3239 53.1782 29.1437 53.6055 29.0254 54.0616H27.5938V56.5703H29.0254C29.1437 57.0265 29.3239 57.4538 29.5576 57.8498L28.5437 58.8637L30.3178 60.6373L31.3317 59.6234C31.7276 59.8567 32.1972 60.0373 32.6529 60.1556V61.5873H35.1616V60.1556C35.6178 60.0377 36.0451 59.8571 36.441 59.6234L37.455 60.6373L39.2286 58.8637L38.2147 57.8498C38.448 57.4538 38.6286 57.0265 38.7469 56.5703H40.1785V56.5703Z" stroke="#F06214" stroke-width="1.25926" stroke-miterlimit="10"/>
</g>
<defs>
<linearGradient id="paint0_linear_203_4216" x1="33" y1="0" x2="33" y2="67" gradientUnits="userSpaceOnUse">
<stop stop-color="#E8E8E8"/>
<stop offset="1" stop-color="white" stop-opacity="0"/>
</linearGradient>
<linearGradient id="paint1_linear_203_4216" x1="-3.73144" y1="39.103" x2="33.8889" y2="149.288" gradientUnits="userSpaceOnUse">
<stop stop-color="#F06214"/>
<stop offset="1" stop-color="#FFAE2B"/>
</linearGradient>
<linearGradient id="paint2_linear_203_4216" x1="-3.73144" y1="52.5993" x2="1.74172" y2="96.6701" gradientUnits="userSpaceOnUse">
<stop stop-color="#F06214"/>
<stop offset="1" stop-color="#FFAE2B"/>
</linearGradient>
<linearGradient id="paint3_linear_203_4216" x1="-3.73144" y1="101.26" x2="1.74172" y2="145.331" gradientUnits="userSpaceOnUse">
<stop stop-color="#F06214"/>
<stop offset="1" stop-color="#FFAE2B"/>
</linearGradient>
<linearGradient id="paint4_linear_203_4216" x1="63.8151" y1="98.1308" x2="61.4291" y2="147.765" gradientUnits="userSpaceOnUse">
<stop stop-color="#F06214"/>
<stop offset="1" stop-color="#FFAE2B"/>
</linearGradient>
<linearGradient id="paint5_linear_203_4216" x1="33.7556" y1="82.8717" x2="33.7556" y2="33.2632" gradientUnits="userSpaceOnUse">
<stop offset="0.658189" stop-color="#FFE8B4"/>
<stop offset="1" stop-color="white" stop-opacity="0"/>
</linearGradient>
<linearGradient id="paint6_linear_203_4216" x1="33.9068" y1="42.8808" x2="33.9068" y2="113.714" gradientUnits="userSpaceOnUse">
<stop stop-color="white"/>
<stop offset="1" stop-color="white" stop-opacity="0"/>
</linearGradient>
<clipPath id="clip0_203_4216">
<rect width="21.4074" height="21.4074" fill="white" transform="translate(23.2031 44.6123)"/>
</clipPath>
</defs>
</svg>
